<?xml version="1.0" encoding="utf-8"?>
<!-- Generator: Adobe Illustrator 19.1.0, SVG Export Plug-In . SVG Version: 6.00 Build 0)  -->
<svg version="1.1"
	 id="svg2" sodipodi:docname="a_paisaje_boceto.svg" inkscape:version="0.47pre4 r22446" xmlns:cc="http://creativecommons.org/ns#" xmlns:dc="http://purl.org/dc/elements/1.1/" xmlns:rdf="http://www.w3.org/1999/02/22-rdf-syntax-ns#" xmlns:svg="http://www.w3.org/2000/svg" xmlns:inkscape="http://www.inkscape.org/namespaces/inkscape" xmlns:sodipodi="http://sodipodi.sourceforge.net/DTD/sodipodi-0.dtd"
	 xmlns="http://www.w3.org/2000/svg" xmlns:xlink="http://www.w3.org/1999/xlink" x="0px" y="0px" viewBox="440 390.1 1205 560"
	 style="enable-background:new 440 390.1 1205 560;" xml:space="preserve">
<style type="text/css">
	.st0{fill:#FFFFFF;}
	.st1{fill:#B2B2B2;}
	.st2{fill:#C5C5C5;}
	.st3{fill:#D2D2D2;}
	.st4{fill:#E7E7E7;}
</style>
<defs>
	
	
		<inkscape:perspective  inkscape:persp3d-origin="372.04724 : 350.78739 : 1" inkscape:vp_x="0 : 526.18109 : 1" inkscape:vp_z="744.09448 : 526.18109 : 1" inkscape:vp_y="0 : 1000 : 0" id="perspective10" sodipodi:type="inkscape:persp3d">
		</inkscape:perspective>
</defs>
<sodipodi:namedview  inkscape:window-maximized="1" inkscape:window-y="24" inkscape:window-x="0" inkscape:window-height="949" inkscape:window-width="1280" inkscape:snap-to-guides="false" inkscape:snap-grids="false" inkscape:snap-page="false" inkscape:guide-bbox="true" inkscape:current-layer="layer1" inkscape:document-units="px" inkscape:pageshadow="2" inkscape:pageopacity="0.0" bordercolor="#666666" showgrid="false" inkscape:cy="41.207994" borderopacity="1.0" inkscape:cx="444.73611" id="base" pagecolor="#ffffff" inkscape:zoom="0.5" showguides="true">
	<sodipodi:guide  orientation="0,1" position="886,-123.71629" id="guide3641"></sodipodi:guide>
</sodipodi:namedview>
<rect id="rect7833" x="440" y="390.1" class="st0" width="1205" height="431.8"/>
<path id="path7800" sodipodi:nodetypes="cccc" class="st1" d="M1645,633.9c-77-39.3-772.1-153.1-1003.1,162.8L1645,876.8V633.9z"/>
<path id="path7790" sodipodi:nodetypes="cccc" class="st2" d="M440,630.5c400.7-43.7,759.5,18.4,1039.7,168.5L440,849.4V630.5z"/>
<path id="path7772" class="st3" d="M1295.8,661.7c3.2,6,8,16.4,12.4,27c-0.6,0-1.1,0-1.7,0.1c-5.6-5.7-13.3-10.6-24.3-12.7
	c6.8,2,12.7,7,17.6,12.9c-44.7,1.8-87.5,5.9-128.7,12.5c2.4-4.9,5.4-9.2,9.1-12.1c-5.6,3.4-9.9,7.6-13.1,12c-0.2-9.5-1-18-2.8-21.5
	c0,5.4-0.4,13.9-1.1,23c-1.2,0.2-2.5,0.4-3.7,0.6c-2.5-5.2-6.6-10.2-13.1-14.1c4.4,3.4,7,8.9,8.6,14.9c-15.7,2.8-31.1,6-46.3,9.7
	c0-5.1,0.8-9.9,2.8-13.7c-3.4,4.7-5.3,9.6-6.3,14.5c-0.2,0-0.4,0.1-0.5,0.1c-4.5-8.4-8.9-15.6-12.2-18.2c2.3,4.5,5.4,11.5,8.6,19.1
	c-1.9,0.5-3.8,1-5.7,1.4c-4.1-2.7-9-4.9-15-6c4.1,1.3,7.8,3.8,11.2,7c-137.8,36.1-256.8,107.8-364.9,232H1645V707.6
	c-33.3-4-65.8-7.4-97.5-10.3c1.3-7.9,4.2-15.5,9.7-19.9c-8.6,5.2-13,12.3-15.1,19.4c-0.4,0-0.8-0.1-1.2-0.1
	c-1-11.1-1.6-22.2-1.5-28.8c-1.9,3.6-2.6,12-2.8,21.5c-3.2-4.5-7.5-8.6-13.1-12c5.3,4.1,9.2,11.2,11.8,18.7
	c-14.4-1.2-28.6-2.4-42.6-3.3c1.3-7.7,4.2-15,9.6-19.3c-8.4,5.1-12.8,11.9-15,18.9c-0.5,0-0.9-0.1-1.4-0.1
	c-0.9-10.9-1.6-21.8-1.5-28.3c-1.9,3.6-2.6,12-2.8,21.5c-3.2-4.5-7.5-8.6-13.1-12c5.2,4.1,9,11,11.7,18.4
	c-38.4-2.5-75.5-3.9-111.6-4.1c2.5-5.8,5.8-10.9,10-14.2c-5.6,3.4-9.9,7.6-13.1,12c-0.2-9.5-0.9-18-2.8-21.5
	c0,5.5-0.4,14.4-1.1,23.7c-1.2,0-2.4,0-3.6,0c-2.5-5.3-6.6-10.2-13.2-14.2c4.2,3.3,6.8,8.5,8.4,14.2c-13.2,0-26.3,0.2-39.1,0.6
	c-1.3-8.4-1-16.9,2.6-22.8c-4.1,4.9-6.4,10.1-7.5,15.2C1304.4,672,1299.5,664.4,1295.8,661.7L1295.8,661.7z"/>
<path id="rect7769" sodipodi:nodetypes="cccc" class="st4" d="M440,754.5c480.8-39,812.5-18.4,1085.5,195.5H440V754.5z"/>
</svg>
