<?xml version="1.0" encoding="utf-8"?>
<!-- Generator: Adobe Illustrator 19.1.0, SVG Export Plug-In . SVG Version: 6.00 Build 0)  -->
<svg version="1.1"
	 id="svg2" xmlns:dc="http://purl.org/dc/elements/1.1/" xmlns:rdf="http://www.w3.org/1999/02/22-rdf-syntax-ns#" xmlns:svg="http://www.w3.org/2000/svg" 
	 xmlns="http://www.w3.org/2000/svg" xmlns:xlink="http://www.w3.org/1999/xlink" x="0px" y="0px"
	 viewBox="440 -220.2 1205 560" xml:space="preserve"
     width="1205px" height="560px">
  <style type="text/css">
	.st0{fill:#FFFFFF;}
	.st1{fill:#B2B2B2;}
	.st2{fill:#C5C5C5;}
	.st3{fill:#D2D2D2;}
	.st4{fill:#E7E7E7;}
  </style>

  <rect id="rect1" x="440" y="-220.2" class="st0" width="1205" height="560"/>
  <path id="path1" class="st1" d="M1492.4,61.6c-67.2-34.3-674.3-133.7-876,142.2l876,70V61.6z"/>
  <path id="path2" class="st2" d="M440,58.7c349.9-38.1,663.3,16.1,908,147.1l-908,44V58.7z"/>
  <path id="path3" class="st3" d="M1187.4,85.9c2.8,6.2,7,17.1,10.8,28c-0.5,0-1,0-1.5,0.1c-4.9-5.9-11.7-11-21.2-13.2
	                              c6,2.1,11.1,7.3,15.4,13.4c-39,1.9-76.4,6.1-112.4,13c2.1-5.1,4.7-9.6,7.9-12.6c-4.9,3.5-8.6,7.9-11.4,12.5
	                              c-0.2-9.9-0.8-18.7-2.5-22.4c0,5.6-0.3,14.5-0.9,23.9c-1.1,0.2-2.1,0.4-3.2,0.7c-2.2-5.5-5.8-10.6-11.4-14.7
	                              c3.8,3.6,6.2,9.2,7.5,15.5c-13.7,2.9-27.2,6.3-40.5,10.1c0-5.3,0.7-10.3,2.4-14.2c-3,4.9-4.7,10-5.5,15.1c-0.2,0-0.3,0.1-0.5,0.1
	                              c-3.9-8.8-7.8-16.3-10.7-19c2,4.7,4.7,12,7.5,19.9c-1.7,0.5-3.3,1-5,1.5c-3.6-2.8-7.9-5.1-13.1-6.2c3.6,1.3,6.8,3.9,9.8,7.3
	                              c-120.3,37.6-224.3,112.1-318.7,241.2h802V133.6c-29.1-4.1-57.5-7.7-85.1-10.7c1.1-8.2,3.6-16.1,8.5-20.7
	                              c-7.5,5.4-11.4,12.7-13.2,20.2c-0.4,0-0.7-0.1-1.1-0.1c-0.8-11.5-1.4-23.1-1.3-29.9c-1.6,3.7-2.3,12.5-2.4,22.4
	                              c-2.8-4.6-6.5-9-11.4-12.5c4.6,4.3,8,11.7,10.3,19.5c-12.5-1.3-24.9-2.4-37.2-3.5c1.2-8,3.7-15.6,8.4-20
	                              c-7.4,5.3-11.2,12.4-13.1,19.6c-0.4,0-0.8-0.1-1.2-0.1c-0.8-11.4-1.4-22.7-1.3-29.4c-1.6,3.7-2.3,12.5-2.4,22.4
	                              c-2.8-4.6-6.5-9-11.4-12.5c4.5,4.2,7.9,11.4,10.2,19.1c-33.5-2.6-66-4.1-97.4-4.3c2.2-6,5.1-11.4,8.8-14.8
	                              c-4.9,3.5-8.6,7.9-11.4,12.5c-0.2-9.9-0.8-18.7-2.4-22.4c0,5.7-0.4,15-1,24.6c-1,0-2.1,0-3.1,0c-2.2-5.5-5.8-10.7-11.5-14.8
	                              c3.7,3.4,6,8.8,7.4,14.8c-11.5,0-22.9,0.2-34.2,0.6c-1.1-8.7-0.9-17.6,2.3-23.8c-3.6,5.1-5.6,10.5-6.5,15.8
	                              C1194.9,96.6,1190.6,88.7,1187.4,85.9L1187.4,85.9z"/>
  <path id="rect2" class="st4" d="M440,170.6c419.9-42.9,709.6-20.2,948,215.2H440V170.6z"/>
</svg>
