<svg xmlns="http://www.w3.org/2000/svg" xmlns:xlink="http://www.w3.org/1999/xlink" preserveAspectRatio="xMidYMid" width="62" height="62" viewBox="0 0 62 62">
  <defs>
    <style>

      .cls-3 {
        stroke: #0000ff;
        stroke-width: 2px;
        fill: none;
      }

      .cls-4 {
        fill: #212121;
        filter: url(#color-overlay-1);
      }
    </style>

    <filter id="color-overlay-1" filterUnits="userSpaceOnUse">
      <feFlood flood-color="#0000ff" flood-opacity="1"/>
      <feComposite operator="in" in2="SourceGraphic"/>
      <feBlend mode="normal" in2="SourceGraphic" result="colorOverlay"/>
    </filter>
  </defs>
  <g id="concepticonsvg">
    <circle id="circle-1" class="cls-3" cx="31" cy="31" r="30"/>
    <path d="M45.491,25.434 C44.698,27.566 43.891,29.009 41.675,30.977 C40.102,32.374 36.307,34.141 33.764,35.561 C32.831,36.082 31.840,36.617 31.281,36.964 C31.281,36.964 31.281,42.752 31.281,42.752 C31.281,43.080 31.137,43.391 30.888,43.604 C30.888,43.604 26.728,47.737 26.728,47.737 C26.521,47.915 26.261,48.008 25.997,48.008 C25.880,48.008 25.763,47.990 25.650,47.953 C25.277,47.832 24.994,47.525 24.905,47.145 C24.905,47.145 23.538,41.371 23.538,41.371 C23.538,41.371 21.000,38.560 21.000,38.560 C19.783,37.210 19.023,36.368 18.566,35.805 C18.566,35.805 11.867,34.275 11.867,34.275 C11.480,34.187 11.169,33.901 11.048,33.523 C10.927,33.147 11.014,32.733 11.277,32.437 C11.277,32.437 15.393,27.980 15.393,27.980 C15.606,27.740 15.912,27.602 16.233,27.602 C16.233,27.602 22.479,27.602 22.479,27.602 C22.868,26.905 23.326,25.991 23.805,25.036 C25.046,22.562 26.452,19.582 27.867,17.934 C29.564,15.957 31.382,14.652 33.590,13.828 C39.635,11.572 45.919,12.030 45.919,12.030 C46.479,12.072 46.923,12.520 46.957,13.080 C46.976,13.375 47.377,20.363 45.491,25.434 ZM44.750,14.234 C42.795,14.220 38.519,14.382 34.375,15.929 C32.513,16.624 31.031,17.693 29.572,19.394 C28.337,20.834 26.937,23.799 25.813,26.041 C25.149,27.365 24.576,28.508 24.082,29.311 C23.878,29.643 23.515,29.846 23.125,29.846 C23.125,29.846 16.738,29.846 16.738,29.846 C16.738,29.846 14.215,32.510 14.215,32.510 C14.215,32.510 19.359,33.686 19.359,33.686 C19.602,33.741 19.819,33.876 19.975,34.065 C20.214,34.340 23.333,37.796 25.398,40.082 C25.525,40.222 25.614,40.392 25.657,40.574 C25.657,40.574 26.666,44.837 26.666,44.837 C26.666,44.837 29.035,42.236 29.035,42.236 C29.035,42.236 29.035,36.374 29.035,36.374 C29.035,36.036 29.187,35.718 29.448,35.505 C29.902,35.134 30.939,34.569 32.669,33.604 C34.987,32.309 38.793,30.535 40.184,29.300 C42.068,27.627 42.694,26.514 43.386,24.653 C44.708,21.098 44.786,16.302 44.750,14.234 ZM35.770,27.664 C33.288,27.664 31.267,25.646 31.267,23.165 C31.267,20.684 33.288,18.666 35.770,18.666 C38.253,18.666 40.274,20.684 40.274,23.165 C40.274,25.646 38.253,27.664 35.770,27.664 ZM35.770,20.919 C34.531,20.919 33.522,21.926 33.522,23.165 C33.522,24.403 34.531,25.411 35.770,25.411 C37.010,25.411 38.018,24.403 38.018,23.165 C38.018,21.926 37.010,20.919 35.770,20.919 ZM14.594,38.680 C15.169,38.395 15.762,38.134 16.408,37.639 C16.408,37.639 17.775,39.383 17.775,39.383 C16.958,40.010 16.203,40.386 15.596,40.689 C14.151,41.408 13.429,41.814 13.316,45.599 C17.242,45.457 17.687,44.480 18.393,43.014 C18.668,42.444 18.980,41.797 19.479,41.117 C19.479,41.117 21.145,42.628 21.145,42.628 C20.733,43.311 20.597,43.654 20.353,44.161 C19.238,46.474 18.125,47.817 12.174,47.817 C12.174,47.817 11.070,47.842 11.070,47.842 C11.070,47.842 11.051,46.696 11.051,46.696 C11.051,41.062 12.186,39.880 14.594,38.680 Z" id="path-1" class="cls-4" fill-rule="evenodd"/>
  </g>
</svg>
