<?xml version="1.0" encoding="utf-8"?>
<!DOCTYPE svg PUBLIC "-//W3C//DTD SVG 1.1//EN" "http://www.w3.org/Graphics/SVG/1.1/DTD/svg11.dtd">
<svg version="1.1" id="Layer_1" xmlns="http://www.w3.org/2000/svg" xmlns:xlink="http://www.w3.org/1999/xlink" x="0px" y="0px" width="186" height="70"
     viewBox="0 0 86.5 31.5" enable-background="new 0 0 86.5 31.5" xml:space="preserve">
  <g fill="#0000ff" id="tekst">
    <path d="M45.3,14.2l-5.1-7.1h0v7.1h-0.9V5.7h0.9l5.1,7.1V5.7h0.9v8.5H45.3z"/>
    <path d="M50.6,14.4c-1.7,0-3-1.3-3-3s1.3-3,3-3s3,1.3,3,3S52.3,14.4,50.6,14.4z M50.6,9.1c-1.3,0-2.1,1.1-2.1,2.3
		     s0.8,2.3,2.1,2.3c1.4,0,2.1-1.1,2.1-2.3S51.9,9.1,50.6,9.1z"/>
    <path d="M57.5,8.3c0.1,0,0.3,0,0.4,0v0.8c-0.1,0-0.3,0-0.4,0c-1.2,0-1.7,1-1.7,2.1v3h-0.9V8.5h0.8v1.1h0
		     C56,8.8,56.7,8.3,57.5,8.3z"/>
    <path d="M61.5,14.2c-1.4,0-1.8-0.5-1.8-2v-3h-1V8.5h1V6.9h0.9v1.6h1.5v0.7h-1.5v3.2c0,1,0.5,1.1,1.1,1.1h0.5v0.7
		     H61.5z"/>
    <path d="M64.6,9.6c0.3-0.7,1.1-1.3,2-1.3c1.6,0,2.2,1.2,2.2,2.6v3.3H68V11C68,10,67.6,9,66.5,9
		     c-1.1,0-1.9,0.9-1.9,2.3v2.9h-0.9V5.1h0.9L64.6,9.6L64.6,9.6z"/>
    <path d="M70.9,11.6c0.1,1.2,0.8,2.1,2.1,2.1c0.9,0,1.5-0.5,1.9-0.9l0.6,0.5c-0.5,0.7-1.4,1.2-2.6,1.2
		     c-1.6,0-2.9-1.2-2.9-2.9c0-1.7,1.2-3.1,2.9-3.1c1.8,0,2.7,1.5,2.7,2.8c0,0.2,0,0.3,0,0.5H70.9z M72.9,9.1c-1.2,0-1.9,1-2,1.9h3.9
		     C74.8,9.9,74,9.1,72.9,9.1z"/>
    <path d="M79.7,8.3c0.1,0,0.3,0,0.4,0v0.8c-0.1,0-0.3,0-0.4,0c-1.2,0-1.7,1-1.7,2.1v3h-0.9V8.5h0.8v1.1h0
		     C78.2,8.8,78.9,8.3,79.7,8.3z"/>
    <path d="M84.3,8.3c1.6,0,2.2,1.2,2.2,2.7v3.2h-0.9v-3.3c0-0.9-0.4-1.9-1.5-1.9c-1.1,0-1.9,0.9-1.9,2.3v2.9h-0.9V8.5
		     h0.9v1.1h0C82.5,8.9,83.3,8.3,84.3,8.3z"/>
    <path d="M42.5,26.3h-3.1v-8.5h3.1c1.3,0,2.7,0.5,2.7,2.1c0,1-0.7,1.7-1.6,1.9v0c1,0.1,2,0.8,2,2.1
		     C45.6,25.6,44.1,26.3,42.5,26.3z M42.2,18.5h-1.9v2.9h2.1c1,0,1.9-0.4,1.9-1.5C44.3,18.9,43.4,18.5,42.2,18.5z M42.5,22.2h-2.2v3.3
		     h2.1c1.2,0,2.3-0.4,2.3-1.6C44.6,22.7,43.7,22.2,42.5,22.2z"/>
    <path d="M47.5,23.6c0.1,1.2,0.8,2.1,2.1,2.1c0.9,0,1.5-0.5,1.9-0.9l0.6,0.5c-0.5,0.7-1.4,1.2-2.6,1.2
		     c-1.6,0-2.9-1.2-2.9-2.9c0-1.7,1.2-3.1,2.9-3.1c1.8,0,2.7,1.5,2.7,2.8c0,0.2,0,0.3,0,0.5H47.5z M49.5,21.1c-1.2,0-1.9,1-2,1.9h3.9
		     C51.4,22,50.6,21.1,49.5,21.1z"/>
    <path d="M57.1,26.3v-0.9h0c-0.4,0.7-1.1,1.1-1.9,1.1c-1.1,0-2-0.5-2-1.7c0-1.1,0.7-1.9,2.4-1.9
		     c0.5,0,1.1,0.1,1.5,0.2v-0.4c0-1-0.5-1.4-1.5-1.4c-0.7,0-1.3,0.3-1.7,0.7l-0.5-0.6c0.6-0.5,1.2-0.8,2.2-0.8c1.6,0,2.4,0.6,2.4,2.3
		     v3.6H57.1z M57.1,23.7c-0.5-0.1-1.1-0.2-1.6-0.2c-1,0-1.5,0.5-1.5,1.2c0,0.7,0.6,1,1.3,1c1.1,0,1.8-0.7,1.8-1.7V23.7z"/>
    <path d="M61.7,26.3c-1.4,0-1.8-0.5-1.8-2v-3h-1v-0.7h1V19h0.9v1.6h1.5v0.7h-1.5v3.2c0,1,0.5,1.1,1.1,1.1h0.5v0.7
		     H61.7z"/>
  </g>
  <g fill="#0000ff" id="sirkel">
    <path d="M10.9,3.5L9.9,1.1c-0.3,0.1-0.7,0.3-1,0.4L10,3.8C10.3,3.7,10.6,3.6,10.9,3.5z"/>
    <path d="M9.2,4.3L7.9,2.1C7.6,2.3,7.3,2.4,7,2.7l1.4,2.1C8.7,4.6,8.9,4.4,9.2,4.3z"/>
    <path d="M12.6,2.9L12,0.4c-0.4,0.1-0.7,0.2-1.1,0.3l0.8,2.4C12,3.1,12.3,3,12.6,2.9z"/>
    <path d="M14.5,2.6l-0.2-2.5c-0.4,0-0.7,0.1-1.1,0.1l0.4,2.5C13.9,2.7,14.2,2.6,14.5,2.6z"/>
    <path d="M7.7,5.3l-1.6-2C5.8,3.5,5.5,3.8,5.3,4L7,5.9C7.2,5.7,7.4,5.5,7.7,5.3z"/>
    <path d="M2.8,13l-2.5-0.5c-0.1,0.4-0.1,0.7-0.2,1.1l2.5,0.4C2.7,13.6,2.8,13.3,2.8,13z"/>
    <path d="M4.1,9.5L1.9,8.3C1.7,8.6,1.5,9,1.4,9.3l2.3,1C3.8,10.1,4,9.8,4.1,9.5z"/>
    <path d="M6.3,6.5L4.5,4.8C4.2,5,4,5.3,3.7,5.6l1.9,1.6C5.9,7,6.1,6.8,6.3,6.5z"/>
    <path d="M3.3,11.2L1,10.3c-0.1,0.3-0.2,0.7-0.3,1.1l2.4,0.7C3.1,11.8,3.2,11.5,3.3,11.2z"/>
    <path d="M5.1,8L3,6.5C2.8,6.8,2.6,7.1,2.4,7.4l2.2,1.4C4.7,8.5,4.9,8.2,5.1,8z"/>
    <path d="M15.8,0c-0.1,0-0.3,0-0.4,0l0.1,2.5c0.1,0,0.2,0,0.4,0C23,2.5,29,8.5,29,15.8C29,23,23,29,15.8,29
		     S2.5,23,2.5,15.8c0-0.3,0-0.6,0-0.9L0,14.7c0,0.4,0,0.7,0,1.1c0,8.7,7.1,15.8,15.8,15.8c8.7,0,15.8-7.1,15.8-15.8
		     C31.5,7.1,24.4,0,15.8,0"/>
  </g>
</svg>
