<svg xmlns="http://www.w3.org/2000/svg" xmlns:xlink="http://www.w3.org/1999/xlink" preserveAspectRatio="xMidYMid" width="31" height="27" viewBox="0 0 31 27">
  <defs>
  </defs>
  <g id="hamburger">
    <path d="M29.500,1.500 C29.500,1.500 29.500,3.500 29.500,3.500 C29.500,3.500 1.500,3.500 1.500,3.500 C1.500,3.500 1.500,1.500 1.500,1.500 C1.500,1.500 29.500,1.500 29.500,1.500 Z" id="path-1" class="cls-3" fill-rule="evenodd"/>
    <path d="M29.500,12.500 C29.500,12.500 29.500,14.500 29.500,14.500 C29.500,14.500 1.500,14.500 1.500,14.500 C1.500,14.500 1.500,12.500 1.500,12.500 C1.500,12.500 29.500,12.500 29.500,12.500 Z" id="path-2" class="cls-3" fill-rule="evenodd"/>
    <path d="M29.500,23.500 C29.500,23.500 29.500,25.500 29.500,25.500 C29.500,25.500 1.500,25.500 1.500,25.500 C1.500,25.500 1.500,23.500 1.500,23.500 C1.500,23.500 29.500,23.500 29.500,23.500 Z" id="path-3" class="cls-3" fill-rule="evenodd"/>
  </g>
</svg>
