<?xml version="1.0" encoding="utf-8"?>
<!-- Generator: Adobe Illustrator 19.1.0, SVG Export Plug-In . SVG Version: 6.00 Build 0)  -->
<svg version="1.1" id="Layer_1" xmlns="http://www.w3.org/2000/svg" xmlns:xlink="http://www.w3.org/1999/xlink" x="0px" y="0px"
	 viewBox="0 0 170.1 170.1" style="enable-background:new 0 0 170.1 170.1;" xml:space="preserve">
<path style="fill:#FFFFFF;" d="M87.4,159.2c-18.9,0-37.8-7.2-52.2-21.6c-13.9-13.9-21.6-32.5-21.6-52.2s7.7-38.2,21.6-52.2
	l14.1,14.1c-10.2,10.2-15.8,23.7-15.8,38s5.6,27.9,15.8,38c21,21,55.1,21,76.1,0l14.1,14.1C125.2,152,106.3,159.2,87.4,159.2z"/>
<path style="fill:#FFFFFF;" d="M136,134.1l-7.1-7.1c11.1-11.1,17.2-25.9,17.2-41.6S140,55,128.9,43.9C106,21,68.7,21,45.8,43.9
	l-7.1-7.1C65.5,10,109.2,10,136,36.8c13,13,20.1,30.3,20.1,48.6S149,121.1,136,134.1z"/>
</svg>
