<svg xmlns="http://www.w3.org/2000/svg" xmlns:xlink="http://www.w3.org/1999/xlink" preserveAspectRatio="xMidYMid" width="62" height="62" viewBox="0 0 62 62">
  <defs>
    <style>

      .cls-3 {
        stroke: #0000ff;
        stroke-width: 2px;
        fill: none;
      }

      .cls-4 {
        fill: #212121;
        filter: url(#color-overlay-1);
      }
    </style>

    <filter id="color-overlay-1" filterUnits="userSpaceOnUse">
      <feFlood flood-color="#0000ff" flood-opacity="1"/>
      <feComposite operator="in" in2="SourceGraphic"/>
      <feBlend mode="normal" in2="SourceGraphic" result="colorOverlay"/>
    </filter>
  </defs>
  <g id="usertestingiconsvg">
    <circle id="circle-1" class="cls-3" cx="31" cy="31" r="30"/>
    <path d="M29.503,14.057 C33.007,14.057 36.723,17.010 36.723,19.213 C36.723,19.213 36.723,24.372 36.723,24.372 C36.723,26.358 35.898,30.157 33.684,31.900 C33.120,32.345 32.827,33.052 32.911,33.766 C32.996,34.480 33.446,35.098 34.099,35.399 C34.099,35.399 43.079,39.659 43.079,39.659 C43.149,39.691 43.939,39.824 43.939,40.928 C43.939,40.928 43.940,42.943 43.940,42.943 C43.940,42.943 15.067,42.944 15.067,42.944 C15.067,42.944 15.067,40.849 15.067,40.849 C15.067,40.029 15.683,39.771 15.929,39.658 C15.929,39.658 24.990,35.379 24.990,35.379 C25.640,35.081 26.088,34.466 26.175,33.757 C26.263,33.047 25.977,32.342 25.419,31.894 C23.276,30.173 22.277,26.388 22.277,24.372 C22.277,24.372 22.277,19.213 22.277,19.213 C22.277,17.057 26.030,14.057 29.503,14.057 M29.503,11.992 C24.947,11.992 20.214,15.797 20.214,19.213 C20.214,19.213 20.214,24.372 20.214,24.372 C20.214,26.627 21.242,31.187 24.127,33.504 C24.127,33.504 15.066,37.783 15.066,37.783 C15.066,37.783 13.004,38.702 13.004,39.846 C13.004,39.846 13.004,42.944 13.004,42.944 C13.004,44.084 13.927,45.008 15.066,45.008 C15.066,45.008 43.940,45.008 43.940,45.008 C45.080,45.008 46.003,44.084 46.003,42.944 C46.003,42.944 46.003,39.846 46.003,39.846 C46.003,38.633 43.940,37.783 43.940,37.783 C43.940,37.783 34.961,33.523 34.961,33.523 C37.819,31.272 38.787,26.850 38.787,24.372 C38.787,24.372 38.787,19.213 38.787,19.213 C38.787,15.797 34.059,11.992 29.503,11.992 C29.503,11.992 29.503,11.992 29.503,11.992 Z" id="path-1" class="cls-4" fill-rule="evenodd"/>
  </g>
</svg>
