<?xml version="1.0" standalone="no"?>
<!DOCTYPE svg PUBLIC "-//W3C//DTD SVG 1.1//EN" "http://www.w3.org/Graphics/SVG/1.1/DTD/svg11.dtd" >
<svg>
<metadata>
Created by FontForge 20120731 at Wed Sep 16 11:11:20 2015
 By www-data
Copyright (c) 2013 by Jonas Hecksher, PlaytypeTM, e-Types AS. All rights reserved.
</metadata>
<defs>
<font id="Nationale-Medium" horiz-adv-x="595" >
  <font-face 
    font-family="Nationale Medium"
    font-weight="500"
    font-stretch="normal"
    units-per-em="1000"
    panose-1="2 0 6 5 4 0 0 2 0 3"
    ascent="800"
    descent="-200"
    x-height="474"
    cap-height="708"
    bbox="-210 -242 1206 985"
    underline-thickness="50"
    underline-position="-50"
    stemh="79"
    stemv="99"
    unicode-range="U+0020-FB04"
  />
<missing-glyph horiz-adv-x="512" 
d="M171 491h-50v-81h-38v222h89c57 0 80 -27 80 -66c0 -45 -28 -75 -81 -75zM121 599v-73h48c33 0 47 14 47 38c0 21 -12 35 -47 35h-48zM369 599v-189h-38v189h-70v33h176v-33h-68zM50 50h412v617h-412v-617zM0 718h512v-718h-512v718z" />
    <glyph glyph-name="f_f" unicode="ff" horiz-adv-x="620" 
d="M6 397v77h94v120c0 147 91 174 163 174h73v-81h-57c-63 0 -85 -12 -85 -107v-106h110v-77h-110v-397h-94v397h-94zM316 397v77h94v120c0 147 91 174 163 174h73v-81h-57c-63 0 -85 -12 -85 -107v-106h110v-77h-110v-397h-94v397h-94z" />
    <glyph glyph-name="f_i" unicode="fi" horiz-adv-x="568" 
d="M6 397v77h94v120c0 147 91 174 163 174h73v-81h-57c-63 0 -85 -12 -85 -107v-106h110v-77h-110v-397h-94v397h-94zM392 0v474h94v-474h-94zM378 661c0 35 26 63 61 63c36 0 63 -28 63 -63s-27 -61 -63 -61c-35 0 -61 26 -61 61z" />
    <glyph glyph-name="f_l" unicode="fl" horiz-adv-x="570" 
d="M6 397v77h94v120c0 147 91 174 163 174h73v-81h-57c-63 0 -85 -12 -85 -107v-106h110v-77h-110v-397h-94v397h-94zM487 756v-756h-94v756h94z" />
    <glyph glyph-name="f_f_i" unicode="ffi" horiz-adv-x="878" 
d="M6 397v77h94v120c0 147 91 174 163 174h73v-81h-57c-63 0 -85 -12 -85 -107v-106h110v-77h-110v-397h-94v397h-94zM316 397v77h94v120c0 147 91 174 163 174h73v-81h-57c-63 0 -85 -12 -85 -107v-106h110v-77h-110v-397h-94v397h-94zM702 0v474h94v-474h-94zM688 661
c0 35 26 63 61 63c36 0 63 -28 63 -63s-27 -61 -63 -61c-35 0 -61 26 -61 61z" />
    <glyph glyph-name="f_f_l" unicode="ffl" horiz-adv-x="880" 
d="M6 397v77h94v120c0 147 91 174 163 174h73v-81h-57c-63 0 -85 -12 -85 -107v-106h110v-77h-110v-397h-94v397h-94zM316 397v77h94v120c0 147 91 174 163 174h73v-81h-57c-63 0 -85 -12 -85 -107v-106h110v-77h-110v-397h-94v397h-94zM797 756v-756h-94v756h94z" />
    <glyph glyph-name="f_b" unicode="fb" horiz-adv-x="946" 
d="M6 397v77h94v120c0 147 91 174 163 174h73v-81h-57c-63 0 -85 -12 -85 -107v-106h110v-77h-110v-397h-94v397h-94zM486 75h-2v-75h-91v756h94v-353h3c32 46 91 84 169 84c141 0 237 -109 237 -249c0 -139 -93 -251 -239 -251c-67 0 -134 31 -171 88zM799 238
c0 89 -55 171 -158 171c-96 0 -160 -81 -160 -172s64 -171 160 -171c103 0 158 83 158 172z" />
    <glyph glyph-name="f_h" unicode="fh" horiz-adv-x="924" 
d="M6 397v77h94v120c0 147 91 174 163 174h73v-81h-57c-63 0 -85 -12 -85 -107v-106h110v-77h-110v-397h-94v397h-94zM843 263v-263h-94v262c0 77 -30 149 -118 149c-87 0 -146 -72 -146 -171v-240h-94v756h94v-360h4c22 45 83 91 164 91c137 0 190 -101 190 -224z" />
    <glyph glyph-name="f_k" unicode="fk" horiz-adv-x="837" 
d="M6 397v77h94v120c0 147 91 174 163 174h73v-81h-57c-63 0 -85 -12 -85 -107v-106h110v-77h-110v-397h-94v397h-94zM714 0l-147 241l-80 -77v-164h-94v756h94v-488h3l199 206h126l-180 -174l199 -300h-120z" />
    <glyph glyph-name="f_j" unicode="fj" horiz-adv-x="568" 
d="M6 397v77h94v120c0 147 91 174 163 174h73v-81h-57c-63 0 -85 -12 -85 -107v-106h110v-77h-110v-397h-94v397h-94zM486 474v-552c0 -147 -100 -162 -172 -162h-30v78h14c61 0 95 8 95 103v533h93zM378 661c0 35 26 63 61 63c36 0 63 -28 63 -63s-27 -61 -63 -61
c-35 0 -61 26 -61 61z" />
    <glyph glyph-name="f_f_b" unicode="ffb" horiz-adv-x="1256" 
d="M6 397v77h94v120c0 147 91 174 163 174h73v-81h-57c-63 0 -85 -12 -85 -107v-106h110v-77h-110v-397h-94v397h-94zM316 397v77h94v120c0 147 91 174 163 174h73v-81h-57c-63 0 -85 -12 -85 -107v-106h110v-77h-110v-397h-94v397h-94zM796 75h-2v-75h-91v756h94v-353h3
c32 46 91 84 169 84c141 0 237 -109 237 -249c0 -139 -93 -251 -239 -251c-67 0 -134 31 -171 88zM1109 238c0 89 -55 171 -158 171c-96 0 -160 -81 -160 -172s64 -171 160 -171c103 0 158 83 158 172z" />
    <glyph glyph-name="f_f_h" unicode="ffh" horiz-adv-x="1234" 
d="M6 397v77h94v120c0 147 91 174 163 174h73v-81h-57c-63 0 -85 -12 -85 -107v-106h110v-77h-110v-397h-94v397h-94zM316 397v77h94v120c0 147 91 174 163 174h73v-81h-57c-63 0 -85 -12 -85 -107v-106h110v-77h-110v-397h-94v397h-94zM1153 263v-263h-94v262
c0 77 -30 149 -118 149c-87 0 -146 -72 -146 -171v-240h-94v756h94v-360h4c22 45 83 91 164 91c137 0 190 -101 190 -224z" />
    <glyph glyph-name="f_f_j" unicode="ffj" horiz-adv-x="878" 
d="M6 397v77h94v120c0 147 91 174 163 174h73v-81h-57c-63 0 -85 -12 -85 -107v-106h110v-77h-110v-397h-94v397h-94zM316 397v77h94v120c0 147 91 174 163 174h73v-81h-57c-63 0 -85 -12 -85 -107v-106h110v-77h-110v-397h-94v397h-94zM796 474v-552
c0 -147 -100 -162 -172 -162h-30v78h14c61 0 95 8 95 103v533h93zM688 661c0 35 26 63 61 63c36 0 63 -28 63 -63s-27 -61 -63 -61c-35 0 -61 26 -61 61z" />
    <glyph glyph-name="f_f_k" unicode="ffk" horiz-adv-x="1147" 
d="M6 397v77h94v120c0 147 91 174 163 174h73v-81h-57c-63 0 -85 -12 -85 -107v-106h110v-77h-110v-397h-94v397h-94zM316 397v77h94v120c0 147 91 174 163 174h73v-81h-57c-63 0 -85 -12 -85 -107v-106h110v-77h-110v-397h-94v397h-94zM1024 0l-147 241l-80 -77v-164h-94
v756h94v-488h3l199 206h126l-180 -174l199 -300h-120z" />
    <glyph glyph-name="f_t" unicode="ft" horiz-adv-x="639" 
d="M6 397v77h94v120c0 147 91 174 163 174h73v-81h-57c-63 0 -85 -12 -85 -107v-106h110v-77h-110v-397h-94v397h-94zM623 78v-78h-53c-111 0 -166 26 -166 160v237h-77v77h77v129h93v-129h124v-77h-124v-221c0 -95 44 -98 92 -98h34z" />
    <glyph glyph-name="t_y" unicode="ty" horiz-adv-x="833" 
d="M313 78v-78h-53c-111 0 -166 26 -166 160v237h-77v77h77v129h93v-129h124v-77h-124v-221c0 -95 44 -98 92 -98h34zM443 474l147 -372h2l131 372h100l-230 -586c-31 -79 -71 -128 -164 -128c-20 0 -41 0 -62 2v83c15 -2 41 -3 56 -3c49 0 68 28 88 79l30 79l-203 474h105z
" />
    <glyph glyph-name=".notdef" horiz-adv-x="512" 
d="M171 491h-50v-81h-38v222h89c57 0 80 -27 80 -66c0 -45 -28 -75 -81 -75zM121 599v-73h48c33 0 47 14 47 38c0 21 -12 35 -47 35h-48zM369 599v-189h-38v189h-70v33h176v-33h-68zM50 50h412v617h-412v-617zM0 718h512v-718h-512v718z" />
    <glyph glyph-name=".null" horiz-adv-x="0" 
 />
    <glyph glyph-name="CR" horiz-adv-x="0" 
 />
    <glyph glyph-name="space" unicode=" " horiz-adv-x="250" 
 />
    <glyph glyph-name="exclam" unicode="!" horiz-adv-x="334" 
d="M226 708l-20 -501h-79l-20 501h119zM234 60c0 -35 -29 -66 -67 -66c-37 0 -67 30 -67 65c0 36 29 66 67 66s67 -29 67 -65z" />
    <glyph glyph-name="quotedbl" unicode="&#x22;" horiz-adv-x="423" 
d="M90 458v250h82v-250h-82zM251 458v250h82v-250h-82z" />
    <glyph glyph-name="numbersign" unicode="#" horiz-adv-x="574" 
d="M107 0l30 211h-96v73h106l19 141h-98v73h109l29 210h75l-30 -210h118l29 210h75l-30 -210h90v-73h-100l-20 -141h93v-73h-102l-30 -211h-75l30 211h-118l-30 -211h-74zM241 425l-20 -141h118l19 141h-117z" />
    <glyph glyph-name="dollar" unicode="$" 
d="M264 69v254c-104 30 -201 77 -201 202c0 117 95 188 201 194v70h51v-69c69 -1 147 -26 197 -76l-68 -63c-31 39 -82 59 -129 60v-238c102 -34 208 -81 208 -213c0 -126 -95 -199 -208 -201v-72h-51v72c-89 2 -168 38 -223 99l73 62c36 -51 103 -80 150 -81zM315 309v-240
c58 3 112 41 112 120c0 63 -48 99 -112 120zM264 418v223c-58 -4 -106 -44 -106 -110c0 -63 44 -95 106 -113z" />
    <glyph glyph-name="percent" unicode="%" horiz-adv-x="870" 
d="M475 165c0 98 79 177 177 177s177 -79 177 -177s-79 -177 -177 -177s-177 79 -177 177zM746 165c0 52 -42 94 -94 94s-94 -42 -94 -94s42 -94 94 -94s94 42 94 94zM41 543c0 98 79 177 177 177s177 -79 177 -177s-79 -177 -177 -177s-177 79 -177 177zM312 543
c0 52 -42 94 -94 94s-94 -42 -94 -94s42 -94 94 -94s94 42 94 94zM686 707l-433 -739l-68 33l434 739z" />
    <glyph glyph-name="ampersand" unicode="&#x26;" horiz-adv-x="723" 
d="M685 378c-40 -95 -83 -168 -125 -223l152 -155h-131l-83 85c-82 -78 -162 -98 -220 -98c-123 0 -230 70 -230 201c0 106 78 168 159 205c-45 47 -81 99 -81 162c0 114 91 171 189 171s183 -57 183 -166c0 -92 -72 -149 -152 -187l150 -153c27 41 54 93 80 158h109z
M280 67c39 0 97 14 159 80l-177 185c-69 -29 -114 -70 -114 -142c0 -75 65 -123 132 -123zM407 558c0 51 -38 90 -91 90c-54 0 -95 -38 -95 -94c0 -45 37 -94 70 -123c59 26 116 65 116 127z" />
    <glyph glyph-name="quotesingle" unicode="'" horiz-adv-x="262" 
d="M90 458v250h82v-250h-82z" />
    <glyph glyph-name="parenleft" unicode="(" horiz-adv-x="315" 
d="M119 288c0 -146 51 -292 129 -401l-68 -44c-88 118 -146 278 -146 445s58 327 146 445l68 -44c-78 -109 -129 -255 -129 -401z" />
    <glyph glyph-name="parenright" unicode=")" horiz-adv-x="315" 
d="M196 288c0 146 -51 292 -129 401l68 44c88 -118 146 -278 146 -445s-58 -327 -146 -445l-68 44c78 109 129 255 129 401z" />
    <glyph glyph-name="asterisk" unicode="*" horiz-adv-x="454" 
d="M262 579l127 41l27 -76l-127 -41l81 -109l-64 -48l-84 113l-84 -113l-64 48l81 109l-127 41l27 76l127 -41v129h80v-129z" />
    <glyph glyph-name="plus" unicode="+" horiz-adv-x="666" 
d="M374 566v-222h222v-82h-222v-222h-82v222h-222v82h222v222h82z" />
    <glyph glyph-name="comma" unicode="," horiz-adv-x="260" 
d="M70 63c0 39 27 62 61 62c28 0 61 -17 61 -66c0 -57 -58 -163 -86 -202l-59 32c18 33 51 97 55 115c-18 13 -32 30 -32 59z" />
    <glyph glyph-name="hyphen" unicode="-" horiz-adv-x="320" 
d="M276 284v-80h-232v80h232z" />
    <glyph glyph-name="period" unicode="." horiz-adv-x="260" 
d="M197 60c0 -35 -29 -66 -67 -66c-37 0 -67 30 -67 65c0 36 29 66 67 66s67 -29 67 -65z" />
    <glyph glyph-name="slash" unicode="/" horiz-adv-x="380" 
d="M376 716l-307 -749l-71 24l307 751z" />
    <glyph glyph-name="zero" unicode="0" 
d="M298 726c168 0 241 -166 241 -372c0 -207 -73 -372 -241 -372c-169 0 -242 165 -242 372c0 206 73 372 242 372zM298 645c-117 0 -143 -172 -143 -291c0 -120 26 -290 143 -290c115 0 142 170 142 290c0 119 -27 291 -142 291z" />
    <glyph glyph-name="one" unicode="1" 
d="M379 708v-708h-97v590l-134 -112l-57 67l201 163h87z" />
    <glyph glyph-name="two" unicode="2" 
d="M522 87v-87h-462v93l282 280c44 43 78 90 78 150c0 74 -56 122 -126 122c-72 0 -121 -52 -133 -123h-97c14 126 110 204 231 204c118 0 224 -69 224 -201c0 -91 -52 -153 -114 -214l-230 -224h347z" />
    <glyph glyph-name="three" unicode="3" 
d="M213 330v80h31c81 0 158 27 158 118c0 71 -58 117 -125 117c-59 0 -103 -33 -124 -87h-101c36 119 129 168 229 168c118 0 218 -67 218 -192c0 -79 -52 -142 -125 -161v-2c83 -17 144 -82 144 -173c0 -141 -116 -216 -237 -216c-117 0 -213 50 -252 186h101
c21 -61 75 -104 149 -104c71 0 142 45 142 135c0 99 -94 131 -178 131h-30z" />
    <glyph glyph-name="four" unicode="4" 
d="M451 708v-466h102v-83h-102v-159h-94v159h-326v88l301 461h119zM357 242v355h-2l-224 -355h226z" />
    <glyph glyph-name="five" unicode="5" 
d="M490 708v-86h-292l-6 -186c26 9 62 13 91 13c136 0 237 -86 237 -223c0 -148 -106 -244 -247 -244c-110 0 -204 56 -239 177h101c22 -57 75 -95 138 -95c83 0 148 61 148 152c0 107 -78 155 -166 155c-30 0 -65 -7 -95 -16l-61 25l9 328h382z" />
    <glyph glyph-name="six" unicode="6" 
d="M421 708l-190 -285l1 -2c20 12 58 19 88 19c124 0 221 -93 221 -222c0 -141 -105 -236 -244 -236c-141 0 -245 99 -245 233c0 77 28 136 69 201l185 292h115zM150 214c0 -83 59 -150 147 -150c87 0 146 63 146 151c0 85 -57 148 -145 148c-89 0 -148 -62 -148 -149z" />
    <glyph glyph-name="seven" unicode="7" 
d="M515 708v-88l-284 -620h-111l295 622h-351v86h451z" />
    <glyph glyph-name="eight" unicode="8" 
d="M401 373c76 -19 134 -89 134 -180c0 -133 -109 -211 -237 -211c-129 0 -238 78 -238 211c0 94 61 160 134 180v2c-63 22 -109 80 -109 158c0 117 96 193 213 193c116 0 212 -73 212 -191c0 -77 -45 -139 -109 -160v-2zM182 530c0 -65 49 -115 116 -115
c64 0 116 50 116 115c0 68 -53 116 -116 116c-67 0 -116 -48 -116 -116zM159 198c0 -80 57 -135 139 -135c80 0 138 55 138 135c0 77 -58 134 -138 134c-81 0 -139 -56 -139 -134z" />
    <glyph glyph-name="nine" unicode="9" 
d="M175 0l190 286l-1 1c-10 -6 -25 -11 -41 -14s-33 -5 -48 -5c-124 0 -221 93 -221 222c0 141 106 236 245 236c140 0 244 -99 244 -233c0 -77 -27 -137 -68 -201l-185 -292h-115zM446 494c0 83 -59 151 -147 151c-87 0 -147 -64 -147 -152c0 -85 58 -148 146 -148
c89 0 148 62 148 149z" />
    <glyph glyph-name="colon" unicode=":" horiz-adv-x="300" 
d="M217 415c0 -36 -29 -66 -67 -66c-37 0 -67 29 -67 65c0 35 29 66 67 66s67 -30 67 -65zM217 60c0 -35 -29 -66 -67 -66c-37 0 -67 30 -67 65c0 36 29 66 67 66s67 -29 67 -65z" />
    <glyph glyph-name="semicolon" unicode=";" horiz-adv-x="300" 
d="M217 415c0 -36 -29 -66 -67 -66c-37 0 -67 29 -67 65c0 35 29 66 67 66s67 -30 67 -65zM70 63c0 39 27 62 61 62c28 0 61 -17 61 -66c0 -57 -58 -163 -86 -202l-59 32c18 33 51 97 55 115c-18 13 -32 30 -32 59z" />
    <glyph glyph-name="less" unicode="&#x3c;" horiz-adv-x="666" 
d="M589 564v-85l-385 -176l383 -176v-85l-508 231v60z" />
    <glyph glyph-name="equal" unicode="=" horiz-adv-x="666" 
d="M70 426h526v-81h-526v81zM70 261h526v-81h-526v81z" />
    <glyph glyph-name="greater" unicode="&#x3e;" horiz-adv-x="666" 
d="M79 479v85l508 -231v-60l-508 -231v85l383 176z" />
    <glyph glyph-name="question" unicode="?" horiz-adv-x="500" 
d="M301 216v-15h-94v28c0 71 27 126 90 185c48 45 71 72 71 119c0 64 -45 104 -109 104c-66 0 -112 -49 -112 -110h-97c0 128 95 196 214 196c111 0 204 -64 204 -184c0 -85 -39 -124 -96 -172c-54 -46 -71 -85 -71 -151zM326 60c0 -35 -29 -66 -67 -66c-37 0 -67 30 -67 65
c0 36 29 66 67 66s67 -29 67 -65z" />
    <glyph glyph-name="at" unicode="@" horiz-adv-x="828" 
d="M401 437c43 0 85 -20 108 -51v40h65v-260c0 -41 20 -61 46 -61c48 0 71 87 71 168c0 138 -117 279 -278 279c-163 0 -280 -141 -280 -309c0 -167 117 -307 280 -307c52 0 116 17 151 37l30 -58c-59 -32 -103 -44 -181 -44c-204 0 -353 168 -353 372
c0 207 149 373 353 373c202 0 351 -166 351 -343c0 -118 -48 -234 -148 -234c-31 0 -77 17 -96 64c-27 -46 -77 -62 -125 -62c-102 0 -168 89 -168 198c0 107 66 198 174 198zM507 239c0 71 -37 133 -105 133s-104 -62 -104 -133c0 -72 36 -133 104 -133
c74 0 105 61 105 133z" />
    <glyph glyph-name="A" unicode="A" horiz-adv-x="711" 
d="M186 174l-71 -174h-110l307 708h90l304 -708h-112l-72 174h-336zM354 593l-133 -332h265z" />
    <glyph glyph-name="B" unicode="B" horiz-adv-x="672" 
d="M86 0v708h274c107 0 222 -44 222 -179c0 -78 -50 -134 -124 -154v-2c91 -11 157 -73 157 -172c0 -136 -118 -201 -266 -201h-263zM185 625v-216h159c76 0 139 33 139 110c0 76 -61 106 -155 106h-143zM185 325v-241h154c84 0 176 26 176 122c0 83 -59 119 -167 119h-163z
" />
    <glyph glyph-name="C" unicode="C" horiz-adv-x="708" 
d="M614 164l79 -54c-55 -75 -146 -128 -270 -128c-217 0 -373 155 -373 373c0 221 162 371 377 371c97 0 202 -38 254 -110l-78 -60c-34 48 -103 83 -176 83c-164 0 -269 -129 -269 -284c0 -159 103 -285 266 -285c79 0 148 33 190 94z" />
    <glyph glyph-name="D" unicode="D" horiz-adv-x="761" 
d="M86 0v708h243c181 0 382 -103 382 -354c0 -242 -201 -354 -382 -354h-243zM185 622v-535h124c171 0 296 98 296 267c0 175 -125 268 -296 268h-124z" />
    <glyph glyph-name="E" unicode="E" horiz-adv-x="621" 
d="M575 0h-489v708h482v-87h-383v-218h312v-85h-312v-230h390v-88z" />
    <glyph glyph-name="F" unicode="F" horiz-adv-x="608" 
d="M568 621h-383v-220h353v-85h-353v-316h-99v708h482v-87z" />
    <glyph glyph-name="G" unicode="G" horiz-adv-x="778" 
d="M689 634l-69 -72c-42 46 -111 77 -192 77c-166 0 -270 -129 -270 -284c0 -158 104 -284 273 -284c66 0 124 13 165 35v197h-157v84h255v-343c-74 -40 -162 -62 -266 -62c-221 0 -378 155 -378 373c0 221 162 371 377 371c112 0 204 -36 262 -92z" />
    <glyph glyph-name="H" unicode="H" horiz-adv-x="752" 
d="M566 0v318h-381v-318h-99v708h99v-302h381v302h100v-708h-100z" />
    <glyph glyph-name="I" unicode="I" horiz-adv-x="271" 
d="M185 708v-708h-99v708h99z" />
    <glyph glyph-name="J" unicode="J" horiz-adv-x="450" 
d="M193 70c46 0 78 38 78 90v548h99v-547c0 -102 -70 -179 -178 -179c-105 0 -171 69 -171 175v35h93v-35c0 -52 31 -87 79 -87z" />
    <glyph glyph-name="K" unicode="K" horiz-adv-x="659" 
d="M651 708l-275 -303l285 -405h-123l-229 332l-124 -134v-198h-99v708h99v-392l340 392h126z" />
    <glyph glyph-name="L" unicode="L" horiz-adv-x="511" 
d="M185 708v-620h316v-88h-415v708h99z" />
    <glyph glyph-name="M" unicode="M" horiz-adv-x="903" 
d="M240 708l212 -544h2l209 544h154v-708h-99v592h-2l-235 -592h-63l-234 592h-2v-592h-96v708h154z" />
    <glyph glyph-name="N" unicode="N" horiz-adv-x="745" 
d="M86 0v708h95l383 -547v547h95v-708h-95l-383 546v-546h-95z" />
    <glyph glyph-name="O" unicode="O" horiz-adv-x="849" 
d="M800 355c0 -218 -160 -373 -376 -373c-215 0 -374 155 -374 373c0 221 159 371 374 371c216 0 376 -150 376 -371zM693 355c0 155 -104 284 -269 284c-163 0 -267 -129 -267 -284c0 -158 105 -284 267 -284c164 0 269 126 269 284z" />
    <glyph glyph-name="P" unicode="P" horiz-adv-x="659" 
d="M351 271h-166v-271h-99v708h267c185 0 253 -89 253 -209c0 -138 -86 -228 -255 -228zM185 621v-265h156c116 0 166 55 166 137c0 76 -42 128 -166 128h-156z" />
    <glyph glyph-name="Q" unicode="Q" horiz-adv-x="849" 
d="M800 355c0 -108 -39 -200 -105 -266l67 -67l-63 -62l-74 74c-57 -33 -126 -52 -201 -52c-215 0 -374 155 -374 373c0 221 159 371 374 371c216 0 376 -150 376 -371zM693 355c0 155 -104 284 -269 284c-163 0 -267 -129 -267 -284c0 -158 105 -284 267 -284
c50 0 94 11 132 32l-80 82l61 61l87 -87c44 51 69 119 69 196z" />
    <glyph glyph-name="R" unicode="R" horiz-adv-x="659" 
d="M507 499c0 79 -49 122 -163 122h-159v-252h159c116 0 163 52 163 130zM86 0v708h273c172 0 247 -88 247 -205c0 -124 -89 -188 -167 -203l198 -300h-122l-182 284h-148v-284h-99z" />
    <glyph glyph-name="S" unicode="S" horiz-adv-x="571" 
d="M477 632l-65 -62c-50 52 -97 69 -146 69c-91 0 -123 -52 -123 -97c0 -154 372 -109 372 -346c0 -119 -108 -214 -247 -214c-140 0 -222 96 -231 107l68 66c49 -55 106 -85 169 -85c87 0 144 55 144 118c0 161 -372 113 -372 343c0 103 84 195 219 195
c79 0 162 -31 212 -94z" />
    <glyph glyph-name="T" unicode="T" horiz-adv-x="569" 
d="M334 621v-621h-99v621h-227v87h553v-87h-227z" />
    <glyph glyph-name="U" unicode="U" horiz-adv-x="712" 
d="M356 -18c-187 0 -275 135 -275 280v446h99v-440c0 -97 44 -197 176 -197s176 100 176 197v440h99v-446c0 -145 -88 -280 -275 -280z" />
    <glyph glyph-name="V" unicode="V" horiz-adv-x="642" 
d="M108 708l213 -580h3l213 580h107l-278 -708h-92l-276 708h110z" />
    <glyph glyph-name="W" unicode="W" horiz-adv-x="988" 
d="M117 708l156 -564h2l166 564h109l165 -564h2l156 564h105l-208 -708h-103l-172 569h-2l-172 -569h-103l-208 708h107z" />
    <glyph glyph-name="X" unicode="X" horiz-adv-x="668" 
d="M164 708l170 -264l168 264h116l-226 -335l257 -373h-125l-194 298l-190 -298h-122l253 375l-228 333h121z" />
    <glyph glyph-name="Y" unicode="Y" horiz-adv-x="624" 
d="M362 306v-306h-100v306l-265 402h122l196 -320l197 320h115z" />
    <glyph glyph-name="Z" unicode="Z" horiz-adv-x="592" 
d="M553 708v-87l-400 -533h406v-88h-526v87l399 534h-391v87h512z" />
    <glyph glyph-name="bracketleft" unicode="[" horiz-adv-x="315" 
d="M236 732v-66h-93v-756h93v-66h-177v888h177z" />
    <glyph glyph-name="backslash" unicode="\" horiz-adv-x="380" 
d="M311 -33l-307 749l70 26l308 -751z" />
    <glyph glyph-name="bracketright" unicode="]" horiz-adv-x="315" 
d="M79 -156v66h93v756h-93v66h177v-888h-177z" />
    <glyph glyph-name="asciicircum" unicode="^" horiz-adv-x="666" 
d="M74 309l226 399h66l226 -399h-91l-169 300l-167 -300h-91z" />
    <glyph glyph-name="underscore" unicode="_" horiz-adv-x="500" 
d="M0 -138v63h500v-63h-500z" />
    <glyph glyph-name="grave" unicode="`" horiz-adv-x="250" 
d="M102 564l-136 144h113l100 -144h-77z" />
    <glyph glyph-name="a" unicode="a" horiz-adv-x="552" 
d="M376 179v31c-38 8 -82 14 -122 14c-79 0 -112 -35 -112 -87s39 -75 96 -75c69 0 138 40 138 117zM46 135c0 86 53 157 211 157c43 0 88 -7 119 -13v23c0 70 -32 108 -120 108c-60 0 -106 -24 -137 -58l-56 63c48 46 101 72 196 72c140 0 207 -52 207 -200v-287h-89v63h-3
c-30 -49 -89 -75 -155 -75c-92 0 -173 46 -173 147z" />
    <glyph glyph-name="b" unicode="b" horiz-adv-x="636" 
d="M176 75h-2v-75h-91v756h94v-353h3c32 46 91 84 169 84c141 0 237 -109 237 -249c0 -139 -93 -251 -239 -251c-67 0 -134 31 -171 88zM489 238c0 89 -55 171 -158 171c-96 0 -160 -81 -160 -172s64 -171 160 -171c103 0 158 83 158 172z" />
    <glyph glyph-name="c" unicode="c" horiz-adv-x="521" 
d="M304 487c81 0 148 -35 186 -89l-61 -49c-24 26 -56 60 -126 60c-96 0 -156 -77 -156 -170c0 -90 59 -173 157 -173c73 0 125 48 141 69l59 -56c-38 -41 -103 -92 -202 -92c-151 0 -252 115 -252 252c0 140 107 248 254 248z" />
    <glyph glyph-name="d" unicode="d" horiz-adv-x="635" 
d="M459 75c-36 -57 -104 -88 -171 -88c-146 0 -239 112 -239 251c0 140 96 249 238 249c77 0 136 -38 169 -84h2v353h94v-756h-91v75h-2zM147 238c0 -89 54 -172 157 -172c96 0 160 80 160 171s-64 172 -160 172c-103 0 -157 -82 -157 -171z" />
    <glyph glyph-name="e" unicode="e" horiz-adv-x="572" 
d="M520 210h-378c11 -93 73 -144 162 -144c77 0 128 45 152 74l60 -50c-38 -53 -121 -103 -223 -103c-137 0 -242 98 -242 237c0 144 104 263 249 263c147 0 222 -121 222 -227c0 -18 -1 -34 -2 -50zM295 409c-81 0 -139 -54 -152 -131h293c0 72 -63 131 -141 131z" />
    <glyph glyph-name="f" unicode="f" horiz-adv-x="310" 
d="M6 397v77h94v120c0 147 91 174 163 174h73v-81h-57c-63 0 -85 -12 -85 -107v-106h110v-77h-110v-397h-94v397h-94z" />
    <glyph glyph-name="g" unicode="g" horiz-adv-x="632" 
d="M58 -154l60 73c41 -46 108 -77 173 -77c125 0 167 77 167 175v61h-2c-35 -53 -100 -82 -167 -82c-145 0 -239 108 -239 244s93 247 238 247c68 0 135 -30 171 -89h2v76h91v-450c0 -138 -65 -264 -262 -264c-82 0 -173 32 -232 86zM147 242c0 -87 58 -167 157 -167
c97 0 161 73 161 167c0 90 -65 167 -161 167c-99 0 -157 -76 -157 -167z" />
    <glyph glyph-name="h" unicode="h" horiz-adv-x="614" 
d="M533 263v-263h-94v262c0 77 -30 149 -118 149c-87 0 -146 -72 -146 -171v-240h-94v756h94v-360h4c22 45 83 91 164 91c137 0 190 -101 190 -224z" />
    <glyph glyph-name="i" unicode="i" horiz-adv-x="258" 
d="M82 0v474h94v-474h-94zM68 661c0 35 26 63 61 63c36 0 63 -28 63 -63s-27 -61 -63 -61c-35 0 -61 26 -61 61z" />
    <glyph glyph-name="j" unicode="j" horiz-adv-x="258" 
d="M176 474v-552c0 -147 -100 -162 -172 -162h-30v78h14c61 0 95 8 95 103v533h93zM68 661c0 35 26 63 61 63c36 0 63 -28 63 -63s-27 -61 -63 -61c-35 0 -61 26 -61 61z" />
    <glyph glyph-name="k" unicode="k" horiz-adv-x="527" 
d="M404 0l-147 241l-80 -77v-164h-94v756h94v-488h3l199 206h126l-180 -174l199 -300h-120z" />
    <glyph glyph-name="l" unicode="l" horiz-adv-x="260" 
d="M177 756v-756h-94v756h94z" />
    <glyph glyph-name="m" unicode="m" horiz-adv-x="952" 
d="M871 0h-94v281c0 71 -29 130 -111 130c-83 0 -143 -80 -143 -157v-254h-94v281c0 71 -29 130 -111 130c-83 0 -143 -80 -143 -157v-254h-94v474h93v-69h4c21 43 81 82 158 82c62 0 130 -26 163 -94h3c36 60 96 94 182 94c87 0 187 -51 187 -191v-296z" />
    <glyph glyph-name="n" unicode="n" horiz-adv-x="614" 
d="M533 263v-263h-94v262c0 77 -30 149 -118 149c-87 0 -146 -72 -146 -171v-240h-94v474h92v-78h4c22 45 85 91 166 91c137 0 190 -101 190 -224z" />
    <glyph glyph-name="o" unicode="o" horiz-adv-x="611" 
d="M561 238c0 -146 -111 -251 -256 -251s-255 105 -255 251s110 249 255 249s256 -103 256 -249zM463 238c0 90 -56 171 -158 171c-101 0 -158 -81 -158 -171s57 -172 158 -172c102 0 158 82 158 172z" />
    <glyph glyph-name="p" unicode="p" horiz-adv-x="634" 
d="M175 71v-311h-94v714h92v-74h3c31 50 93 87 171 87c141 0 237 -109 237 -249c0 -139 -93 -251 -239 -251c-67 0 -132 31 -167 84h-3zM487 238c0 89 -55 171 -158 171c-96 0 -160 -81 -160 -172s64 -171 160 -171c103 0 158 83 158 172z" />
    <glyph glyph-name="q" unicode="q" horiz-adv-x="633" 
d="M458 71h-2c-35 -53 -101 -84 -168 -84c-146 0 -239 112 -239 251c0 140 96 249 238 249c77 0 139 -37 171 -87h3v74h91v-714h-94v311zM147 238c0 -89 54 -172 157 -172c96 0 160 80 160 171s-64 172 -160 172c-103 0 -157 -82 -157 -171z" />
    <glyph glyph-name="r" unicode="r" horiz-adv-x="362" 
d="M81 0v474h89v-80h3c26 55 81 93 145 93c13 0 26 -1 37 -4l-4 -87c-12 3 -28 5 -43 5c-90 0 -133 -73 -133 -152v-249h-94z" />
    <glyph glyph-name="s" unicode="s" horiz-adv-x="512" 
d="M454 404l-65 -58c-30 33 -96 62 -151 62c-49 0 -104 -18 -104 -59c0 -42 59 -54 131 -65c113 -17 206 -47 206 -146c0 -98 -92 -151 -206 -151c-128 0 -209 68 -236 94l70 60c53 -50 113 -75 170 -75c58 0 109 20 109 65c0 47 -54 61 -130 73c-105 16 -208 39 -208 136
c0 92 83 147 197 147c82 0 169 -29 217 -83z" />
    <glyph glyph-name="t" unicode="t" horiz-adv-x="329" 
d="M313 78v-78h-53c-111 0 -166 26 -166 160v237h-77v77h77v129h93v-129h124v-77h-124v-221c0 -95 44 -98 92 -98h34z" />
    <glyph glyph-name="u" unicode="u" horiz-adv-x="604" 
d="M81 214v260h94v-259c0 -77 29 -149 121 -149c91 0 133 80 133 168v240h94v-474h-91v74h-4c-24 -41 -83 -87 -158 -87c-138 0 -189 104 -189 227z" />
    <glyph glyph-name="v" unicode="v" horiz-adv-x="504" 
d="M494 474l-190 -474h-102l-193 474h104l139 -373h2l140 373h100z" />
    <glyph glyph-name="w" unicode="w" horiz-adv-x="773" 
d="M14 474h102l107 -362h2l113 362h99l115 -362h2l107 362h99l-157 -474h-98l-117 356h-2l-116 -356h-98z" />
    <glyph glyph-name="x" unicode="x" horiz-adv-x="511" 
d="M7 0l190 249l-173 225h116l116 -163l117 163h110l-171 -224l191 -250h-117l-132 185l-134 -185h-113z" />
    <glyph glyph-name="y" unicode="y" horiz-adv-x="504" 
d="M114 474l147 -372h2l131 372h100l-230 -586c-31 -79 -71 -128 -164 -128c-20 0 -41 0 -62 2v83c15 -2 41 -3 56 -3c49 0 68 28 88 79l30 79l-203 474h105z" />
    <glyph glyph-name="z" unicode="z" horiz-adv-x="462" 
d="M419 474v-77l-270 -318h281v-79h-397v77l268 320h-255v77h373z" />
    <glyph glyph-name="braceleft" unicode="{" horiz-adv-x="315" 
d="M5 251v74c40 0 74 27 74 90v188c0 92 56 129 118 129h68v-69h-51c-44 0 -51 -38 -51 -72v-183c0 -87 -66 -115 -93 -119v-2c27 -3 93 -27 93 -122v-180c0 -34 7 -72 51 -72h51v-69h-68c-62 0 -118 37 -118 129v184c0 67 -34 94 -74 94z" />
    <glyph glyph-name="bar" unicode="|" horiz-adv-x="403" 
d="M160 -230v1010h83v-1010h-83z" />
    <glyph glyph-name="braceright" unicode="}" horiz-adv-x="315" 
d="M310 251c-40 0 -74 -27 -74 -94v-184c0 -92 -56 -129 -118 -129h-68v69h52c43 0 50 38 50 72v180c0 95 66 119 94 122v2c-28 4 -94 32 -94 119v183c0 34 -7 72 -50 72h-52v69h68c62 0 118 -37 118 -129v-188c0 -63 34 -90 74 -90v-74z" />
    <glyph glyph-name="asciitilde" unicode="~" horiz-adv-x="666" 
d="M340 346c52 -33 70 -39 99 -39c33 0 63 24 87 68l59 -55c-47 -78 -99 -97 -144 -97c-39 0 -69 9 -116 38c-51 32 -69 38 -98 38c-33 0 -63 -24 -87 -68l-59 55c47 78 99 98 144 98c40 0 70 -9 115 -38z" />
    <glyph glyph-name="uni00A0" unicode="&#xa0;" horiz-adv-x="250" 
 />
    <glyph glyph-name="exclamdown" unicode="&#xa1;" horiz-adv-x="334" 
d="M206 274l20 -501h-119l20 501h79zM234 421c0 -36 -29 -65 -67 -65s-67 30 -67 66c0 35 30 65 67 65c38 0 67 -31 67 -66z" />
    <glyph glyph-name="cent" unicode="&#xa2;" 
d="M299 191v332c-80 -15 -123 -83 -123 -166c0 -82 45 -150 123 -166zM350 524v-334c42 1 80 24 102 53l64 -60c-43 -49 -105 -72 -166 -75v-126h-51v127c-134 13 -216 117 -216 249c0 134 82 231 216 247v121h51v-120c62 -3 124 -25 166 -75l-66 -60c-23 29 -58 51 -100 53
z" />
    <glyph glyph-name="sterling" unicode="&#xa3;" 
d="M310 105c52 -33 70 -36 99 -36s54 25 68 60l95 -3c-31 -105 -93 -144 -161 -144c-39 0 -69 9 -116 38c-51 32 -69 38 -98 38c-33 0 -63 -24 -87 -68l-59 55c54 90 119 92 119 206v74h-97v72h97v88c0 107 56 241 229 241c64 0 123 -20 165 -60l-59 -67
c-25 28 -64 46 -108 46c-107 0 -129 -100 -129 -166v-82h166v-72h-166v-54c0 -66 -15 -102 -37 -131c24 -5 48 -16 79 -35z" />
    <glyph glyph-name="currency" unicode="&#xa4;" horiz-adv-x="890" 
d="M661 465c31 -41 48 -94 48 -156c0 -63 -18 -118 -51 -161l93 -93c-18 -19 -37 -38 -56 -56c-32 30 -64 62 -96 94c-41 -30 -94 -47 -153 -47c-57 0 -108 16 -154 49l-98 -96c-19 18 -37 37 -56 56l95 96c-31 41 -49 95 -49 158c0 60 17 112 46 154c-31 30 -61 61 -92 92
l57 56l93 -92c43 32 97 50 158 50c60 0 114 -17 157 -49c30 31 61 61 91 91l57 -56zM446 478c-99 0 -163 -77 -163 -169c0 -94 64 -171 163 -171s164 77 164 171c0 92 -65 169 -164 169z" />
    <glyph glyph-name="yen" unicode="&#xa5;" 
d="M80 228h170v91h-170v66h145l-212 323h115l174 -294l170 294h110l-208 -323h141v-66h-170v-91h170v-66h-170v-162h-95v162h-170v66z" />
    <glyph glyph-name="brokenbar" unicode="&#xa6;" horiz-adv-x="222" 
d="M70 675h82v-350h-82v350zM70 175h82v-350h-82v350z" />
    <glyph glyph-name="section" unicode="&#xa7;" 
d="M502 636l-71 -52c-19 35 -59 64 -111 64s-99 -27 -99 -78c0 -54 45 -80 128 -114c94 -39 166 -81 166 -173c0 -60 -38 -109 -85 -130c42 -28 61 -68 61 -120c0 -117 -102 -172 -203 -172c-86 0 -172 37 -213 114l83 46c23 -54 78 -78 130 -78c44 0 105 21 105 84
c0 57 -41 76 -144 120c-86 38 -156 71 -156 161c0 69 45 117 100 139c-36 23 -69 58 -69 117c0 110 99 162 195 162c83 0 150 -35 183 -90zM334 369l-75 33c-33 -9 -74 -32 -74 -80c0 -51 44 -70 95 -94l84 -36c30 10 59 39 59 78c0 55 -44 78 -89 99z" />
    <glyph glyph-name="dieresis" unicode="&#xa8;" horiz-adv-x="250" 
d="M-34 645c0 32 26 61 62 61c35 0 62 -27 62 -61c0 -33 -27 -60 -62 -60c-36 0 -62 29 -62 60zM160 645c0 32 26 61 62 61c35 0 62 -27 62 -61c0 -33 -27 -60 -62 -60c-36 0 -62 29 -62 60z" />
    <glyph glyph-name="copyright" unicode="&#xa9;" horiz-adv-x="800" 
d="M20 353c0 210 171 377 381 377c209 0 379 -167 379 -377c0 -209 -170 -375 -379 -375c-210 0 -381 166 -381 375zM80 353c0 -176 144 -319 321 -319c176 0 319 143 319 319c0 177 -143 321 -319 321c-177 0 -321 -144 -321 -321zM573 519l-58 -46c-23 31 -63 44 -98 44
c-89 0 -149 -68 -149 -157c0 -94 57 -159 146 -159c46 0 83 20 105 50l61 -43c-38 -48 -94 -76 -167 -76c-134 0 -230 93 -230 228c0 138 101 225 234 225c56 0 122 -21 156 -66z" />
    <glyph glyph-name="ordfeminine" unicode="&#xaa;" horiz-adv-x="343" 
d="M231 537v17c-21 4 -44 6 -64 6c-41 0 -56 -19 -56 -45c0 -31 17 -41 47 -41c37 0 73 21 73 63zM38 513c0 51 27 95 131 95c21 0 45 -2 62 -5v7c0 40 -16 58 -62 58c-32 0 -59 -15 -80 -36l-41 44c30 29 64 46 123 46c89 0 128 -33 128 -121v-172h-67l-1 28
c-21 -19 -52 -35 -84 -35c-59 0 -109 28 -109 91zM299 364v-77h-255v77h255z" />
    <glyph glyph-name="guillemotleft" unicode="&#xab;" horiz-adv-x="509" 
d="M39 244l131 195h90l-128 -195l128 -195h-90zM249 244l131 195h90l-128 -195l128 -195h-90z" />
    <glyph glyph-name="logicalnot" unicode="&#xac;" horiz-adv-x="666" 
d="M596 426v-287h-81v206h-445v81h526z" />
    <glyph glyph-name="uni00AD" unicode="&#xad;" horiz-adv-x="320" 
d="M276 284v-80h-232v80h232z" />
    <glyph glyph-name="registered" unicode="&#xae;" horiz-adv-x="800" 
d="M496 447c0 46 -26 69 -87 69h-101v-140h101c62 0 87 29 87 71zM226 143v436h192c112 0 161 -55 161 -129s-52 -113 -100 -125l122 -182h-96l-109 169h-88v-169h-82zM20 353c0 210 171 377 381 377c209 0 379 -167 379 -377c0 -209 -170 -375 -379 -375
c-210 0 -381 166 -381 375zM80 353c0 -176 144 -319 321 -319c176 0 319 143 319 319c0 177 -143 321 -319 321c-177 0 -321 -144 -321 -321z" />
    <glyph glyph-name="macron" unicode="&#xaf;" horiz-adv-x="250" 
d="M273 664v-67h-296v67h296z" />
    <glyph glyph-name="degree" unicode="&#xb0;" horiz-adv-x="400" 
d="M355 565c0 -87 -68 -154 -155 -154s-155 67 -155 154s68 155 155 155s155 -68 155 -155zM291 565c0 51 -41 92 -91 92s-91 -41 -91 -92c0 -50 41 -91 91 -91s91 41 91 91z" />
    <glyph glyph-name="plusminus" unicode="&#xb1;" horiz-adv-x="666" 
d="M70 338v81h223v150h81v-150h222v-81h-222v-147h-81v147h-223zM70 40v81h526v-81h-526z" />
    <glyph glyph-name="twosuperior" unicode="&#xb2;" horiz-adv-x="385" 
d="M340 355v-69h-300v66l172 161c24 23 45 47 45 79c0 36 -29 59 -64 59c-40 0 -66 -29 -74 -69h-78c9 82 71 137 153 137c74 0 144 -44 144 -126c0 -55 -33 -93 -73 -129l-121 -109h196z" />
    <glyph glyph-name="threesuperior" unicode="&#xb3;" horiz-adv-x="385" 
d="M129 473v64h30c43 0 85 14 85 58c0 34 -30 57 -65 57c-31 0 -54 -20 -68 -50h-81c24 80 88 117 152 117c77 0 141 -43 141 -121c0 -40 -20 -73 -54 -91c39 -18 66 -53 66 -99c0 -86 -75 -134 -154 -134c-75 0 -138 35 -166 126h83c12 -34 42 -57 82 -57c38 0 75 21 75 65
c0 49 -51 65 -97 65h-29z" />
    <glyph glyph-name="acute" unicode="&#xb4;" horiz-adv-x="250" 
d="M284 708l-136 -144h-77l100 144h113z" />
    <glyph glyph-name="mu" unicode="&#xb5;" horiz-adv-x="578" 
d="M502 0h-89c-2 24 -4 58 -4 78h-2c-24 -50 -86 -91 -155 -91c-33 0 -66 12 -83 30v-257h-94v714h94v-262c0 -78 21 -146 108 -146c75 0 127 62 127 156v252h94v-372c0 -25 1 -71 4 -102z" />
    <glyph glyph-name="paragraph" unicode="&#xb6;" horiz-adv-x="600" 
d="M523 708v-834h-78v771h-115v-771h-79v453c-126 0 -212 80 -212 184c0 132 91 197 231 197h253z" />
    <glyph glyph-name="periodcentered" unicode="&#xb7;" horiz-adv-x="260" 
d="M198 303c0 -35 -29 -66 -67 -66s-68 30 -68 65c0 36 29 67 68 67c37 0 67 -30 67 -66z" />
    <glyph glyph-name="cedilla" unicode="&#xb8;" horiz-adv-x="250" 
d="M167 0l-46 -69c9 2 17 2 27 2c45 0 94 -19 94 -78c0 -70 -70 -91 -127 -91c-34 0 -75 9 -103 23l20 46c24 -11 51 -17 77 -17c22 0 60 5 60 39c0 29 -26 35 -53 35c-12 0 -28 -3 -41 -7l-20 23l62 94h50z" />
    <glyph glyph-name="onesuperior" unicode="&#xb9;" horiz-adv-x="385" 
d="M251 712v-426h-80v328l-81 -58l-36 57l130 99h67z" />
    <glyph glyph-name="ordmasculine" unicode="&#xba;" horiz-adv-x="380" 
d="M342 574c0 -86 -64 -148 -152 -148s-152 62 -152 148c0 87 64 148 152 148s152 -61 152 -148zM267 574c0 44 -27 82 -77 82s-76 -38 -76 -82c0 -43 26 -82 76 -82s77 39 77 82zM336 364v-77h-292v77h292z" />
    <glyph glyph-name="guillemotright" unicode="&#xbb;" horiz-adv-x="509" 
d="M129 439l131 -195l-131 -195h-90l128 195l-128 195h90zM339 439l131 -195l-131 -195h-90l128 195l-128 195h90z" />
    <glyph glyph-name="questiondown" unicode="&#xbf;" horiz-adv-x="500" 
d="M217 265v15h94v-28c0 -71 -27 -126 -90 -185c-48 -45 -71 -72 -71 -119c0 -64 45 -104 109 -104c66 0 112 49 112 110h97c0 -128 -95 -196 -214 -196c-111 0 -204 64 -204 184c0 85 39 124 96 172c54 46 71 85 71 151zM192 421c0 35 29 66 67 66c37 0 67 -30 67 -65
c0 -36 -29 -66 -67 -66s-67 29 -67 65z" />
    <glyph glyph-name="Agrave" unicode="&#xc0;" horiz-adv-x="711" 
d="M186 174l-71 -174h-110l307 708h90l304 -708h-112l-72 174h-336zM354 593l-133 -332h265zM313 764l-137 144h114l100 -144h-77z" />
    <glyph glyph-name="Aacute" unicode="&#xc1;" horiz-adv-x="711" 
d="M186 174l-71 -174h-110l307 708h90l304 -708h-112l-72 174h-336zM354 593l-133 -332h265zM526 908l-137 -144h-76l99 144h114z" />
    <glyph glyph-name="Acircumflex" unicode="&#xc2;" horiz-adv-x="711" 
d="M186 174l-71 -174h-110l307 708h90l304 -708h-112l-72 174h-336zM354 593l-133 -332h265zM409 908l112 -144h-91l-75 99l-76 -99h-90l112 144h108z" />
    <glyph glyph-name="Atilde" unicode="&#xc3;" horiz-adv-x="711" 
d="M186 174l-71 -174h-110l307 708h90l304 -708h-112l-72 174h-336zM354 593l-133 -332h265zM237 772h-55c10 58 34 116 102 116c25 0 52 -9 75 -20c26 -12 49 -22 67 -22c29 0 41 23 48 46h54c-10 -58 -34 -116 -102 -116c-25 0 -53 10 -77 21c-24 12 -46 21 -65 21
c-28 0 -41 -23 -47 -46z" />
    <glyph glyph-name="Adieresis" unicode="&#xc4;" horiz-adv-x="711" 
d="M186 174l-71 -174h-110l307 708h90l304 -708h-112l-72 174h-336zM354 593l-133 -332h265zM196 845c0 32 26 61 62 61c35 0 62 -27 62 -61c0 -33 -27 -60 -62 -60c-36 0 -62 29 -62 60zM390 845c0 32 26 61 62 61c35 0 62 -27 62 -61c0 -33 -27 -60 -62 -60
c-36 0 -62 29 -62 60z" />
    <glyph glyph-name="Aring" unicode="&#xc5;" horiz-adv-x="711" 
d="M484 719c0 -40 -18 -75 -46 -97l268 -622h-112l-72 174h-336l-71 -174h-110l269 621c-29 22 -47 57 -47 97c0 72 57 126 128 126s129 -54 129 -125zM354 593l-133 -332h265zM407 719c0 28 -23 49 -52 49c-28 0 -51 -21 -51 -49c0 -29 23 -50 51 -50c29 0 52 21 52 50z
" />
    <glyph glyph-name="AE" unicode="&#xc6;" horiz-adv-x="1042" 
d="M996 0h-479v174h-300l-99 -174h-113l417 708h567v-87h-373v-218h302v-85h-302v-230h380v-88zM472 621l-206 -360h251v360h-45z" />
    <glyph glyph-name="Ccedilla" unicode="&#xc7;" horiz-adv-x="708" 
d="M614 164l79 -54c-55 -75 -146 -128 -270 -128c-14 0 -27 1 -40 2l-35 -53c9 2 17 2 27 2c45 0 94 -19 94 -78c0 -70 -70 -91 -127 -91c-34 0 -75 9 -103 23l20 46c24 -11 51 -17 77 -17c22 0 60 5 60 39c0 29 -26 35 -53 35c-12 0 -28 -3 -41 -7l-20 23l55 85
c-171 34 -287 176 -287 364c0 221 162 371 377 371c97 0 202 -38 254 -110l-78 -60c-34 48 -103 83 -176 83c-164 0 -269 -129 -269 -284c0 -159 103 -285 266 -285c79 0 148 33 190 94z" />
    <glyph glyph-name="Egrave" unicode="&#xc8;" horiz-adv-x="621" 
d="M575 0h-489v708h482v-87h-383v-218h312v-85h-312v-230h390v-88zM325 764l-137 144h114l100 -144h-77z" />
    <glyph glyph-name="Eacute" unicode="&#xc9;" horiz-adv-x="621" 
d="M575 0h-489v708h482v-87h-383v-218h312v-85h-312v-230h390v-88zM469 908l-137 -144h-76l99 144h114z" />
    <glyph glyph-name="Ecircumflex" unicode="&#xca;" horiz-adv-x="621" 
d="M575 0h-489v708h482v-87h-383v-218h312v-85h-312v-230h390v-88zM379 908l112 -144h-91l-75 99l-76 -99h-90l112 144h108z" />
    <glyph glyph-name="Edieresis" unicode="&#xcb;" horiz-adv-x="621" 
d="M575 0h-489v708h482v-87h-383v-218h312v-85h-312v-230h390v-88zM170 845c0 32 26 61 62 61c35 0 62 -27 62 -61c0 -33 -27 -60 -62 -60c-36 0 -62 29 -62 60zM364 845c0 32 26 61 62 61c35 0 62 -27 62 -61c0 -33 -27 -60 -62 -60c-36 0 -62 29 -62 60z" />
    <glyph glyph-name="Igrave" unicode="&#xcc;" horiz-adv-x="271" 
d="M185 708v-708h-99v708h99zM98 764l-137 144h114l100 -144h-77z" />
    <glyph glyph-name="Iacute" unicode="&#xcd;" horiz-adv-x="271" 
d="M185 708v-708h-99v708h99zM305 908l-137 -144h-76l99 144h114z" />
    <glyph glyph-name="Icircumflex" unicode="&#xce;" horiz-adv-x="271" 
d="M185 708v-708h-99v708h99zM189 908l112 -144h-91l-75 99l-76 -99h-90l112 144h108z" />
    <glyph glyph-name="Idieresis" unicode="&#xcf;" horiz-adv-x="271" 
d="M185 708v-708h-99v708h99zM-24 845c0 32 26 61 62 61c35 0 62 -27 62 -61c0 -33 -27 -60 -62 -60c-36 0 -62 29 -62 60zM170 845c0 32 26 61 62 61c35 0 62 -27 62 -61c0 -33 -27 -60 -62 -60c-36 0 -62 29 -62 60z" />
    <glyph glyph-name="Eth" unicode="&#xd0;" horiz-adv-x="761" 
d="M86 0v335h-73v70h73v303h243c181 0 382 -103 382 -354c0 -242 -201 -354 -382 -354h-243zM185 622v-217h234v-70h-234v-248h124c171 0 296 98 296 267c0 175 -125 268 -296 268h-124z" />
    <glyph glyph-name="Ntilde" unicode="&#xd1;" horiz-adv-x="745" 
d="M86 0v708h95l383 -547v547h95v-708h-95l-383 546v-546h-95zM254 772h-55c10 58 34 116 102 116c25 0 52 -9 75 -20c26 -12 49 -22 67 -22c29 0 41 23 48 46h54c-10 -58 -34 -116 -102 -116c-25 0 -53 10 -77 21c-24 12 -46 21 -65 21c-28 0 -41 -23 -47 -46z" />
    <glyph glyph-name="Ograve" unicode="&#xd2;" horiz-adv-x="849" 
d="M800 355c0 -218 -160 -373 -376 -373c-215 0 -374 155 -374 373c0 221 159 371 374 371c216 0 376 -150 376 -371zM693 355c0 155 -104 284 -269 284c-163 0 -267 -129 -267 -284c0 -158 105 -284 267 -284c164 0 269 126 269 284zM391 764l-137 144h114l100 -144h-77z
" />
    <glyph glyph-name="Oacute" unicode="&#xd3;" horiz-adv-x="849" 
d="M800 355c0 -218 -160 -373 -376 -373c-215 0 -374 155 -374 373c0 221 159 371 374 371c216 0 376 -150 376 -371zM693 355c0 155 -104 284 -269 284c-163 0 -267 -129 -267 -284c0 -158 105 -284 267 -284c164 0 269 126 269 284zM581 908l-137 -144h-76l99 144h114z
" />
    <glyph glyph-name="Ocircumflex" unicode="&#xd4;" horiz-adv-x="849" 
d="M800 355c0 -218 -160 -373 -376 -373c-215 0 -374 155 -374 373c0 221 159 371 374 371c216 0 376 -150 376 -371zM693 355c0 155 -104 284 -269 284c-163 0 -267 -129 -267 -284c0 -158 105 -284 267 -284c164 0 269 126 269 284zM478 908l112 -144h-91l-75 99l-76 -99
h-90l112 144h108z" />
    <glyph glyph-name="Otilde" unicode="&#xd5;" horiz-adv-x="849" 
d="M800 355c0 -218 -160 -373 -376 -373c-215 0 -374 155 -374 373c0 221 159 371 374 371c216 0 376 -150 376 -371zM693 355c0 155 -104 284 -269 284c-163 0 -267 -129 -267 -284c0 -158 105 -284 267 -284c164 0 269 126 269 284zM306 772h-55c10 58 34 116 102 116
c25 0 52 -9 75 -20c26 -12 49 -22 67 -22c29 0 41 23 48 46h54c-10 -58 -34 -116 -102 -116c-25 0 -53 10 -77 21c-24 12 -46 21 -65 21c-28 0 -41 -23 -47 -46z" />
    <glyph glyph-name="Odieresis" unicode="&#xd6;" horiz-adv-x="849" 
d="M800 355c0 -218 -160 -373 -376 -373c-215 0 -374 155 -374 373c0 221 159 371 374 371c216 0 376 -150 376 -371zM693 355c0 155 -104 284 -269 284c-163 0 -267 -129 -267 -284c0 -158 105 -284 267 -284c164 0 269 126 269 284zM265 845c0 32 26 61 62 61
c35 0 62 -27 62 -61c0 -33 -27 -60 -62 -60c-36 0 -62 29 -62 60zM459 845c0 32 26 61 62 61c35 0 62 -27 62 -61c0 -33 -27 -60 -62 -60c-36 0 -62 29 -62 60z" />
    <glyph glyph-name="multiply" unicode="&#xd7;" horiz-adv-x="666" 
d="M162 531l171 -171l170 171l57 -56l-170 -171l172 -173l-59 -58l-171 170l-170 -170l-58 58l172 170l-171 174z" />
    <glyph glyph-name="Oslash" unicode="&#xd8;" horiz-adv-x="849" 
d="M800 355c0 -218 -160 -373 -376 -373c-72 0 -138 18 -193 48l-71 -93l-62 42l72 95c-75 66 -120 164 -120 281c0 221 159 371 374 371c76 0 145 -19 202 -52l68 89l62 -44l-69 -90c70 -66 113 -161 113 -274zM157 355c0 -79 27 -150 73 -202l339 445
c-40 26 -89 41 -145 41c-163 0 -267 -129 -267 -284zM693 355c0 74 -24 142 -67 193l-338 -442c39 -23 84 -35 136 -35c164 0 269 126 269 284z" />
    <glyph glyph-name="Ugrave" unicode="&#xd9;" horiz-adv-x="712" 
d="M356 -18c-187 0 -275 135 -275 280v446h99v-440c0 -97 44 -197 176 -197s176 100 176 197v440h99v-446c0 -145 -88 -280 -275 -280zM334 764l-137 144h114l100 -144h-77z" />
    <glyph glyph-name="Uacute" unicode="&#xda;" horiz-adv-x="712" 
d="M356 -18c-187 0 -275 135 -275 280v446h99v-440c0 -97 44 -197 176 -197s176 100 176 197v440h99v-446c0 -145 -88 -280 -275 -280zM506 908l-137 -144h-76l99 144h114z" />
    <glyph glyph-name="Ucircumflex" unicode="&#xdb;" horiz-adv-x="712" 
d="M356 -18c-187 0 -275 135 -275 280v446h99v-440c0 -97 44 -197 176 -197s176 100 176 197v440h99v-446c0 -145 -88 -280 -275 -280zM410 908l112 -144h-91l-75 99l-76 -99h-90l112 144h108z" />
    <glyph glyph-name="Udieresis" unicode="&#xdc;" horiz-adv-x="712" 
d="M356 -18c-187 0 -275 135 -275 280v446h99v-440c0 -97 44 -197 176 -197s176 100 176 197v440h99v-446c0 -145 -88 -280 -275 -280zM197 845c0 32 26 61 62 61c35 0 62 -27 62 -61c0 -33 -27 -60 -62 -60c-36 0 -62 29 -62 60zM391 845c0 32 26 61 62 61
c35 0 62 -27 62 -61c0 -33 -27 -60 -62 -60c-36 0 -62 29 -62 60z" />
    <glyph glyph-name="Yacute" unicode="&#xdd;" horiz-adv-x="624" 
d="M362 306v-306h-100v306l-265 402h122l196 -320l197 320h115zM469 908l-137 -144h-76l99 144h114z" />
    <glyph glyph-name="Thorn" unicode="&#xde;" 
d="M86 0v708h99v-146h117c153 0 253 -64 253 -197c0 -145 -111 -200 -258 -200h-112v-165h-99zM185 477v-227h102c97 0 165 30 165 114c0 83 -70 113 -163 113h-104z" />
    <glyph glyph-name="germandbls" unicode="&#xdf;" horiz-adv-x="612" 
d="M174 521v-521h-94v525c0 121 57 243 227 243c114 0 203 -75 203 -186c0 -74 -42 -132 -111 -154v-2c101 -15 167 -95 167 -204c0 -139 -94 -234 -243 -234c-22 0 -48 3 -71 8v79c15 -4 42 -7 59 -7c95 0 158 60 158 158c0 105 -74 155 -173 155h-11v82h11
c70 0 120 38 120 110c0 65 -44 112 -113 112c-106 0 -129 -93 -129 -164z" />
    <glyph glyph-name="agrave" unicode="&#xe0;" horiz-adv-x="552" 
d="M376 179v31c-38 8 -82 14 -122 14c-79 0 -112 -35 -112 -87s39 -75 96 -75c69 0 138 40 138 117zM46 135c0 86 53 157 211 157c43 0 88 -7 119 -13v23c0 70 -32 108 -120 108c-60 0 -106 -24 -137 -58l-56 63c48 46 101 72 196 72c140 0 207 -52 207 -200v-287h-89v63h-3
c-30 -49 -89 -75 -155 -75c-92 0 -173 46 -173 147zM241 564l-136 144h113l100 -144h-77z" />
    <glyph glyph-name="aacute" unicode="&#xe1;" horiz-adv-x="552" 
d="M376 179v31c-38 8 -82 14 -122 14c-79 0 -112 -35 -112 -87s39 -75 96 -75c69 0 138 40 138 117zM46 135c0 86 53 157 211 157c43 0 88 -7 119 -13v23c0 70 -32 108 -120 108c-60 0 -106 -24 -137 -58l-56 63c48 46 101 72 196 72c140 0 207 -52 207 -200v-287h-89v63h-3
c-30 -49 -89 -75 -155 -75c-92 0 -173 46 -173 147zM407 708l-136 -144h-77l100 144h113z" />
    <glyph glyph-name="acircumflex" unicode="&#xe2;" horiz-adv-x="552" 
d="M376 179v31c-38 8 -82 14 -122 14c-79 0 -112 -35 -112 -87s39 -75 96 -75c69 0 138 40 138 117zM46 135c0 86 53 157 211 157c43 0 88 -7 119 -13v23c0 70 -32 108 -120 108c-60 0 -106 -24 -137 -58l-56 63c48 46 101 72 196 72c140 0 207 -52 207 -200v-287h-89v63h-3
c-30 -49 -89 -75 -155 -75c-92 0 -173 46 -173 147zM330 708l112 -144h-91l-75 99l-76 -99h-90l112 144h108z" />
    <glyph glyph-name="atilde" unicode="&#xe3;" horiz-adv-x="552" 
d="M376 179v31c-38 8 -82 14 -122 14c-79 0 -112 -35 -112 -87s39 -75 96 -75c69 0 138 40 138 117zM46 135c0 86 53 157 211 157c43 0 88 -7 119 -13v23c0 70 -32 108 -120 108c-60 0 -106 -24 -137 -58l-56 63c48 46 101 72 196 72c140 0 207 -52 207 -200v-287h-89v63h-3
c-30 -49 -89 -75 -155 -75c-92 0 -173 46 -173 147zM158 572h-55c10 58 34 116 102 116c25 0 52 -9 75 -20c26 -12 49 -22 67 -22c29 0 41 23 48 46h54c-10 -58 -34 -116 -102 -116c-25 0 -53 10 -77 21c-24 12 -46 21 -65 21c-28 0 -41 -23 -47 -46z" />
    <glyph glyph-name="adieresis" unicode="&#xe4;" horiz-adv-x="552" 
d="M376 179v31c-38 8 -82 14 -122 14c-79 0 -112 -35 -112 -87s39 -75 96 -75c69 0 138 40 138 117zM46 135c0 86 53 157 211 157c43 0 88 -7 119 -13v23c0 70 -32 108 -120 108c-60 0 -106 -24 -137 -58l-56 63c48 46 101 72 196 72c140 0 207 -52 207 -200v-287h-89v63h-3
c-30 -49 -89 -75 -155 -75c-92 0 -173 46 -173 147zM117 645c0 32 26 61 62 61c35 0 62 -27 62 -61c0 -33 -27 -60 -62 -60c-36 0 -62 29 -62 60zM311 645c0 32 26 61 62 61c35 0 62 -27 62 -61c0 -33 -27 -60 -62 -60c-36 0 -62 29 -62 60z" />
    <glyph glyph-name="aring" unicode="&#xe5;" horiz-adv-x="552" 
d="M376 179v31c-38 8 -82 14 -122 14c-79 0 -112 -35 -112 -87s39 -75 96 -75c69 0 138 40 138 117zM46 135c0 86 53 157 211 157c43 0 88 -7 119 -13v23c0 70 -32 108 -120 108c-60 0 -106 -24 -137 -58l-56 63c48 46 101 72 196 72c140 0 207 -52 207 -200v-287h-89v63h-3
c-30 -49 -89 -75 -155 -75c-92 0 -173 46 -173 147zM376 653c0 -57 -45 -99 -101 -99c-55 0 -100 42 -100 98c0 57 44 99 100 99s101 -42 101 -98zM325 653c0 27 -22 47 -50 47c-27 0 -49 -20 -49 -47c0 -28 22 -48 49 -48c28 0 50 20 50 48z" />
    <glyph glyph-name="ae" unicode="&#xe6;" horiz-adv-x="894" 
d="M437 401h4c42 52 105 86 181 86c147 0 222 -121 222 -227c0 -18 -1 -34 -2 -50h-378c11 -93 73 -144 162 -144c77 0 128 45 152 74l60 -50c-38 -53 -121 -103 -223 -103c-85 0 -155 38 -196 100h-2c-50 -74 -113 -99 -198 -99c-92 0 -173 46 -173 147
c0 86 53 157 211 157c43 0 88 -7 119 -13v23c0 70 -32 108 -120 108c-60 0 -106 -24 -137 -58l-56 63c48 46 101 72 196 72c93 0 150 -26 178 -86zM376 179v31c-38 8 -82 14 -122 14c-79 0 -112 -35 -112 -87s39 -75 96 -75c69 0 138 40 138 117zM617 409
c-81 0 -139 -54 -152 -131h293c0 72 -63 131 -141 131z" />
    <glyph glyph-name="ccedilla" unicode="&#xe7;" horiz-adv-x="521" 
d="M304 487c81 0 148 -35 186 -89l-61 -49c-24 26 -56 60 -126 60c-96 0 -156 -77 -156 -170c0 -90 59 -173 157 -173c73 0 125 48 141 69l59 -56c-38 -41 -103 -92 -202 -92h-11l-37 -56c9 2 17 2 27 2c45 0 94 -19 94 -78c0 -70 -70 -91 -127 -91c-34 0 -75 9 -103 23
l20 46c24 -11 51 -17 77 -17c22 0 60 5 60 39c0 29 -26 35 -53 35c-12 0 -28 -3 -41 -7l-20 23l57 87c-119 24 -195 127 -195 246c0 140 107 248 254 248z" />
    <glyph glyph-name="egrave" unicode="&#xe8;" horiz-adv-x="572" 
d="M520 210h-378c11 -93 73 -144 162 -144c77 0 128 45 152 74l60 -50c-38 -53 -121 -103 -223 -103c-137 0 -242 98 -242 237c0 144 104 263 249 263c147 0 222 -121 222 -227c0 -18 -1 -34 -2 -50zM295 409c-81 0 -139 -54 -152 -131h293c0 72 -63 131 -141 131zM265 564
l-136 144h113l100 -144h-77z" />
    <glyph glyph-name="eacute" unicode="&#xe9;" horiz-adv-x="572" 
d="M520 210h-378c11 -93 73 -144 162 -144c77 0 128 45 152 74l60 -50c-38 -53 -121 -103 -223 -103c-137 0 -242 98 -242 237c0 144 104 263 249 263c147 0 222 -121 222 -227c0 -18 -1 -34 -2 -50zM295 409c-81 0 -139 -54 -152 -131h293c0 72 -63 131 -141 131zM459 708
l-136 -144h-77l100 144h113z" />
    <glyph glyph-name="ecircumflex" unicode="&#xea;" horiz-adv-x="572" 
d="M520 210h-378c11 -93 73 -144 162 -144c77 0 128 45 152 74l60 -50c-38 -53 -121 -103 -223 -103c-137 0 -242 98 -242 237c0 144 104 263 249 263c147 0 222 -121 222 -227c0 -18 -1 -34 -2 -50zM295 409c-81 0 -139 -54 -152 -131h293c0 72 -63 131 -141 131zM340 708
l112 -144h-91l-75 99l-76 -99h-90l112 144h108z" />
    <glyph glyph-name="edieresis" unicode="&#xeb;" horiz-adv-x="572" 
d="M520 210h-378c11 -93 73 -144 162 -144c77 0 128 45 152 74l60 -50c-38 -53 -121 -103 -223 -103c-137 0 -242 98 -242 237c0 144 104 263 249 263c147 0 222 -121 222 -227c0 -18 -1 -34 -2 -50zM295 409c-81 0 -139 -54 -152 -131h293c0 72 -63 131 -141 131zM127 645
c0 32 26 61 62 61c35 0 62 -27 62 -61c0 -33 -27 -60 -62 -60c-36 0 -62 29 -62 60zM321 645c0 32 26 61 62 61c35 0 62 -27 62 -61c0 -33 -27 -60 -62 -60c-36 0 -62 29 -62 60z" />
    <glyph glyph-name="igrave" unicode="&#xec;" horiz-adv-x="258" 
d="M82 0v474h94v-474h-94zM95 564l-136 144h113l100 -144h-77z" />
    <glyph glyph-name="iacute" unicode="&#xed;" horiz-adv-x="258" 
d="M82 0v474h94v-474h-94zM299 708l-136 -144h-77l100 144h113z" />
    <glyph glyph-name="icircumflex" unicode="&#xee;" horiz-adv-x="258" 
d="M82 0v474h94v-474h-94zM183 708l112 -144h-91l-75 99l-76 -99h-90l112 144h108z" />
    <glyph glyph-name="idieresis" unicode="&#xef;" horiz-adv-x="258" 
d="M82 0v474h94v-474h-94zM-30 645c0 32 26 61 62 61c35 0 62 -27 62 -61c0 -33 -27 -60 -62 -60c-36 0 -62 29 -62 60zM164 645c0 32 26 61 62 61c35 0 62 -27 62 -61c0 -33 -27 -60 -62 -60c-36 0 -62 29 -62 60z" />
    <glyph glyph-name="eth" unicode="&#xf0;" horiz-adv-x="610" 
d="M481 713l-110 -54c102 -103 185 -243 185 -397c0 -142 -78 -275 -255 -275c-147 0 -255 104 -255 250s109 250 251 250c50 0 92 -15 130 -49l2 2c-35 66 -84 132 -141 180l-110 -53l-48 47l110 53c-26 25 -61 50 -89 70l77 47c35 -27 71 -57 93 -78l108 53zM142 237
c0 -90 57 -170 159 -170s158 80 158 170s-56 170 -158 170s-159 -80 -159 -170z" />
    <glyph glyph-name="ntilde" unicode="&#xf1;" horiz-adv-x="614" 
d="M533 263v-263h-94v262c0 77 -30 149 -118 149c-87 0 -146 -72 -146 -171v-240h-94v474h92v-78h4c22 45 85 91 166 91c137 0 190 -101 190 -224zM189 572h-55c10 58 34 116 102 116c25 0 52 -9 75 -20c26 -12 49 -22 67 -22c29 0 41 23 48 46h54
c-10 -58 -34 -116 -102 -116c-25 0 -53 10 -77 21c-24 12 -46 21 -65 21c-28 0 -41 -23 -47 -46z" />
    <glyph glyph-name="ograve" unicode="&#xf2;" horiz-adv-x="611" 
d="M561 238c0 -146 -111 -251 -256 -251s-255 105 -255 251s110 249 255 249s256 -103 256 -249zM463 238c0 90 -56 171 -158 171c-101 0 -158 -81 -158 -171s57 -172 158 -172c102 0 158 82 158 172zM268 564l-136 144h113l100 -144h-77z" />
    <glyph glyph-name="oacute" unicode="&#xf3;" horiz-adv-x="611" 
d="M561 238c0 -146 -111 -251 -256 -251s-255 105 -255 251s110 249 255 249s256 -103 256 -249zM463 238c0 90 -56 171 -158 171c-101 0 -158 -81 -158 -171s57 -172 158 -172c102 0 158 82 158 172zM465 708l-136 -144h-77l100 144h113z" />
    <glyph glyph-name="ocircumflex" unicode="&#xf4;" horiz-adv-x="611" 
d="M561 238c0 -146 -111 -251 -256 -251s-255 105 -255 251s110 249 255 249s256 -103 256 -249zM463 238c0 90 -56 171 -158 171c-101 0 -158 -81 -158 -171s57 -172 158 -172c102 0 158 82 158 172zM359 708l112 -144h-91l-75 99l-76 -99h-90l112 144h108z" />
    <glyph glyph-name="otilde" unicode="&#xf5;" horiz-adv-x="611" 
d="M561 238c0 -146 -111 -251 -256 -251s-255 105 -255 251s110 249 255 249s256 -103 256 -249zM463 238c0 90 -56 171 -158 171c-101 0 -158 -81 -158 -171s57 -172 158 -172c102 0 158 82 158 172zM187 572h-55c10 58 34 116 102 116c25 0 52 -9 75 -20
c26 -12 49 -22 67 -22c29 0 41 23 48 46h54c-10 -58 -34 -116 -102 -116c-25 0 -53 10 -77 21c-24 12 -46 21 -65 21c-28 0 -41 -23 -47 -46z" />
    <glyph glyph-name="odieresis" unicode="&#xf6;" horiz-adv-x="611" 
d="M561 238c0 -146 -111 -251 -256 -251s-255 105 -255 251s110 249 255 249s256 -103 256 -249zM463 238c0 90 -56 171 -158 171c-101 0 -158 -81 -158 -171s57 -172 158 -172c102 0 158 82 158 172zM146 645c0 32 26 61 62 61c35 0 62 -27 62 -61c0 -33 -27 -60 -62 -60
c-36 0 -62 29 -62 60zM340 645c0 32 26 61 62 61c35 0 62 -27 62 -61c0 -33 -27 -60 -62 -60c-36 0 -62 29 -62 60z" />
    <glyph glyph-name="divide" unicode="&#xf7;" horiz-adv-x="666" 
d="M596 344v-82h-526v82h526zM398 132c0 -35 -28 -65 -65 -65s-65 30 -65 65c0 34 28 65 65 65s65 -31 65 -65zM398 469c0 -35 -28 -65 -65 -65s-65 30 -65 65c0 34 28 65 65 65s65 -31 65 -65z" />
    <glyph glyph-name="oslash" unicode="&#xf8;" horiz-adv-x="611" 
d="M561 238c0 -146 -111 -251 -256 -251c-46 0 -88 11 -125 29l-58 -76l-55 36l59 78c-47 45 -76 109 -76 184c0 146 110 249 255 249c47 0 90 -11 128 -31l55 73l54 -38l-56 -73c47 -44 75 -107 75 -180zM147 238c0 -41 12 -81 34 -112l201 264c-22 12 -48 19 -77 19
c-101 0 -158 -81 -158 -171zM463 238c0 39 -11 77 -32 107l-200 -262c21 -11 46 -17 74 -17c102 0 158 82 158 172z" />
    <glyph glyph-name="ugrave" unicode="&#xf9;" horiz-adv-x="604" 
d="M81 214v260h94v-259c0 -77 29 -149 121 -149c91 0 133 80 133 168v240h94v-474h-91v74h-4c-24 -41 -83 -87 -158 -87c-138 0 -189 104 -189 227zM275 564l-136 144h113l100 -144h-77z" />
    <glyph glyph-name="uacute" unicode="&#xfa;" horiz-adv-x="604" 
d="M81 214v260h94v-259c0 -77 29 -149 121 -149c91 0 133 80 133 168v240h94v-474h-91v74h-4c-24 -41 -83 -87 -158 -87c-138 0 -189 104 -189 227zM465 708l-136 -144h-77l100 144h113z" />
    <glyph glyph-name="ucircumflex" unicode="&#xfb;" horiz-adv-x="604" 
d="M81 214v260h94v-259c0 -77 29 -149 121 -149c91 0 133 80 133 168v240h94v-474h-91v74h-4c-24 -41 -83 -87 -158 -87c-138 0 -189 104 -189 227zM356 708l112 -144h-91l-75 99l-76 -99h-90l112 144h108z" />
    <glyph glyph-name="udieresis" unicode="&#xfc;" horiz-adv-x="604" 
d="M81 214v260h94v-259c0 -77 29 -149 121 -149c91 0 133 80 133 168v240h94v-474h-91v74h-4c-24 -41 -83 -87 -158 -87c-138 0 -189 104 -189 227zM143 645c0 32 26 61 62 61c35 0 62 -27 62 -61c0 -33 -27 -60 -62 -60c-36 0 -62 29 -62 60zM337 645c0 32 26 61 62 61
c35 0 62 -27 62 -61c0 -33 -27 -60 -62 -60c-36 0 -62 29 -62 60z" />
    <glyph glyph-name="yacute" unicode="&#xfd;" horiz-adv-x="504" 
d="M114 474l147 -372h2l131 372h100l-230 -586c-31 -79 -71 -128 -164 -128c-20 0 -41 0 -62 2v83c15 -2 41 -3 56 -3c49 0 68 28 88 79l30 79l-203 474h105zM403 708l-136 -144h-77l100 144h113z" />
    <glyph glyph-name="thorn" unicode="&#xfe;" horiz-adv-x="636" 
d="M175 71v-311h-93v996h93v-356h3c29 50 91 87 169 87c141 0 237 -109 237 -249c0 -139 -93 -251 -239 -251c-67 0 -132 31 -167 84h-3zM487 238c0 89 -55 171 -158 171c-96 0 -160 -81 -160 -172s64 -171 160 -171c103 0 158 83 158 172z" />
    <glyph glyph-name="ydieresis" unicode="&#xff;" horiz-adv-x="504" 
d="M114 474l147 -372h2l131 372h100l-230 -586c-31 -79 -71 -128 -164 -128c-20 0 -41 0 -62 2v83c15 -2 41 -3 56 -3c49 0 68 28 88 79l30 79l-203 474h105zM93 645c0 32 26 61 62 61c35 0 62 -27 62 -61c0 -33 -27 -60 -62 -60c-36 0 -62 29 -62 60zM287 645
c0 32 26 61 62 61c35 0 62 -27 62 -61c0 -33 -27 -60 -62 -60c-36 0 -62 29 -62 60z" />
    <glyph glyph-name="Amacron" unicode="&#x100;" horiz-adv-x="711" 
d="M186 174l-71 -174h-110l307 708h90l304 -708h-112l-72 174h-336zM354 593l-133 -332h265zM503 864v-67h-296v67h296z" />
    <glyph glyph-name="amacron" unicode="&#x101;" horiz-adv-x="552" 
d="M376 179v31c-38 8 -82 14 -122 14c-79 0 -112 -35 -112 -87s39 -75 96 -75c69 0 138 40 138 117zM46 135c0 86 53 157 211 157c43 0 88 -7 119 -13v23c0 70 -32 108 -120 108c-60 0 -106 -24 -137 -58l-56 63c48 46 101 72 196 72c140 0 207 -52 207 -200v-287h-89v63h-3
c-30 -49 -89 -75 -155 -75c-92 0 -173 46 -173 147zM424 664v-67h-296v67h296z" />
    <glyph glyph-name="Abreve" unicode="&#x102;" horiz-adv-x="711" 
d="M186 174l-71 -174h-110l307 708h90l304 -708h-112l-72 174h-336zM354 593l-133 -332h265zM459 908h55c-8 -91 -71 -138 -159 -138c-89 0 -153 46 -159 138h56c9 -51 53 -72 103 -72c54 0 92 18 104 72z" />
    <glyph glyph-name="abreve" unicode="&#x103;" horiz-adv-x="552" 
d="M376 179v31c-38 8 -82 14 -122 14c-79 0 -112 -35 -112 -87s39 -75 96 -75c69 0 138 40 138 117zM46 135c0 86 53 157 211 157c43 0 88 -7 119 -13v23c0 70 -32 108 -120 108c-60 0 -106 -24 -137 -58l-56 63c48 46 101 72 196 72c140 0 207 -52 207 -200v-287h-89v63h-3
c-30 -49 -89 -75 -155 -75c-92 0 -173 46 -173 147zM380 708h55c-8 -91 -71 -138 -159 -138c-89 0 -153 46 -159 138h56c9 -51 53 -72 103 -72c54 0 92 18 104 72z" />
    <glyph glyph-name="Aogonek" unicode="&#x104;" horiz-adv-x="711" 
d="M676 -136l22 -53c-26 -22 -60 -37 -95 -37c-50 0 -97 33 -97 87s47 106 88 139l-72 174h-336l-71 -174h-110l307 708h90l304 -708h-57c-34 -34 -66 -75 -66 -115c0 -28 16 -42 42 -42c17 0 37 10 51 21zM354 593l-133 -332h265z" />
    <glyph glyph-name="aogonek" unicode="&#x105;" horiz-adv-x="552" 
d="M459 -136l22 -53c-26 -22 -60 -37 -95 -37c-50 0 -97 33 -97 87s47 106 88 139v63h-3c-30 -49 -89 -75 -155 -75c-92 0 -173 46 -173 147c0 86 53 157 211 157c43 0 88 -7 119 -13v23c0 70 -32 108 -120 108c-60 0 -106 -24 -137 -58l-56 63c48 46 101 72 196 72
c140 0 207 -52 207 -200v-287h-34c-34 -34 -66 -75 -66 -115c0 -28 16 -42 42 -42c17 0 37 10 51 21zM376 179v31c-38 8 -82 14 -122 14c-79 0 -112 -35 -112 -87s39 -75 96 -75c69 0 138 40 138 117z" />
    <glyph glyph-name="Cacute" unicode="&#x106;" horiz-adv-x="708" 
d="M614 164l79 -54c-55 -75 -146 -128 -270 -128c-217 0 -373 155 -373 373c0 221 162 371 377 371c97 0 202 -38 254 -110l-78 -60c-34 48 -103 83 -176 83c-164 0 -269 -129 -269 -284c0 -159 103 -285 266 -285c79 0 148 33 190 94zM582 908l-137 -144h-76l99 144h114z
" />
    <glyph glyph-name="cacute" unicode="&#x107;" horiz-adv-x="521" 
d="M304 487c81 0 148 -35 186 -89l-61 -49c-24 26 -56 60 -126 60c-96 0 -156 -77 -156 -170c0 -90 59 -173 157 -173c73 0 125 48 141 69l59 -56c-38 -41 -103 -92 -202 -92c-151 0 -252 115 -252 252c0 140 107 248 254 248zM454 708l-136 -144h-77l100 144h113z" />
    <glyph glyph-name="Ccircumflex" unicode="&#x108;" horiz-adv-x="708" 
d="M614 164l79 -54c-55 -75 -146 -128 -270 -128c-217 0 -373 155 -373 373c0 221 162 371 377 371c97 0 202 -38 254 -110l-78 -60c-34 48 -103 83 -176 83c-164 0 -269 -129 -269 -284c0 -159 103 -285 266 -285c79 0 148 33 190 94zM456 908l112 -144h-91l-75 99l-76 -99
h-90l112 144h108z" />
    <glyph glyph-name="ccircumflex" unicode="&#x109;" horiz-adv-x="521" 
d="M304 487c81 0 148 -35 186 -89l-61 -49c-24 26 -56 60 -126 60c-96 0 -156 -77 -156 -170c0 -90 59 -173 157 -173c73 0 125 48 141 69l59 -56c-38 -41 -103 -92 -202 -92c-151 0 -252 115 -252 252c0 140 107 248 254 248zM345 708l112 -144h-91l-75 99l-76 -99h-90
l112 144h108z" />
    <glyph glyph-name="Cdotaccent" unicode="&#x10a;" horiz-adv-x="708" 
d="M614 164l79 -54c-55 -75 -146 -128 -270 -128c-217 0 -373 155 -373 373c0 221 162 371 377 371c97 0 202 -38 254 -110l-78 -60c-34 48 -103 83 -176 83c-164 0 -269 -129 -269 -284c0 -159 103 -285 266 -285c79 0 148 33 190 94zM475 845c0 -34 -29 -60 -63 -60
s-62 27 -62 60c0 34 28 61 62 61s63 -26 63 -61z" />
    <glyph glyph-name="cdotaccent" unicode="&#x10b;" horiz-adv-x="521" 
d="M304 487c81 0 148 -35 186 -89l-61 -49c-24 26 -56 60 -126 60c-96 0 -156 -77 -156 -170c0 -90 59 -173 157 -173c73 0 125 48 141 69l59 -56c-38 -41 -103 -92 -202 -92c-151 0 -252 115 -252 252c0 140 107 248 254 248zM357 645c0 -34 -29 -60 -63 -60s-62 27 -62 60
c0 34 28 61 62 61s63 -26 63 -61z" />
    <glyph glyph-name="Ccaron" unicode="&#x10c;" horiz-adv-x="708" 
d="M614 164l79 -54c-55 -75 -146 -128 -270 -128c-217 0 -373 155 -373 373c0 221 162 371 377 371c97 0 202 -38 254 -110l-78 -60c-34 48 -103 83 -176 83c-164 0 -269 -129 -269 -284c0 -159 103 -285 266 -285c79 0 148 33 190 94zM580 908l-112 -144h-107l-111 144h90
l76 -99l76 99h88z" />
    <glyph glyph-name="ccaron" unicode="&#x10d;" horiz-adv-x="521" 
d="M304 487c81 0 148 -35 186 -89l-61 -49c-24 26 -56 60 -126 60c-96 0 -156 -77 -156 -170c0 -90 59 -173 157 -173c73 0 125 48 141 69l59 -56c-38 -41 -103 -92 -202 -92c-151 0 -252 115 -252 252c0 140 107 248 254 248zM451 708l-112 -144h-107l-111 144h90l76 -99
l76 99h88z" />
    <glyph glyph-name="Dcaron" unicode="&#x10e;" horiz-adv-x="761" 
d="M86 0v708h243c181 0 382 -103 382 -354c0 -242 -201 -354 -382 -354h-243zM185 622v-535h124c171 0 296 98 296 267c0 175 -125 268 -296 268h-124zM545 908l-112 -144h-107l-111 144h90l76 -99l76 99h88z" />
    <glyph glyph-name="dcaron" unicode="&#x10f;" horiz-adv-x="673" 
d="M459 75c-36 -57 -104 -88 -171 -88c-146 0 -239 112 -239 251c0 140 96 249 238 249c77 0 136 -38 169 -84h2v353h94v-756h-91v75h-2zM147 238c0 -89 54 -172 157 -172c96 0 160 80 160 171s-64 172 -160 172c-103 0 -157 -82 -157 -171zM739 708l-78 -190h-79l64 190h93
z" />
    <glyph glyph-name="Dcroat" unicode="&#x110;" horiz-adv-x="761" 
d="M86 0v335h-73v70h73v303h243c181 0 382 -103 382 -354c0 -242 -201 -354 -382 -354h-243zM185 622v-217h234v-70h-234v-248h124c171 0 296 98 296 267c0 175 -125 268 -296 268h-124z" />
    <glyph glyph-name="dcroat" unicode="&#x111;" horiz-adv-x="635" 
d="M459 75c-36 -57 -104 -88 -171 -88c-146 0 -239 112 -239 251c0 140 96 249 238 249c77 0 136 -38 169 -84h2v194h-197v67h197v92h94v-92h60v-67h-60v-597h-91v75h-2zM147 238c0 -89 54 -172 157 -172c96 0 160 80 160 171s-64 172 -160 172c-103 0 -157 -82 -157 -171z
" />
    <glyph glyph-name="Emacron" unicode="&#x112;" horiz-adv-x="621" 
d="M575 0h-489v708h482v-87h-383v-218h312v-85h-312v-230h390v-88zM483 864v-67h-296v67h296z" />
    <glyph glyph-name="emacron" unicode="&#x113;" horiz-adv-x="572" 
d="M520 210h-378c11 -93 73 -144 162 -144c77 0 128 45 152 74l60 -50c-38 -53 -121 -103 -223 -103c-137 0 -242 98 -242 237c0 144 104 263 249 263c147 0 222 -121 222 -227c0 -18 -1 -34 -2 -50zM295 409c-81 0 -139 -54 -152 -131h293c0 72 -63 131 -141 131zM434 664
v-67h-296v67h296z" />
    <glyph glyph-name="Ebreve" unicode="&#x114;" horiz-adv-x="621" 
d="M575 0h-489v708h482v-87h-383v-218h312v-85h-312v-230h390v-88zM439 908h55c-8 -91 -71 -138 -159 -138c-89 0 -153 46 -159 138h56c9 -51 53 -72 103 -72c54 0 92 18 104 72z" />
    <glyph glyph-name="ebreve" unicode="&#x115;" horiz-adv-x="572" 
d="M520 210h-378c11 -93 73 -144 162 -144c77 0 128 45 152 74l60 -50c-38 -53 -121 -103 -223 -103c-137 0 -242 98 -242 237c0 144 104 263 249 263c147 0 222 -121 222 -227c0 -18 -1 -34 -2 -50zM295 409c-81 0 -139 -54 -152 -131h293c0 72 -63 131 -141 131zM390 708
h55c-8 -91 -71 -138 -159 -138c-89 0 -153 46 -159 138h56c9 -51 53 -72 103 -72c54 0 92 18 104 72z" />
    <glyph glyph-name="Edotaccent" unicode="&#x116;" horiz-adv-x="621" 
d="M575 0h-489v708h482v-87h-383v-218h312v-85h-312v-230h390v-88zM398 845c0 -34 -29 -60 -63 -60s-62 27 -62 60c0 34 28 61 62 61s63 -26 63 -61z" />
    <glyph glyph-name="edotaccent" unicode="&#x117;" horiz-adv-x="572" 
d="M520 210h-378c11 -93 73 -144 162 -144c77 0 128 45 152 74l60 -50c-38 -53 -121 -103 -223 -103c-137 0 -242 98 -242 237c0 144 104 263 249 263c147 0 222 -121 222 -227c0 -18 -1 -34 -2 -50zM295 409c-81 0 -139 -54 -152 -131h293c0 72 -63 131 -141 131zM358 645
c0 -34 -29 -60 -63 -60s-62 27 -62 60c0 34 28 61 62 61s63 -26 63 -61z" />
    <glyph glyph-name="Eogonek" unicode="&#x118;" horiz-adv-x="621" 
d="M563 -136l22 -53c-26 -22 -60 -37 -95 -37c-50 0 -97 33 -97 87s47 106 87 139h-394v708h482v-87h-383v-218h312v-85h-312v-230h390v-88h-39c-34 -34 -66 -75 -66 -115c0 -28 16 -42 42 -42c17 0 37 10 51 21z" />
    <glyph glyph-name="eogonek" unicode="&#x119;" horiz-adv-x="572" 
d="M520 210h-378c11 -93 73 -144 162 -144c77 0 128 45 152 74l60 -50c-38 -53 -121 -103 -223 -103c-137 0 -242 98 -242 237c0 144 104 263 249 263c147 0 222 -121 222 -227c0 -18 -1 -34 -2 -50zM295 409c-81 0 -139 -54 -152 -131h293c0 72 -63 131 -141 131zM500 -136
l22 -53c-26 -22 -60 -37 -95 -37c-50 0 -97 33 -97 87c0 57 53 112 95 145h54c-36 -35 -72 -79 -72 -121c0 -28 16 -42 42 -42c17 0 37 10 51 21z" />
    <glyph glyph-name="Ecaron" unicode="&#x11a;" horiz-adv-x="621" 
d="M575 0h-489v708h482v-87h-383v-218h312v-85h-312v-230h390v-88zM497 908l-112 -144h-107l-111 144h90l76 -99l76 99h88z" />
    <glyph glyph-name="ecaron" unicode="&#x11b;" horiz-adv-x="572" 
d="M520 210h-378c11 -93 73 -144 162 -144c77 0 128 45 152 74l60 -50c-38 -53 -121 -103 -223 -103c-137 0 -242 98 -242 237c0 144 104 263 249 263c147 0 222 -121 222 -227c0 -18 -1 -34 -2 -50zM295 409c-81 0 -139 -54 -152 -131h293c0 72 -63 131 -141 131zM451 708
l-112 -144h-107l-111 144h90l76 -99l76 99h88z" />
    <glyph glyph-name="Gcircumflex" unicode="&#x11c;" horiz-adv-x="778" 
d="M689 634l-69 -72c-42 46 -111 77 -192 77c-166 0 -270 -129 -270 -284c0 -158 104 -284 273 -284c66 0 124 13 165 35v197h-157v84h255v-343c-74 -40 -162 -62 -266 -62c-221 0 -378 155 -378 373c0 221 162 371 377 371c112 0 204 -36 262 -92zM465 908l112 -144h-91
l-75 99l-76 -99h-90l112 144h108z" />
    <glyph glyph-name="gcircumflex" unicode="&#x11d;" horiz-adv-x="632" 
d="M58 -154l60 73c41 -46 108 -77 173 -77c125 0 167 77 167 175v61h-2c-35 -53 -100 -82 -167 -82c-145 0 -239 108 -239 244s93 247 238 247c68 0 135 -30 171 -89h2v76h91v-450c0 -138 -65 -264 -262 -264c-82 0 -173 32 -232 86zM147 242c0 -87 58 -167 157 -167
c97 0 161 73 161 167c0 90 -65 167 -161 167c-99 0 -157 -76 -157 -167zM370 708l112 -144h-91l-75 99l-76 -99h-90l112 144h108z" />
    <glyph glyph-name="Gbreve" unicode="&#x11e;" horiz-adv-x="778" 
d="M689 634l-69 -72c-42 46 -111 77 -192 77c-166 0 -270 -129 -270 -284c0 -158 104 -284 273 -284c66 0 124 13 165 35v197h-157v84h255v-343c-74 -40 -162 -62 -266 -62c-221 0 -378 155 -378 373c0 221 162 371 377 371c112 0 204 -36 262 -92zM527 908h55
c-8 -91 -71 -138 -159 -138c-89 0 -153 46 -159 138h56c9 -51 53 -72 103 -72c54 0 92 18 104 72z" />
    <glyph glyph-name="gbreve" unicode="&#x11f;" horiz-adv-x="632" 
d="M58 -154l60 73c41 -46 108 -77 173 -77c125 0 167 77 167 175v61h-2c-35 -53 -100 -82 -167 -82c-145 0 -239 108 -239 244s93 247 238 247c68 0 135 -30 171 -89h2v76h91v-450c0 -138 -65 -264 -262 -264c-82 0 -173 32 -232 86zM147 242c0 -87 58 -167 157 -167
c97 0 161 73 161 167c0 90 -65 167 -161 167c-99 0 -157 -76 -157 -167zM420 708h55c-8 -91 -71 -138 -159 -138c-89 0 -153 46 -159 138h56c9 -51 53 -72 103 -72c54 0 92 18 104 72z" />
    <glyph glyph-name="Gdotaccent" unicode="&#x120;" horiz-adv-x="778" 
d="M689 634l-69 -72c-42 46 -111 77 -192 77c-166 0 -270 -129 -270 -284c0 -158 104 -284 273 -284c66 0 124 13 165 35v197h-157v84h255v-343c-74 -40 -162 -62 -266 -62c-221 0 -378 155 -378 373c0 221 162 371 377 371c112 0 204 -36 262 -92zM482 845
c0 -34 -29 -60 -63 -60s-62 27 -62 60c0 34 28 61 62 61s63 -26 63 -61z" />
    <glyph glyph-name="gdotaccent" unicode="&#x121;" horiz-adv-x="632" 
d="M58 -154l60 73c41 -46 108 -77 173 -77c125 0 167 77 167 175v61h-2c-35 -53 -100 -82 -167 -82c-145 0 -239 108 -239 244s93 247 238 247c68 0 135 -30 171 -89h2v76h91v-450c0 -138 -65 -264 -262 -264c-82 0 -173 32 -232 86zM147 242c0 -87 58 -167 157 -167
c97 0 161 73 161 167c0 90 -65 167 -161 167c-99 0 -157 -76 -157 -167zM378 645c0 -34 -29 -60 -63 -60s-62 27 -62 60c0 34 28 61 62 61s63 -26 63 -61z" />
    <glyph glyph-name="Gcommaaccent" unicode="&#x122;" horiz-adv-x="778" 
d="M689 634l-69 -72c-42 46 -111 77 -192 77c-166 0 -270 -129 -270 -284c0 -158 104 -284 273 -284c66 0 124 13 165 35v197h-157v84h255v-343c-74 -40 -162 -62 -266 -62c-221 0 -378 155 -378 373c0 221 162 371 377 371c112 0 204 -36 262 -92zM339 -102
c0 36 24 57 55 57c25 0 55 -14 55 -61c0 -49 -34 -101 -71 -134l-49 25c13 14 32 48 36 64c-15 9 -26 25 -26 49z" />
    <glyph glyph-name="gcommaaccent" unicode="&#x123;" horiz-adv-x="632" 
d="M58 -154l60 73c41 -46 108 -77 173 -77c125 0 167 77 167 175v61h-2c-35 -53 -100 -82 -167 -82c-145 0 -239 108 -239 244s93 247 238 247c68 0 135 -30 171 -89h2v76h91v-450c0 -138 -65 -264 -262 -264c-82 0 -173 32 -232 86zM147 242c0 -87 58 -167 157 -167
c97 0 161 73 161 167c0 90 -65 167 -161 167c-99 0 -157 -76 -157 -167zM366 588c0 -36 -24 -57 -55 -57c-25 0 -55 14 -55 61c0 49 34 101 71 134l49 -25c-13 -14 -32 -48 -36 -64c15 -9 26 -25 26 -49z" />
    <glyph glyph-name="Hcircumflex" unicode="&#x124;" horiz-adv-x="752" 
d="M566 0v318h-381v-318h-99v708h99v-302h381v302h100v-708h-100zM430 908l112 -144h-91l-75 99l-76 -99h-90l112 144h108z" />
    <glyph glyph-name="hcircumflex" unicode="&#x125;" horiz-adv-x="614" 
d="M533 263v-263h-94v262c0 77 -30 149 -118 149c-87 0 -146 -72 -146 -171v-240h-94v756h94v-360h4c22 45 83 91 164 91c137 0 190 -101 190 -224zM181 928l112 -144h-91l-75 99l-76 -99h-90l112 144h108z" />
    <glyph glyph-name="Hbar" unicode="&#x126;" horiz-adv-x="752" 
d="M566 0v318h-381v-318h-99v530h-58v67h58v111h99v-111h381v111h100v-111h58v-67h-58v-530h-100zM185 406h381v124h-381v-124z" />
    <glyph glyph-name="hbar" unicode="&#x127;" horiz-adv-x="614" 
d="M533 263v-263h-94v262c0 77 -30 149 -118 149c-87 0 -146 -72 -146 -171v-240h-94v597h-60v67h60v92h94v-92h197v-67h-197v-201h4c22 45 83 91 164 91c137 0 190 -101 190 -224z" />
    <glyph glyph-name="Itilde" unicode="&#x128;" horiz-adv-x="271" 
d="M185 708v-708h-99v708h99zM17 772h-55c10 58 34 116 102 116c25 0 52 -9 75 -20c26 -12 49 -22 67 -22c29 0 41 23 48 46h54c-10 -58 -34 -116 -102 -116c-25 0 -53 10 -77 21c-24 12 -46 21 -65 21c-28 0 -41 -23 -47 -46z" />
    <glyph glyph-name="itilde" unicode="&#x129;" horiz-adv-x="258" 
d="M82 0v474h94v-474h-94zM11 572h-55c10 58 34 116 102 116c25 0 52 -9 75 -20c26 -12 49 -22 67 -22c29 0 41 23 48 46h54c-10 -58 -34 -116 -102 -116c-25 0 -53 10 -77 21c-24 12 -46 21 -65 21c-28 0 -41 -23 -47 -46z" />
    <glyph glyph-name="Imacron" unicode="&#x12a;" horiz-adv-x="271" 
d="M185 708v-708h-99v708h99zM283 864v-67h-296v67h296z" />
    <glyph glyph-name="imacron" unicode="&#x12b;" horiz-adv-x="258" 
d="M82 0v474h94v-474h-94zM277 664v-67h-296v67h296z" />
    <glyph glyph-name="Ibreve" unicode="&#x12c;" horiz-adv-x="271" 
d="M185 708v-708h-99v708h99zM239 908h55c-8 -91 -71 -138 -159 -138c-89 0 -153 46 -159 138h56c9 -51 53 -72 103 -72c54 0 92 18 104 72z" />
    <glyph glyph-name="ibreve" unicode="&#x12d;" horiz-adv-x="258" 
d="M82 0v474h94v-474h-94zM233 708h55c-8 -91 -71 -138 -159 -138c-89 0 -153 46 -159 138h56c9 -51 53 -72 103 -72c54 0 92 18 104 72z" />
    <glyph glyph-name="Iogonek" unicode="&#x12e;" horiz-adv-x="271" 
d="M169 -136l22 -53c-26 -22 -60 -37 -95 -37c-50 0 -97 33 -97 87s47 106 87 139v708h99v-708h-43c-34 -34 -66 -75 -66 -115c0 -28 16 -42 42 -42c17 0 37 10 51 21z" />
    <glyph glyph-name="iogonek" unicode="&#x12f;" horiz-adv-x="258" 
d="M82 0v474h94v-474h-37c-34 -34 -66 -75 -66 -115c0 -28 16 -42 42 -42c17 0 37 10 51 21l22 -53c-26 -22 -60 -37 -95 -37c-50 0 -97 33 -97 87s47 106 87 139h-1zM68 661c0 35 26 63 61 63c36 0 63 -28 63 -63s-27 -61 -63 -61c-35 0 -61 26 -61 61z" />
    <glyph glyph-name="Idotaccent" unicode="&#x130;" horiz-adv-x="271" 
d="M185 708v-708h-99v708h99zM198 845c0 -34 -29 -60 -63 -60s-62 27 -62 60c0 34 28 61 62 61s63 -26 63 -61z" />
    <glyph glyph-name="dotlessi" unicode="&#x131;" horiz-adv-x="258" 
d="M82 0v474h94v-474h-94z" />
    <glyph glyph-name="i.locl" horiz-adv-x="258" 
d="M82 0v474h94v-474h-94zM68 661c0 35 26 63 61 63c36 0 63 -28 63 -63s-27 -61 -63 -61c-35 0 -61 26 -61 61z" />
    <glyph glyph-name="IJ" unicode="&#x132;" horiz-adv-x="721" 
d="M185 708v-708h-99v708h99zM464 70c46 0 78 38 78 90v548h99v-547c0 -102 -70 -179 -178 -179c-105 0 -171 69 -171 175v35h93v-35c0 -52 31 -87 79 -87z" />
    <glyph glyph-name="ij" unicode="&#x133;" horiz-adv-x="516" 
d="M82 0v474h94v-474h-94zM68 661c0 35 26 63 61 63c36 0 63 -28 63 -63s-27 -61 -63 -61c-35 0 -61 26 -61 61zM434 474v-552c0 -147 -100 -162 -172 -162h-30v78h14c61 0 95 8 95 103v533h93zM326 661c0 35 26 63 61 63c36 0 63 -28 63 -63s-27 -61 -63 -61
c-35 0 -61 26 -61 61z" />
    <glyph glyph-name="Jcircumflex" unicode="&#x134;" horiz-adv-x="450" 
d="M193 70c46 0 78 38 78 90v548h99v-547c0 -102 -70 -179 -178 -179c-105 0 -171 69 -171 175v35h93v-35c0 -52 31 -87 79 -87zM374 908l112 -144h-91l-75 99l-76 -99h-90l112 144h108z" />
    <glyph glyph-name="jcircumflex" unicode="&#x135;" horiz-adv-x="258" 
d="M176 474v-552c0 -147 -100 -162 -172 -162h-30v78h14c61 0 95 8 95 103v533h93zM183 708l112 -144h-91l-75 99l-76 -99h-90l112 144h108z" />
    <glyph glyph-name="Kcommaaccent" unicode="&#x136;" horiz-adv-x="659" 
d="M651 708l-275 -303l285 -405h-123l-229 332l-124 -134v-198h-99v708h99v-392l340 392h126zM279 -102c0 36 24 57 55 57c25 0 55 -14 55 -61c0 -49 -34 -101 -71 -134l-49 25c13 14 32 48 36 64c-15 9 -26 25 -26 49z" />
    <glyph glyph-name="kcommaaccent" unicode="&#x137;" horiz-adv-x="527" 
d="M404 0l-147 241l-80 -77v-164h-94v756h94v-488h3l199 206h126l-180 -174l199 -300h-120zM213 -102c0 36 24 57 55 57c25 0 55 -14 55 -61c0 -49 -34 -101 -71 -134l-49 25c13 14 32 48 36 64c-15 9 -26 25 -26 49z" />
    <glyph glyph-name="kgreenlandic.case" horiz-adv-x="741" 
d="M651 708l-275 -303l285 -405h-123l-229 332l-124 -134v-198h-99v708h99v-392l340 392h126zM749 520c0 -39 -27 -62 -61 -62c-28 0 -61 17 -61 66c0 57 58 163 86 202l59 -32c-18 -33 -51 -97 -55 -115c18 -13 32 -30 32 -59z" />
    <glyph glyph-name="kgreenlandic" unicode="&#x138;" horiz-adv-x="527" 
d="M404 0l-146 228l-81 -78v-150h-94v474h94v-220h3l204 220h121l-180 -186l199 -288h-120z" />
    <glyph glyph-name="Lacute" unicode="&#x139;" horiz-adv-x="511" 
d="M185 708v-620h316v-88h-415v708h99zM313 908l-137 -144h-76l99 144h114z" />
    <glyph glyph-name="lacute" unicode="&#x13a;" horiz-adv-x="260" 
d="M177 756v-756h-94v756h94zM301 928l-136 -144h-77l100 144h113z" />
    <glyph glyph-name="Lcommaaccent" unicode="&#x13b;" horiz-adv-x="511" 
d="M185 708v-620h316v-88h-415v708h99zM205 -102c0 36 24 57 55 57c25 0 55 -14 55 -61c0 -49 -34 -101 -71 -134l-49 25c13 14 32 48 36 64c-15 9 -26 25 -26 49z" />
    <glyph glyph-name="lcommaaccent" unicode="&#x13c;" horiz-adv-x="260" 
d="M177 756v-756h-94v756h94zM80 -102c0 36 24 57 55 57c25 0 55 -14 55 -61c0 -49 -34 -101 -71 -134l-49 25c13 14 32 48 36 64c-15 9 -26 25 -26 49z" />
    <glyph glyph-name="Lcaron" unicode="&#x13d;" horiz-adv-x="511" 
d="M185 708v-620h316v-88h-415v708h99zM374 708l-78 -190h-79l64 190h93z" />
    <glyph glyph-name="lcaron" unicode="&#x13e;" horiz-adv-x="288" 
d="M177 756v-756h-94v756h94zM354 708l-78 -190h-79l64 190h93z" />
    <glyph glyph-name="Ldot" unicode="&#x13f;" horiz-adv-x="511" 
d="M185 708v-620h316v-88h-415v708h99zM452 361c0 -35 -29 -66 -67 -66s-68 30 -68 65c0 36 29 67 68 67c37 0 67 -30 67 -66z" />
    <glyph glyph-name="ldot" unicode="&#x140;" horiz-adv-x="353" 
d="M177 756v-756h-94v756h94zM353 303c0 -35 -29 -66 -67 -66s-68 30 -68 65c0 36 29 67 68 67c37 0 67 -30 67 -66z" />
    <glyph glyph-name="Lslash" unicode="&#x141;" horiz-adv-x="511" 
d="M185 708v-323l211 184v-90l-211 -184v-207h316v-88h-415v221l-76 -66v91l76 65v397h99z" />
    <glyph glyph-name="lslash" unicode="&#x142;" horiz-adv-x="260" 
d="M176 756v-276l75 76v-90l-75 -75v-391h-93v314l-75 -76v92l75 75v351h93z" />
    <glyph glyph-name="Nacute" unicode="&#x143;" horiz-adv-x="745" 
d="M86 0v708h95l383 -547v547h95v-708h-95l-383 546v-546h-95zM521 908l-137 -144h-76l99 144h114z" />
    <glyph glyph-name="nacute" unicode="&#x144;" horiz-adv-x="614" 
d="M533 263v-263h-94v262c0 77 -30 149 -118 149c-87 0 -146 -72 -146 -171v-240h-94v474h92v-78h4c22 45 85 91 166 91c137 0 190 -101 190 -224zM452 708l-136 -144h-77l100 144h113z" />
    <glyph glyph-name="Ncommaaccent" unicode="&#x145;" horiz-adv-x="745" 
d="M86 0v708h95l383 -547v547h95v-708h-95l-383 546v-546h-95zM322 -102c0 36 24 57 55 57c25 0 55 -14 55 -61c0 -49 -34 -101 -71 -134l-49 25c13 14 32 48 36 64c-15 9 -26 25 -26 49z" />
    <glyph glyph-name="ncommaaccent" unicode="&#x146;" horiz-adv-x="614" 
d="M533 263v-263h-94v262c0 77 -30 149 -118 149c-87 0 -146 -72 -146 -171v-240h-94v474h92v-78h4c22 45 85 91 166 91c137 0 190 -101 190 -224zM257 -102c0 36 24 57 55 57c25 0 55 -14 55 -61c0 -49 -34 -101 -71 -134l-49 25c13 14 32 48 36 64c-15 9 -26 25 -26 49z
" />
    <glyph glyph-name="Ncaron" unicode="&#x147;" horiz-adv-x="745" 
d="M86 0v708h95l383 -547v547h95v-708h-95l-383 546v-546h-95zM537 908l-112 -144h-107l-111 144h90l76 -99l76 99h88z" />
    <glyph glyph-name="ncaron" unicode="&#x148;" horiz-adv-x="614" 
d="M533 263v-263h-94v262c0 77 -30 149 -118 149c-87 0 -146 -72 -146 -171v-240h-94v474h92v-78h4c22 45 85 91 166 91c137 0 190 -101 190 -224zM472 708l-112 -144h-107l-111 144h90l76 -99l76 99h88z" />
    <glyph glyph-name="napostrophe.case" horiz-adv-x="745" 
d="M86 0v708h95l383 -547v547h95v-708h-95l-383 546v-546h-95zM106 907c0 36 24 57 55 57c25 0 55 -14 55 -61c0 -49 -34 -101 -71 -134l-49 25c13 14 32 48 36 64c-15 9 -26 25 -26 49z" />
    <glyph glyph-name="napostrophe" unicode="&#x149;" horiz-adv-x="614" 
d="M533 263v-263h-94v262c0 77 -30 149 -118 149c-87 0 -146 -72 -146 -171v-240h-94v474h92v-78h4c22 45 85 91 166 91c137 0 190 -101 190 -224zM86 669c0 36 24 57 55 57c25 0 55 -14 55 -61c0 -49 -34 -101 -71 -134l-49 25c13 14 32 48 36 64c-15 9 -26 25 -26 49z" />
    <glyph glyph-name="Eng" unicode="&#x14a;" horiz-adv-x="745" 
d="M86 0v708h95l383 -547v547h95v-786c0 -147 -100 -162 -172 -162h-30v78h14c61 0 94 8 94 103v56l-384 549v-546h-95z" />
    <glyph glyph-name="eng" unicode="&#x14b;" horiz-adv-x="614" 
d="M533 263v-341c0 -147 -100 -162 -172 -162h-30v78h14c61 0 94 8 94 103v321c0 77 -30 149 -118 149c-87 0 -146 -72 -146 -171v-240h-94v474h92v-78h4c22 45 85 91 166 91c137 0 190 -101 190 -224z" />
    <glyph glyph-name="Omacron" unicode="&#x14c;" horiz-adv-x="849" 
d="M800 355c0 -218 -160 -373 -376 -373c-215 0 -374 155 -374 373c0 221 159 371 374 371c216 0 376 -150 376 -371zM693 355c0 155 -104 284 -269 284c-163 0 -267 -129 -267 -284c0 -158 105 -284 267 -284c164 0 269 126 269 284zM572 864v-67h-296v67h296z" />
    <glyph glyph-name="omacron" unicode="&#x14d;" horiz-adv-x="611" 
d="M561 238c0 -146 -111 -251 -256 -251s-255 105 -255 251s110 249 255 249s256 -103 256 -249zM463 238c0 90 -56 171 -158 171c-101 0 -158 -81 -158 -171s57 -172 158 -172c102 0 158 82 158 172zM453 664v-67h-296v67h296z" />
    <glyph glyph-name="Obreve" unicode="&#x14e;" horiz-adv-x="849" 
d="M800 355c0 -218 -160 -373 -376 -373c-215 0 -374 155 -374 373c0 221 159 371 374 371c216 0 376 -150 376 -371zM693 355c0 155 -104 284 -269 284c-163 0 -267 -129 -267 -284c0 -158 105 -284 267 -284c164 0 269 126 269 284zM528 908h55c-8 -91 -71 -138 -159 -138
c-89 0 -153 46 -159 138h56c9 -51 53 -72 103 -72c54 0 92 18 104 72z" />
    <glyph glyph-name="obreve" unicode="&#x14f;" horiz-adv-x="611" 
d="M561 238c0 -146 -111 -251 -256 -251s-255 105 -255 251s110 249 255 249s256 -103 256 -249zM463 238c0 90 -56 171 -158 171c-101 0 -158 -81 -158 -171s57 -172 158 -172c102 0 158 82 158 172zM409 708h55c-8 -91 -71 -138 -159 -138c-89 0 -153 46 -159 138h56
c9 -51 53 -72 103 -72c54 0 92 18 104 72z" />
    <glyph glyph-name="Ohungarumlaut" unicode="&#x150;" horiz-adv-x="849" 
d="M800 355c0 -218 -160 -373 -376 -373c-215 0 -374 155 -374 373c0 221 159 371 374 371c216 0 376 -150 376 -371zM693 355c0 155 -104 284 -269 284c-163 0 -267 -129 -267 -284c0 -158 105 -284 267 -284c164 0 269 126 269 284zM491 908l-137 -144h-77l100 144h114z
M673 908l-136 -144h-77l100 144h113z" />
    <glyph glyph-name="ohungarumlaut" unicode="&#x151;" horiz-adv-x="611" 
d="M561 238c0 -146 -111 -251 -256 -251s-255 105 -255 251s110 249 255 249s256 -103 256 -249zM463 238c0 90 -56 171 -158 171c-101 0 -158 -81 -158 -171s57 -172 158 -172c102 0 158 82 158 172zM341 708l-137 -144h-77l100 144h114zM523 708l-136 -144h-77l100 144
h113z" />
    <glyph glyph-name="OE" unicode="&#x152;" horiz-adv-x="1236" 
d="M687 609h4v99h492v-87h-393v-218h322v-85h-322v-230h400v-88h-499v103h-2c-59 -76 -148 -121 -265 -121c-215 0 -374 155 -374 373c0 221 159 371 374 371c116 0 204 -43 263 -117zM693 355c0 155 -104 284 -269 284c-163 0 -267 -129 -267 -284
c0 -158 105 -284 267 -284c164 0 269 126 269 284z" />
    <glyph glyph-name="oe" unicode="&#x153;" horiz-adv-x="982" 
d="M505 87h-4c-41 -61 -109 -100 -196 -100c-145 0 -255 105 -255 251s110 249 255 249c91 0 162 -43 203 -109h2c42 65 113 109 200 109c147 0 222 -121 222 -227c0 -18 -1 -34 -2 -50h-378c11 -93 73 -144 162 -144c77 0 128 45 152 74l60 -50
c-38 -53 -121 -103 -223 -103c-85 0 -156 39 -198 100zM463 238c0 90 -56 171 -158 171c-101 0 -158 -81 -158 -171s57 -172 158 -172c102 0 158 82 158 172zM705 409c-81 0 -139 -54 -152 -131h293c0 72 -63 131 -141 131z" />
    <glyph glyph-name="Racute" unicode="&#x154;" horiz-adv-x="659" 
d="M507 499c0 79 -49 122 -163 122h-159v-252h159c116 0 163 52 163 130zM86 0v708h273c172 0 247 -88 247 -205c0 -124 -89 -188 -167 -203l198 -300h-122l-182 284h-148v-284h-99zM481 908l-137 -144h-76l99 144h114z" />
    <glyph glyph-name="racute" unicode="&#x155;" horiz-adv-x="362" 
d="M81 0v474h89v-80h3c26 55 81 93 145 93c13 0 26 -1 37 -4l-4 -87c-12 3 -28 5 -43 5c-90 0 -133 -73 -133 -152v-249h-94zM306 708l-136 -144h-77l100 144h113z" />
    <glyph glyph-name="Rcommaaccent" unicode="&#x156;" horiz-adv-x="659" 
d="M507 499c0 79 -49 122 -163 122h-159v-252h159c116 0 163 52 163 130zM86 0v708h273c172 0 247 -88 247 -205c0 -124 -89 -188 -167 -203l198 -300h-122l-182 284h-148v-284h-99zM294 -102c0 36 24 57 55 57c25 0 55 -14 55 -61c0 -49 -34 -101 -71 -134l-49 25
c13 14 32 48 36 64c-15 9 -26 25 -26 49z" />
    <glyph glyph-name="rcommaaccent" unicode="&#x157;" horiz-adv-x="362" 
d="M81 0v474h89v-80h3c26 55 81 93 145 93c13 0 26 -1 37 -4l-4 -87c-12 3 -28 5 -43 5c-90 0 -133 -73 -133 -152v-249h-94zM76 -102c0 36 24 57 55 57c25 0 55 -14 55 -61c0 -49 -34 -101 -71 -134l-49 25c13 14 32 48 36 64c-15 9 -26 25 -26 49z" />
    <glyph glyph-name="Rcaron" unicode="&#x158;" horiz-adv-x="659" 
d="M507 499c0 79 -49 122 -163 122h-159v-252h159c116 0 163 52 163 130zM86 0v708h273c172 0 247 -88 247 -205c0 -124 -89 -188 -167 -203l198 -300h-122l-182 284h-148v-284h-99zM509 908l-112 -144h-107l-111 144h90l76 -99l76 99h88z" />
    <glyph glyph-name="rcaron" unicode="&#x159;" horiz-adv-x="362" 
d="M81 0v474h89v-80h3c26 55 81 93 145 93c13 0 26 -1 37 -4l-4 -87c-12 3 -28 5 -43 5c-90 0 -133 -73 -133 -152v-249h-94zM346 708l-112 -144h-107l-111 144h90l76 -99l76 99h88z" />
    <glyph glyph-name="Sacute" unicode="&#x15a;" horiz-adv-x="571" 
d="M477 632l-65 -62c-50 52 -97 69 -146 69c-91 0 -123 -52 -123 -97c0 -154 372 -109 372 -346c0 -119 -108 -214 -247 -214c-140 0 -222 96 -231 107l68 66c49 -55 106 -85 169 -85c87 0 144 55 144 118c0 161 -372 113 -372 343c0 103 84 195 219 195
c79 0 162 -31 212 -94zM451 908l-137 -144h-76l99 144h114z" />
    <glyph glyph-name="sacute" unicode="&#x15b;" horiz-adv-x="512" 
d="M454 404l-65 -58c-30 33 -96 62 -151 62c-49 0 -104 -18 -104 -59c0 -42 59 -54 131 -65c113 -17 206 -47 206 -146c0 -98 -92 -151 -206 -151c-128 0 -209 68 -236 94l70 60c53 -50 113 -75 170 -75c58 0 109 20 109 65c0 47 -54 61 -130 73c-105 16 -208 39 -208 136
c0 92 83 147 197 147c82 0 169 -29 217 -83zM410 708l-136 -144h-77l100 144h113z" />
    <glyph glyph-name="Scircumflex" unicode="&#x15c;" horiz-adv-x="571" 
d="M477 632l-65 -62c-50 52 -97 69 -146 69c-91 0 -123 -52 -123 -97c0 -154 372 -109 372 -346c0 -119 -108 -214 -247 -214c-140 0 -222 96 -231 107l68 66c49 -55 106 -85 169 -85c87 0 144 55 144 118c0 161 -372 113 -372 343c0 103 84 195 219 195
c79 0 162 -31 212 -94zM368 908l112 -144h-91l-75 99l-76 -99h-90l112 144h108z" />
    <glyph glyph-name="scircumflex" unicode="&#x15d;" horiz-adv-x="512" 
d="M454 404l-65 -58c-30 33 -96 62 -151 62c-49 0 -104 -18 -104 -59c0 -42 59 -54 131 -65c113 -17 206 -47 206 -146c0 -98 -92 -151 -206 -151c-128 0 -209 68 -236 94l70 60c53 -50 113 -75 170 -75c58 0 109 20 109 65c0 47 -54 61 -130 73c-105 16 -208 39 -208 136
c0 92 83 147 197 147c82 0 169 -29 217 -83zM310 708l112 -144h-91l-75 99l-76 -99h-90l112 144h108z" />
    <glyph glyph-name="Scedilla" unicode="&#x15e;" horiz-adv-x="571" 
d="M477 632l-65 -62c-50 52 -97 69 -146 69c-91 0 -123 -52 -123 -97c0 -154 372 -109 372 -346c0 -94 -68 -173 -165 -202l-42 -63c9 2 17 2 27 2c45 0 94 -19 94 -78c0 -70 -70 -91 -127 -91c-34 0 -75 9 -103 23l20 46c24 -11 51 -17 77 -17c22 0 60 5 60 39
c0 29 -26 35 -53 35c-12 0 -28 -3 -41 -7l-20 23l50 77c-8 0 -16 -1 -24 -1c-140 0 -222 96 -231 107l68 66c49 -55 106 -85 169 -85c87 0 144 55 144 118c0 161 -372 113 -372 343c0 103 84 195 219 195c79 0 162 -31 212 -94z" />
    <glyph glyph-name="scedilla" unicode="&#x15f;" horiz-adv-x="512" 
d="M454 404l-65 -58c-30 33 -96 62 -151 62c-49 0 -104 -18 -104 -59c0 -42 59 -54 131 -65c113 -17 206 -47 206 -146c0 -92 -80 -143 -183 -150l-38 -57c9 2 17 2 27 2c45 0 94 -19 94 -78c0 -70 -70 -91 -127 -91c-34 0 -75 9 -103 23l20 46c24 -11 51 -17 77 -17
c22 0 60 5 60 39c0 29 -26 35 -53 35c-12 0 -28 -3 -41 -7l-20 23l54 82c-113 9 -184 69 -209 93l70 60c53 -50 113 -75 170 -75c58 0 109 20 109 65c0 47 -54 61 -130 73c-105 16 -208 39 -208 136c0 92 83 147 197 147c82 0 169 -29 217 -83z" />
    <glyph glyph-name="Scaron" unicode="&#x160;" horiz-adv-x="571" 
d="M477 632l-65 -62c-50 52 -97 69 -146 69c-91 0 -123 -52 -123 -97c0 -154 372 -109 372 -346c0 -119 -108 -214 -247 -214c-140 0 -222 96 -231 107l68 66c49 -55 106 -85 169 -85c87 0 144 55 144 118c0 161 -372 113 -372 343c0 103 84 195 219 195
c79 0 162 -31 212 -94zM479 908l-112 -144h-107l-111 144h90l76 -99l76 99h88z" />
    <glyph glyph-name="scaron" unicode="&#x161;" horiz-adv-x="512" 
d="M454 404l-65 -58c-30 33 -96 62 -151 62c-49 0 -104 -18 -104 -59c0 -42 59 -54 131 -65c113 -17 206 -47 206 -146c0 -98 -92 -151 -206 -151c-128 0 -209 68 -236 94l70 60c53 -50 113 -75 170 -75c58 0 109 20 109 65c0 47 -54 61 -130 73c-105 16 -208 39 -208 136
c0 92 83 147 197 147c82 0 169 -29 217 -83zM421 708l-112 -144h-107l-111 144h90l76 -99l76 99h88z" />
    <glyph glyph-name="Tcommaaccent" unicode="&#x162;" horiz-adv-x="569" 
d="M334 621v-621h-99v621h-227v87h553v-87h-227zM234 -102c0 36 24 57 55 57c25 0 55 -14 55 -61c0 -49 -34 -101 -71 -134l-49 25c13 14 32 48 36 64c-15 9 -26 25 -26 49z" />
    <glyph glyph-name="tcommaaccent" unicode="&#x163;" horiz-adv-x="329" 
d="M313 78v-78h-53c-111 0 -166 26 -166 160v237h-77v77h77v129h93v-129h124v-77h-124v-221c0 -95 44 -98 92 -98h34zM114 -102c0 36 24 57 55 57c25 0 55 -14 55 -61c0 -49 -34 -101 -71 -134l-49 25c13 14 32 48 36 64c-15 9 -26 25 -26 49z" />
    <glyph glyph-name="Tcaron" unicode="&#x164;" horiz-adv-x="569" 
d="M334 621v-621h-99v621h-227v87h553v-87h-227zM449 908l-112 -144h-107l-111 144h90l76 -99l76 99h88z" />
    <glyph glyph-name="tcaron" unicode="&#x165;" horiz-adv-x="329" 
d="M313 78v-78h-53c-111 0 -166 26 -166 160v237h-77v77h77v129h93v-129h124v-77h-124v-221c0 -95 44 -98 92 -98h34zM226 669c0 36 24 57 55 57c25 0 55 -14 55 -61c0 -49 -34 -101 -71 -134l-49 25c13 14 32 48 36 64c-15 9 -26 25 -26 49z" />
    <glyph glyph-name="Tbar" unicode="&#x166;" horiz-adv-x="569" 
d="M334 621v-218h118v-86h-118v-317h-99v317h-119v86h119v218h-227v87h553v-87h-227z" />
    <glyph glyph-name="tbar" unicode="&#x167;" horiz-adv-x="329" 
d="M311 217h-124v-41c0 -95 44 -98 92 -98h34v-78h-53c-111 0 -166 26 -166 160v57h-77v77h77v103h-77v77h77v129h93v-129h124v-77h-124v-103h124v-77z" />
    <glyph glyph-name="Utilde" unicode="&#x168;" horiz-adv-x="712" 
d="M356 -18c-187 0 -275 135 -275 280v446h99v-440c0 -97 44 -197 176 -197s176 100 176 197v440h99v-446c0 -145 -88 -280 -275 -280zM238 772h-55c10 58 34 116 102 116c25 0 52 -9 75 -20c26 -12 49 -22 67 -22c29 0 41 23 48 46h54c-10 -58 -34 -116 -102 -116
c-25 0 -53 10 -77 21c-24 12 -46 21 -65 21c-28 0 -41 -23 -47 -46z" />
    <glyph glyph-name="utilde" unicode="&#x169;" horiz-adv-x="604" 
d="M81 214v260h94v-259c0 -77 29 -149 121 -149c91 0 133 80 133 168v240h94v-474h-91v74h-4c-24 -41 -83 -87 -158 -87c-138 0 -189 104 -189 227zM184 572h-55c10 58 34 116 102 116c25 0 52 -9 75 -20c26 -12 49 -22 67 -22c29 0 41 23 48 46h54
c-10 -58 -34 -116 -102 -116c-25 0 -53 10 -77 21c-24 12 -46 21 -65 21c-28 0 -41 -23 -47 -46z" />
    <glyph glyph-name="Umacron" unicode="&#x16a;" horiz-adv-x="712" 
d="M356 -18c-187 0 -275 135 -275 280v446h99v-440c0 -97 44 -197 176 -197s176 100 176 197v440h99v-446c0 -145 -88 -280 -275 -280zM504 864v-67h-296v67h296z" />
    <glyph glyph-name="umacron" unicode="&#x16b;" horiz-adv-x="604" 
d="M81 214v260h94v-259c0 -77 29 -149 121 -149c91 0 133 80 133 168v240h94v-474h-91v74h-4c-24 -41 -83 -87 -158 -87c-138 0 -189 104 -189 227zM450 664v-67h-296v67h296z" />
    <glyph glyph-name="Ubreve" unicode="&#x16c;" horiz-adv-x="712" 
d="M356 -18c-187 0 -275 135 -275 280v446h99v-440c0 -97 44 -197 176 -197s176 100 176 197v440h99v-446c0 -145 -88 -280 -275 -280zM460 908h55c-8 -91 -71 -138 -159 -138c-89 0 -153 46 -159 138h56c9 -51 53 -72 103 -72c54 0 92 18 104 72z" />
    <glyph glyph-name="ubreve" unicode="&#x16d;" horiz-adv-x="604" 
d="M81 214v260h94v-259c0 -77 29 -149 121 -149c91 0 133 80 133 168v240h94v-474h-91v74h-4c-24 -41 -83 -87 -158 -87c-138 0 -189 104 -189 227zM406 708h55c-8 -91 -71 -138 -159 -138c-89 0 -153 46 -159 138h56c9 -51 53 -72 103 -72c54 0 92 18 104 72z" />
    <glyph glyph-name="Uring" unicode="&#x16e;" horiz-adv-x="712" 
d="M356 -18c-187 0 -275 135 -275 280v446h99v-440c0 -97 44 -197 176 -197s176 100 176 197v440h99v-446c0 -145 -88 -280 -275 -280zM456 887c0 -57 -45 -99 -101 -99c-55 0 -100 42 -100 98c0 57 44 99 100 99s101 -42 101 -98zM405 887c0 27 -22 47 -50 47
c-27 0 -49 -20 -49 -47c0 -28 22 -48 49 -48c28 0 50 20 50 48z" />
    <glyph glyph-name="uring" unicode="&#x16f;" horiz-adv-x="604" 
d="M81 214v260h94v-259c0 -77 29 -149 121 -149c91 0 133 80 133 168v240h94v-474h-91v74h-4c-24 -41 -83 -87 -158 -87c-138 0 -189 104 -189 227zM402 653c0 -57 -45 -99 -101 -99c-55 0 -100 42 -100 98c0 57 44 99 100 99s101 -42 101 -98zM351 653c0 27 -22 47 -50 47
c-27 0 -49 -20 -49 -47c0 -28 22 -48 49 -48c28 0 50 20 50 48z" />
    <glyph glyph-name="Uhungarumlaut" unicode="&#x170;" horiz-adv-x="712" 
d="M356 -18c-187 0 -275 135 -275 280v446h99v-440c0 -97 44 -197 176 -197s176 100 176 197v440h99v-446c0 -145 -88 -280 -275 -280zM428 908l-137 -144h-77l100 144h114zM610 908l-136 -144h-77l100 144h113z" />
    <glyph glyph-name="uhungarumlaut" unicode="&#x171;" horiz-adv-x="604" 
d="M81 214v260h94v-259c0 -77 29 -149 121 -149c91 0 133 80 133 168v240h94v-474h-91v74h-4c-24 -41 -83 -87 -158 -87c-138 0 -189 104 -189 227zM368 708l-137 -144h-77l100 144h114zM550 708l-136 -144h-77l100 144h113z" />
    <glyph glyph-name="Uogonek" unicode="&#x172;" horiz-adv-x="712" 
d="M431 -136l22 -53c-26 -22 -60 -37 -95 -37c-50 0 -97 33 -97 87c0 45 33 90 68 122c-169 13 -248 141 -248 279v446h99v-440c0 -97 44 -197 176 -197s176 100 176 197v440h99v-446c0 -137 -78 -264 -243 -278c-28 -31 -50 -65 -50 -99c0 -28 16 -42 42 -42
c17 0 37 10 51 21z" />
    <glyph glyph-name="uogonek" unicode="&#x173;" horiz-adv-x="604" 
d="M514 -136l22 -53c-26 -22 -60 -37 -95 -37c-50 0 -97 33 -97 87s47 106 88 139v74h-4c-24 -41 -83 -87 -158 -87c-138 0 -189 104 -189 227v260h94v-259c0 -77 29 -149 121 -149c91 0 133 80 133 168v240h94v-474h-36c-34 -34 -66 -75 -66 -115c0 -28 16 -42 42 -42
c17 0 37 10 51 21z" />
    <glyph glyph-name="Wcircumflex" unicode="&#x174;" horiz-adv-x="988" 
d="M117 708l156 -564h2l166 564h109l165 -564h2l156 564h105l-208 -708h-103l-172 569h-2l-172 -569h-103l-208 708h107zM548 908l112 -144h-91l-75 99l-76 -99h-90l112 144h108z" />
    <glyph glyph-name="wcircumflex" unicode="&#x175;" horiz-adv-x="773" 
d="M14 474h102l107 -362h2l113 362h99l115 -362h2l107 362h99l-157 -474h-98l-117 356h-2l-116 -356h-98zM440 708l112 -144h-91l-75 99l-76 -99h-90l112 144h108z" />
    <glyph glyph-name="Ycircumflex" unicode="&#x176;" horiz-adv-x="624" 
d="M362 306v-306h-100v306l-265 402h122l196 -320l197 320h115zM366 908l112 -144h-91l-75 99l-76 -99h-90l112 144h108z" />
    <glyph glyph-name="ycircumflex" unicode="&#x177;" horiz-adv-x="504" 
d="M114 474l147 -372h2l131 372h100l-230 -586c-31 -79 -71 -128 -164 -128c-20 0 -41 0 -62 2v83c15 -2 41 -3 56 -3c49 0 68 28 88 79l30 79l-203 474h105zM306 708l112 -144h-91l-75 99l-76 -99h-90l112 144h108z" />
    <glyph glyph-name="Ydieresis" unicode="&#x178;" horiz-adv-x="624" 
d="M362 306v-306h-100v306l-265 402h122l196 -320l197 320h115zM153 845c0 32 26 61 62 61c35 0 62 -27 62 -61c0 -33 -27 -60 -62 -60c-36 0 -62 29 -62 60zM347 845c0 32 26 61 62 61c35 0 62 -27 62 -61c0 -33 -27 -60 -62 -60c-36 0 -62 29 -62 60z" />
    <glyph glyph-name="Zacute" unicode="&#x179;" horiz-adv-x="592" 
d="M553 708v-87l-400 -533h406v-88h-526v87l399 534h-391v87h512zM441 908l-137 -144h-76l99 144h114z" />
    <glyph glyph-name="zacute" unicode="&#x17a;" horiz-adv-x="462" 
d="M419 474v-77l-270 -318h281v-79h-397v77l268 320h-255v77h373zM378 708l-136 -144h-77l100 144h113z" />
    <glyph glyph-name="Zdotaccent" unicode="&#x17b;" horiz-adv-x="592" 
d="M553 708v-87l-400 -533h406v-88h-526v87l399 534h-391v87h512zM359 845c0 -34 -29 -60 -63 -60s-62 27 -62 60c0 34 28 61 62 61s63 -26 63 -61z" />
    <glyph glyph-name="zdotaccent" unicode="&#x17c;" horiz-adv-x="462" 
d="M419 474v-77l-270 -318h281v-79h-397v77l268 320h-255v77h373zM293 645c0 -34 -29 -60 -63 -60s-62 27 -62 60c0 34 28 61 62 61s63 -26 63 -61z" />
    <glyph glyph-name="Zcaron" unicode="&#x17d;" horiz-adv-x="592" 
d="M553 708v-87l-400 -533h406v-88h-526v87l399 534h-391v87h512zM461 908l-112 -144h-107l-111 144h90l76 -99l76 99h88z" />
    <glyph glyph-name="zcaron" unicode="&#x17e;" horiz-adv-x="462" 
d="M419 474v-77l-270 -318h281v-79h-397v77l268 320h-255v77h373zM396 708l-112 -144h-107l-111 144h90l76 -99l76 99h88z" />
    <glyph glyph-name="longs" unicode="&#x17f;" horiz-adv-x="288" 
d="M6 397v77h94v120c0 147 91 174 163 174h73v-81h-57c-63 0 -85 -12 -85 -107v-580h-94v397h-94z" />
    <glyph glyph-name="florin" unicode="&#x192;" 
d="M472 423v-73h-129l-62 -319c-19 -100 -65 -170 -171 -170c-32 0 -65 8 -92 24l38 71c14 -9 34 -14 50 -14c57 0 72 50 83 105l58 303h-111v73h125l25 127c17 91 58 170 166 170c39 0 74 -11 106 -30l-40 -71c-17 10 -36 17 -56 17c-62 0 -77 -65 -85 -109l-20 -104h115z
" />
    <glyph glyph-name="Scommaaccent" unicode="&#x218;" horiz-adv-x="571" 
d="M477 632l-65 -62c-50 52 -97 69 -146 69c-91 0 -123 -52 -123 -97c0 -154 372 -109 372 -346c0 -119 -108 -214 -247 -214c-140 0 -222 96 -231 107l68 66c49 -55 106 -85 169 -85c87 0 144 55 144 118c0 161 -372 113 -372 343c0 103 84 195 219 195
c79 0 162 -31 212 -94zM264 -102c0 36 24 57 55 57c25 0 55 -14 55 -61c0 -49 -34 -101 -71 -134l-49 25c13 14 32 48 36 64c-15 9 -26 25 -26 49z" />
    <glyph glyph-name="scommaaccent" unicode="&#x219;" horiz-adv-x="512" 
d="M454 404l-65 -58c-30 33 -96 62 -151 62c-49 0 -104 -18 -104 -59c0 -42 59 -54 131 -65c113 -17 206 -47 206 -146c0 -98 -92 -151 -206 -151c-128 0 -209 68 -236 94l70 60c53 -50 113 -75 170 -75c58 0 109 20 109 65c0 47 -54 61 -130 73c-105 16 -208 39 -208 136
c0 92 83 147 197 147c82 0 169 -29 217 -83zM206 -102c0 36 24 57 55 57c25 0 55 -14 55 -61c0 -49 -34 -101 -71 -134l-49 25c13 14 32 48 36 64c-15 9 -26 25 -26 49z" />
    <glyph glyph-name="uni021A" unicode="&#x21a;" horiz-adv-x="569" 
d="M334 621v-621h-99v621h-227v87h553v-87h-227zM234 -102c0 36 24 57 55 57c25 0 55 -14 55 -61c0 -49 -34 -101 -71 -134l-49 25c13 14 32 48 36 64c-15 9 -26 25 -26 49z" />
    <glyph glyph-name="uni021B" unicode="&#x21b;" horiz-adv-x="329" 
d="M313 78v-78h-53c-111 0 -166 26 -166 160v237h-77v77h77v129h93v-129h124v-77h-124v-221c0 -95 44 -98 92 -98h34zM114 -102c0 36 24 57 55 57c25 0 55 -14 55 -61c0 -49 -34 -101 -71 -134l-49 25c13 14 32 48 36 64c-15 9 -26 25 -26 49z" />
    <glyph glyph-name="dotlessj" unicode="&#x237;" horiz-adv-x="258" 
d="M176 474v-552c0 -147 -100 -162 -172 -162h-30v78h14c61 0 95 8 95 103v533h93z" />
    <glyph glyph-name="apostrophe" unicode="&#x2bc;" horiz-adv-x="250" 
d="M76 669c0 36 24 57 55 57c25 0 55 -14 55 -61c0 -49 -34 -101 -71 -134l-49 25c13 14 32 48 36 64c-15 9 -26 25 -26 49z" />
    <glyph glyph-name="circumflex" unicode="&#x2c6;" horiz-adv-x="250" 
d="M179 708l112 -144h-91l-75 99l-76 -99h-90l112 144h108z" />
    <glyph glyph-name="caron" unicode="&#x2c7;" horiz-adv-x="250" 
d="M290 708l-112 -144h-107l-111 144h90l76 -99l76 99h88z" />
    <glyph glyph-name="uni02C9" unicode="&#x2c9;" horiz-adv-x="250" 
d="M273 864v-67h-296v67h296z" />
    <glyph glyph-name="breve" unicode="&#x2d8;" horiz-adv-x="250" 
d="M229 708h55c-8 -91 -71 -138 -159 -138c-89 0 -153 46 -159 138h56c9 -51 53 -72 103 -72c54 0 92 18 104 72z" />
    <glyph glyph-name="dotaccent" unicode="&#x2d9;" horiz-adv-x="250" 
d="M188 645c0 -34 -29 -60 -63 -60s-62 27 -62 60c0 34 28 61 62 61s63 -26 63 -61z" />
    <glyph glyph-name="ring" unicode="&#x2da;" horiz-adv-x="250" 
d="M226 653c0 -57 -45 -99 -101 -99c-55 0 -100 42 -100 98c0 57 44 99 100 99s101 -42 101 -98zM175 653c0 27 -22 47 -50 47c-27 0 -49 -20 -49 -47c0 -28 22 -48 49 -48c28 0 50 20 50 48z" />
    <glyph glyph-name="ogonek" unicode="&#x2db;" horiz-adv-x="250" 
d="M184 -136l22 -53c-26 -22 -60 -37 -95 -37c-50 0 -97 33 -97 87c0 57 53 112 95 145h54c-36 -35 -72 -79 -72 -121c0 -28 16 -42 42 -42c17 0 37 10 51 21z" />
    <glyph glyph-name="tilde" unicode="&#x2dc;" horiz-adv-x="250" 
d="M7 572h-55c10 58 34 116 102 116c25 0 52 -9 75 -20c26 -12 49 -22 67 -22c29 0 41 23 48 46h54c-10 -58 -34 -116 -102 -116c-25 0 -53 10 -77 21c-24 12 -46 21 -65 21c-28 0 -41 -23 -47 -46z" />
    <glyph glyph-name="hungarumlaut" unicode="&#x2dd;" horiz-adv-x="250" 
d="M176 708l-137 -144h-77l100 144h114zM358 708l-136 -144h-77l100 144h113z" />
    <glyph glyph-name="pi" unicode="&#x3c0;" horiz-adv-x="578" 
d="M545 0h-74c-84 0 -93 49 -93 118v275h-191v-393h-86v393h-70v81h511v-81h-78v-259c0 -29 2 -56 38 -56h43v-78z" />
    <glyph glyph-name="Wgrave" unicode="&#x1e80;" horiz-adv-x="988" 
d="M117 708l156 -564h2l166 564h109l165 -564h2l156 564h105l-208 -708h-103l-172 569h-2l-172 -569h-103l-208 708h107zM461 764l-137 144h114l100 -144h-77z" />
    <glyph glyph-name="wgrave" unicode="&#x1e81;" horiz-adv-x="773" 
d="M14 474h102l107 -362h2l113 362h99l115 -362h2l107 362h99l-157 -474h-98l-117 356h-2l-116 -356h-98zM346 564l-136 144h113l100 -144h-77z" />
    <glyph glyph-name="Wacute" unicode="&#x1e82;" horiz-adv-x="988" 
d="M117 708l156 -564h2l166 564h109l165 -564h2l156 564h105l-208 -708h-103l-172 569h-2l-172 -569h-103l-208 708h107zM673 908l-137 -144h-76l99 144h114z" />
    <glyph glyph-name="wacute" unicode="&#x1e83;" horiz-adv-x="773" 
d="M14 474h102l107 -362h2l113 362h99l115 -362h2l107 362h99l-157 -474h-98l-117 356h-2l-116 -356h-98zM567 708l-136 -144h-77l100 144h113z" />
    <glyph glyph-name="Wdieresis" unicode="&#x1e84;" horiz-adv-x="988" 
d="M117 708l156 -564h2l166 564h109l165 -564h2l156 564h105l-208 -708h-103l-172 569h-2l-172 -569h-103l-208 708h107zM335 845c0 32 26 61 62 61c35 0 62 -27 62 -61c0 -33 -27 -60 -62 -60c-36 0 -62 29 -62 60zM529 845c0 32 26 61 62 61c35 0 62 -27 62 -61
c0 -33 -27 -60 -62 -60c-36 0 -62 29 -62 60z" />
    <glyph glyph-name="wdieresis" unicode="&#x1e85;" horiz-adv-x="773" 
d="M14 474h102l107 -362h2l113 362h99l115 -362h2l107 362h99l-157 -474h-98l-117 356h-2l-116 -356h-98zM227 645c0 32 26 61 62 61c35 0 62 -27 62 -61c0 -33 -27 -60 -62 -60c-36 0 -62 29 -62 60zM421 645c0 32 26 61 62 61c35 0 62 -27 62 -61c0 -33 -27 -60 -62 -60
c-36 0 -62 29 -62 60z" />
    <glyph glyph-name="Ygrave" unicode="&#x1ef2;" horiz-adv-x="624" 
d="M362 306v-306h-100v306l-265 402h122l196 -320l197 320h115zM291 764l-137 144h114l100 -144h-77z" />
    <glyph glyph-name="ygrave" unicode="&#x1ef3;" horiz-adv-x="504" 
d="M114 474l147 -372h2l131 372h100l-230 -586c-31 -79 -71 -128 -164 -128c-20 0 -41 0 -62 2v83c15 -2 41 -3 56 -3c49 0 68 28 88 79l30 79l-203 474h105zM223 564l-136 144h113l100 -144h-77z" />
    <glyph glyph-name="endash" unicode="&#x2013;" horiz-adv-x="400" 
d="M370 282v-75h-340v75h340z" />
    <glyph glyph-name="emdash" unicode="&#x2014;" horiz-adv-x="600" 
d="M570 282v-75h-540v75h540z" />
    <glyph glyph-name="quoteleft" unicode="&#x2018;" horiz-adv-x="246" 
d="M179 520c0 -39 -27 -62 -61 -62c-28 0 -61 17 -61 66c0 57 58 163 86 202l59 -32c-18 -33 -51 -97 -55 -115c18 -13 32 -30 32 -59z" />
    <glyph glyph-name="quoteright" unicode="&#x2019;" horiz-adv-x="246" 
d="M70 664c0 39 27 62 61 62c28 0 61 -17 61 -66c0 -57 -58 -163 -86 -202l-59 32c18 33 51 97 55 115c-18 13 -32 30 -32 59z" />
    <glyph glyph-name="quotesinglbase" unicode="&#x201a;" horiz-adv-x="246" 
d="M70 64c0 39 27 62 61 62c28 0 61 -17 61 -66c0 -57 -58 -163 -86 -202l-59 32c18 33 51 97 55 115c-18 13 -32 30 -32 59z" />
    <glyph glyph-name="quotedblleft" unicode="&#x201c;" horiz-adv-x="426" 
d="M181 520c0 -39 -27 -62 -61 -62c-28 0 -61 17 -61 66c0 57 58 163 86 202l59 -32c-18 -33 -51 -97 -55 -115c18 -13 32 -30 32 -59zM361 520c0 -39 -27 -62 -61 -62c-28 0 -61 17 -61 66c0 57 58 163 86 202l59 -32c-18 -33 -51 -97 -55 -115c18 -13 32 -30 32 -59z" />
    <glyph glyph-name="quotedblright" unicode="&#x201d;" horiz-adv-x="426" 
d="M72 664c0 39 27 62 61 62c28 0 61 -17 61 -66c0 -57 -58 -163 -86 -202l-59 32c18 33 51 97 55 115c-18 13 -32 30 -32 59zM252 664c0 39 27 62 61 62c28 0 61 -17 61 -66c0 -57 -58 -163 -86 -202l-59 32c18 33 51 97 55 115c-18 13 -32 30 -32 59z" />
    <glyph glyph-name="quotedblbase" unicode="&#x201e;" horiz-adv-x="426" 
d="M72 64c0 39 27 62 61 62c28 0 61 -17 61 -66c0 -57 -58 -163 -86 -202l-59 32c18 33 51 97 55 115c-18 13 -32 30 -32 59zM252 64c0 39 27 62 61 62c28 0 61 -17 61 -66c0 -57 -58 -163 -86 -202l-59 32c18 33 51 97 55 115c-18 13 -32 30 -32 59z" />
    <glyph glyph-name="dagger" unicode="&#x2020;" horiz-adv-x="575" 
d="M332 708v-203h202v-79h-202v-552h-90v552h-201v79h201v203h90z" />
    <glyph glyph-name="daggerdbl" unicode="&#x2021;" horiz-adv-x="575" 
d="M332 708v-188h194v-79h-194v-300h194v-78h-194v-189h-90v189h-194v78h194v300h-194v79h194v188h90z" />
    <glyph glyph-name="bullet" unicode="&#x2022;" horiz-adv-x="500" 
d="M73 354c0 98 79 177 177 177s177 -79 177 -177s-79 -177 -177 -177s-177 79 -177 177z" />
    <glyph glyph-name="ellipsis" unicode="&#x2026;" horiz-adv-x="780" 
d="M197 60c0 -35 -29 -66 -67 -66c-37 0 -67 30 -67 65c0 36 29 66 67 66s67 -29 67 -65zM457 60c0 -35 -29 -66 -67 -66c-37 0 -67 30 -67 65c0 36 29 66 67 66s67 -29 67 -65zM717 60c0 -35 -29 -66 -67 -66c-37 0 -67 30 -67 65c0 36 29 66 67 66s67 -29 67 -65z" />
    <glyph glyph-name="perthousand" unicode="&#x2030;" horiz-adv-x="1048" 
d="M39 563c0 88 71 159 159 159c89 0 160 -71 160 -159s-71 -159 -160 -159c-88 0 -159 71 -159 159zM283 563c0 47 -38 84 -85 84c-46 0 -84 -37 -84 -84s38 -85 84 -85c47 0 85 38 85 85zM344 148c0 88 71 159 159 159c89 0 160 -71 160 -159s-71 -159 -160 -159
c-88 0 -159 71 -159 159zM588 148c0 47 -38 84 -85 84c-46 0 -84 -37 -84 -84s38 -85 84 -85c47 0 85 38 85 85zM696 148c0 88 71 159 159 159c89 0 160 -71 160 -159s-71 -159 -160 -159c-88 0 -159 71 -159 159zM940 148c0 47 -38 84 -85 84c-46 0 -84 -37 -84 -84
s38 -85 84 -85c47 0 85 38 85 85zM612 707l-469 -739l-56 32l470 739z" />
    <glyph glyph-name="guilsinglleft" unicode="&#x2039;" horiz-adv-x="298" 
d="M39 244l131 195h90l-128 -195l128 -195h-90z" />
    <glyph glyph-name="guilsinglright" unicode="&#x203a;" horiz-adv-x="298" 
d="M129 439l131 -195l-131 -195h-90l128 195l-128 195h90z" />
    <glyph glyph-name="fraction" unicode="&#x2044;" horiz-adv-x="100" 
d="M304 708l-450 -743l-58 31l451 743z" />
    <glyph glyph-name="zerosuperior" unicode="&#x2070;" horiz-adv-x="385" 
d="M192 719c110 0 157 -101 157 -223c0 -123 -47 -221 -157 -221s-157 98 -157 221c0 122 47 223 157 223zM192 652c-62 0 -76 -93 -76 -156c0 -64 14 -154 76 -154c61 0 75 90 75 154c0 63 -14 156 -75 156z" />
    <glyph glyph-name="foursuperior" unicode="&#x2074;" horiz-adv-x="385" 
d="M295 712v-270h61v-66h-61v-90h-78v90h-197v63l187 273h88zM217 442v167l-112 -167h112z" />
    <glyph glyph-name="fivesuperior" unicode="&#x2075;" horiz-adv-x="385" 
d="M319 712v-68h-177l-4 -89c15 4 31 4 44 4c89 0 155 -52 155 -136c0 -89 -69 -148 -160 -148c-71 0 -135 38 -160 120h84c13 -32 42 -53 76 -53c44 0 78 30 78 75c0 55 -42 79 -89 79c-15 0 -36 -4 -57 -10l-49 19l8 207h251z" />
    <glyph glyph-name="sixsuperior" unicode="&#x2076;" horiz-adv-x="385" 
d="M287 712l-109 -159c8 2 19 2 28 2c80 0 144 -57 144 -136c0 -86 -69 -144 -159 -144c-91 0 -158 61 -158 142c0 46 18 81 43 119l117 176h94zM113 416c0 -41 32 -74 78 -74s78 31 78 75c0 43 -31 74 -77 74c-47 0 -79 -30 -79 -75z" />
    <glyph glyph-name="sevensuperior" unicode="&#x2077;" horiz-adv-x="385" 
d="M333 712v-61l-175 -365h-90l178 358h-206v68h293z" />
    <glyph glyph-name="eightsuperior" unicode="&#x2078;" horiz-adv-x="385" 
d="M330 599c0 -40 -20 -72 -51 -90c40 -19 67 -57 67 -104c0 -82 -71 -130 -154 -130c-84 0 -154 48 -154 130c0 48 28 85 65 104c-31 17 -50 49 -50 88c0 72 62 122 139 122c76 0 138 -48 138 -120zM133 596c0 -32 25 -56 59 -56c33 0 60 24 60 56c0 33 -28 56 -60 56
c-34 0 -59 -23 -59 -56zM118 408c0 -39 30 -67 74 -67c42 0 73 28 73 67c0 37 -31 66 -73 66c-43 0 -74 -28 -74 -66z" />
    <glyph glyph-name="ninesuperior" unicode="&#x2079;" horiz-adv-x="385" 
d="M98 286l108 154c-9 -1 -20 -2 -28 -2c-81 0 -144 56 -144 135c0 85 69 146 158 146c91 0 159 -63 159 -144c0 -47 -18 -82 -44 -120l-114 -169h-95zM271 575c0 42 -32 77 -79 77c-46 0 -78 -33 -78 -77c0 -42 31 -74 78 -74s79 31 79 74z" />
    <glyph glyph-name="zeroinferior" unicode="&#x2080;" horiz-adv-x="385" 
d="M192 433c110 0 157 -101 157 -223c0 -123 -47 -221 -157 -221s-157 98 -157 221c0 122 47 223 157 223zM192 366c-62 0 -76 -93 -76 -156c0 -64 14 -154 76 -154c61 0 75 90 75 154c0 63 -14 156 -75 156z" />
    <glyph glyph-name="oneinferior" unicode="&#x2081;" horiz-adv-x="385" 
d="M251 426v-426h-80v328l-81 -58l-36 57l130 99h67z" />
    <glyph glyph-name="twoinferior" unicode="&#x2082;" horiz-adv-x="385" 
d="M340 69v-69h-300v66l172 161c24 23 45 47 45 79c0 36 -29 59 -64 59c-40 0 -66 -29 -74 -69h-78c9 82 71 137 153 137c74 0 144 -44 144 -126c0 -55 -33 -93 -73 -129l-121 -109h196z" />
    <glyph glyph-name="threeinferior" unicode="&#x2083;" horiz-adv-x="385" 
d="M129 187v64h30c43 0 85 14 85 58c0 34 -30 57 -65 57c-31 0 -54 -20 -68 -50h-81c24 80 88 117 152 117c77 0 141 -43 141 -121c0 -40 -20 -73 -54 -91c39 -18 66 -53 66 -99c0 -86 -75 -134 -154 -134c-75 0 -138 35 -166 126h83c12 -34 42 -57 82 -57c38 0 75 21 75 65
c0 49 -51 65 -97 65h-29z" />
    <glyph glyph-name="fourinferior" unicode="&#x2084;" horiz-adv-x="385" 
d="M295 426v-270h61v-66h-61v-90h-78v90h-197v63l187 273h88zM217 156v167l-112 -167h112z" />
    <glyph glyph-name="fiveinferior" unicode="&#x2085;" horiz-adv-x="385" 
d="M319 426v-68h-177l-4 -89c15 4 31 4 44 4c89 0 155 -52 155 -136c0 -89 -69 -148 -160 -148c-71 0 -135 38 -160 120h84c13 -32 42 -53 76 -53c44 0 78 30 78 75c0 55 -42 79 -89 79c-15 0 -36 -4 -57 -10l-49 19l8 207h251z" />
    <glyph glyph-name="sixinferior" unicode="&#x2086;" horiz-adv-x="385" 
d="M287 426l-109 -159c8 2 19 2 28 2c80 0 144 -57 144 -136c0 -86 -69 -144 -159 -144c-91 0 -158 61 -158 142c0 46 18 81 43 119l117 176h94zM113 130c0 -41 32 -74 78 -74s78 31 78 75c0 43 -31 74 -77 74c-47 0 -79 -30 -79 -75z" />
    <glyph glyph-name="seveninferior" unicode="&#x2087;" horiz-adv-x="385" 
d="M333 426v-61l-175 -365h-90l178 358h-206v68h293z" />
    <glyph glyph-name="eightinferior" unicode="&#x2088;" horiz-adv-x="385" 
d="M330 313c0 -40 -20 -72 -51 -90c40 -19 67 -57 67 -104c0 -82 -71 -130 -154 -130c-84 0 -154 48 -154 130c0 48 28 85 65 104c-31 17 -50 49 -50 88c0 72 62 122 139 122c76 0 138 -48 138 -120zM133 310c0 -32 25 -56 59 -56c33 0 60 24 60 56c0 33 -28 56 -60 56
c-34 0 -59 -23 -59 -56zM118 122c0 -39 30 -67 74 -67c42 0 73 28 73 67c0 37 -31 66 -73 66c-43 0 -74 -28 -74 -66z" />
    <glyph glyph-name="nineinferior" unicode="&#x2089;" horiz-adv-x="385" 
d="M98 0l108 154c-9 -1 -20 -2 -28 -2c-81 0 -144 56 -144 135c0 85 69 146 158 146c91 0 159 -63 159 -144c0 -47 -18 -82 -44 -120l-114 -169h-95zM271 289c0 42 -32 77 -79 77c-46 0 -78 -33 -78 -77c0 -42 31 -74 78 -74s79 31 79 74z" />
    <glyph glyph-name="Euro" unicode="&#x20ac;" 
d="M527 613c-33 19 -78 29 -128 29c-98 0 -178 -62 -205 -164h294l-23 -71h-285c-3 -17 -4 -37 -4 -57c0 -14 1 -35 3 -50h256l-23 -71h-222c19 -95 102 -162 208 -162c52 0 95 11 134 36l35 -76c-42 -28 -104 -45 -175 -45c-172 0 -271 117 -298 247h-80l24 71h47
c-1 14 -2 34 -2 50c0 19 1 42 3 57h-70l25 71h56c38 154 155 248 307 248c59 0 117 -13 154 -33z" />
    <glyph glyph-name="afii61289" unicode="&#x2113;" horiz-adv-x="500" 
d="M428 44c-44 -39 -91 -58 -143 -58c-83 0 -138 48 -138 134v91l-58 -57h-2l-33 48l92 85v253c0 111 63 181 145 181c73 0 122 -52 122 -135c0 -99 -61 -202 -177 -314v-138c0 -64 37 -81 70 -81c27 0 57 12 88 38h2zM339 580c0 47 -21 80 -49 80c-29 0 -54 -35 -54 -105
v-205c68 78 103 160 103 230z" />
    <glyph glyph-name="trademark" unicode="&#x2122;" horiz-adv-x="1000" 
d="M393 708v-72h-127v-340h-81v340h-129v72h337zM937 708v-412h-82v307h-2l-119 -307h-55l-120 307h-2v-307h-81v412h118l113 -292l113 292h117z" />
    <glyph glyph-name="Omega" unicode="&#x3a9;" horiz-adv-x="849" 
d="M424 639c-165 0 -269 -118 -269 -276c0 -144 86 -228 143 -281v-82h-250v88h135c-77 69 -135 158 -135 284c0 210 160 354 376 354s376 -144 376 -354c0 -126 -58 -215 -135 -284h135v-88h-250v82c57 53 143 137 143 281c0 158 -104 276 -269 276z" />
    <glyph glyph-name="estimated" unicode="&#x212e;" horiz-adv-x="901" 
d="M193 335v-184c0 -89 169 -147 270 -147c95 0 195 52 257 124h60c-74 -92 -191 -146 -322 -146c-231 0 -419 167 -419 373c0 205 188 371 417 371c231 0 413 -170 413 -379h-666c-7 0 -10 -3 -10 -12zM203 365h502c7 0 10 3 10 10v185c0 16 -7 36 -17 49
c-68 64 -152 98 -244 98c-94 0 -173 -34 -241 -98c-10 -13 -20 -33 -20 -49v-185c0 -7 3 -10 10 -10z" />
    <glyph glyph-name="onequarter" unicode="&#xbc;" horiz-adv-x="870" 
d="M677 708l-450 -743l-58 31l451 743zM251 712v-426h-80v328l-81 -58l-36 57l130 99h67zM761 426v-270h61v-66h-61v-90h-78v90h-197v63l187 273h88zM683 156v167l-112 -167h112z" />
    <glyph glyph-name="onehalf" unicode="&#xbd;" horiz-adv-x="870" 
d="M251 712v-426h-80v328l-81 -58l-36 57l130 99h67zM677 708l-450 -743l-58 31l451 743zM806 69v-69h-300v66l172 161c24 23 45 47 45 79c0 36 -29 59 -64 59c-40 0 -66 -29 -74 -69h-78c9 82 71 137 153 137c74 0 144 -44 144 -126c0 -55 -33 -93 -73 -129l-121 -109h196z
" />
    <glyph glyph-name="threequarters" unicode="&#xbe;" horiz-adv-x="870" 
d="M129 473v64h30c43 0 85 14 85 58c0 34 -30 57 -65 57c-31 0 -54 -20 -68 -50h-81c24 80 88 117 152 117c77 0 141 -43 141 -121c0 -40 -20 -73 -54 -91c39 -18 66 -53 66 -99c0 -86 -75 -134 -154 -134c-75 0 -138 35 -166 126h83c12 -34 42 -57 82 -57c38 0 75 21 75 65
c0 49 -51 65 -97 65h-29zM687 708l-450 -743l-58 31l451 743zM761 426v-270h61v-66h-61v-90h-78v90h-197v63l187 273h88zM683 156v167l-112 -167h112z" />
    <glyph glyph-name="onethird" unicode="&#x2153;" horiz-adv-x="870" 
d="M251 712v-426h-80v328l-81 -58l-36 57l130 99h67zM667 708l-450 -743l-58 31l451 743zM615 187v64h30c43 0 85 14 85 58c0 34 -30 57 -65 57c-31 0 -54 -20 -68 -50h-81c24 80 88 117 152 117c77 0 141 -43 141 -121c0 -40 -20 -73 -54 -91c39 -18 66 -53 66 -99
c0 -86 -75 -134 -154 -134c-75 0 -138 35 -166 126h83c12 -34 42 -57 82 -57c38 0 75 21 75 65c0 49 -51 65 -97 65h-29z" />
    <glyph glyph-name="twothirds" unicode="&#x2154;" horiz-adv-x="870" 
d="M701 708l-450 -743l-58 31l451 743zM340 355v-69h-300v66l172 161c24 23 45 47 45 79c0 36 -29 59 -64 59c-40 0 -66 -29 -74 -69h-78c9 82 71 137 153 137c74 0 144 -44 144 -126c0 -55 -33 -93 -73 -129l-121 -109h196zM615 187v64h30c43 0 85 14 85 58
c0 34 -30 57 -65 57c-31 0 -54 -20 -68 -50h-81c24 80 88 117 152 117c77 0 141 -43 141 -121c0 -40 -20 -73 -54 -91c39 -18 66 -53 66 -99c0 -86 -75 -134 -154 -134c-75 0 -138 35 -166 126h83c12 -34 42 -57 82 -57c38 0 75 21 75 65c0 49 -51 65 -97 65h-29z" />
    <glyph glyph-name="oneeighth" unicode="&#x215b;" horiz-adv-x="870" 
d="M681 708l-450 -743l-58 31l451 743zM251 712v-426h-80v328l-81 -58l-36 57l130 99h67zM834 313c0 -40 -20 -72 -51 -90c40 -19 67 -57 67 -104c0 -82 -71 -130 -154 -130c-84 0 -154 48 -154 130c0 48 28 85 65 104c-31 17 -50 49 -50 88c0 72 62 122 139 122
c76 0 138 -48 138 -120zM637 310c0 -32 25 -56 59 -56c33 0 60 24 60 56c0 33 -28 56 -60 56c-34 0 -59 -23 -59 -56zM622 122c0 -39 30 -67 74 -67c42 0 73 28 73 67c0 37 -31 66 -73 66c-43 0 -74 -28 -74 -66z" />
    <glyph glyph-name="threeeighths" unicode="&#x215c;" horiz-adv-x="870" 
d="M711 708l-450 -743l-58 31l451 743zM884 326c0 -40 -20 -72 -51 -90c40 -19 67 -57 67 -104c0 -82 -71 -130 -154 -130c-84 0 -154 48 -154 130c0 48 28 85 65 104c-31 17 -50 49 -50 88c0 72 62 122 139 122c76 0 138 -48 138 -120zM687 323c0 -32 25 -56 59 -56
c33 0 60 24 60 56c0 33 -28 56 -60 56c-34 0 -59 -23 -59 -56zM672 135c0 -39 30 -67 74 -67c42 0 73 28 73 67c0 37 -31 66 -73 66c-43 0 -74 -28 -74 -66zM129 473v64h30c43 0 85 14 85 58c0 34 -30 57 -65 57c-31 0 -54 -20 -68 -50h-81c24 80 88 117 152 117
c77 0 141 -43 141 -121c0 -40 -20 -73 -54 -91c39 -18 66 -53 66 -99c0 -86 -75 -134 -154 -134c-75 0 -138 35 -166 126h83c12 -34 42 -57 82 -57c38 0 75 21 75 65c0 49 -51 65 -97 65h-29z" />
    <glyph glyph-name="fiveeighths" unicode="&#x215d;" horiz-adv-x="870" 
d="M711 708l-450 -743l-58 31l451 743zM319 712v-68h-177l-4 -89c15 4 31 4 44 4c89 0 155 -52 155 -136c0 -89 -69 -148 -160 -148c-71 0 -135 38 -160 120h84c13 -32 42 -53 76 -53c44 0 78 30 78 75c0 55 -42 79 -89 79c-15 0 -36 -4 -57 -10l-49 19l8 207h251zM884 326
c0 -40 -20 -72 -51 -90c40 -19 67 -57 67 -104c0 -82 -71 -130 -154 -130c-84 0 -154 48 -154 130c0 48 28 85 65 104c-31 17 -50 49 -50 88c0 72 62 122 139 122c76 0 138 -48 138 -120zM687 323c0 -32 25 -56 59 -56c33 0 60 24 60 56c0 33 -28 56 -60 56
c-34 0 -59 -23 -59 -56zM672 135c0 -39 30 -67 74 -67c42 0 73 28 73 67c0 37 -31 66 -73 66c-43 0 -74 -28 -74 -66z" />
    <glyph glyph-name="seveneighths" unicode="&#x215e;" horiz-adv-x="870" 
d="M711 708l-450 -743l-58 31l451 743zM884 326c0 -40 -20 -72 -51 -90c40 -19 67 -57 67 -104c0 -82 -71 -130 -154 -130c-84 0 -154 48 -154 130c0 48 28 85 65 104c-31 17 -50 49 -50 88c0 72 62 122 139 122c76 0 138 -48 138 -120zM687 323c0 -32 25 -56 59 -56
c33 0 60 24 60 56c0 33 -28 56 -60 56c-34 0 -59 -23 -59 -56zM672 135c0 -39 30 -67 74 -67c42 0 73 28 73 67c0 37 -31 66 -73 66c-43 0 -74 -28 -74 -66zM333 712v-61l-175 -365h-90l178 358h-206v68h293z" />
    <glyph glyph-name="onefifth" unicode="&#x2155;" horiz-adv-x="870" 
d="M711 708l-450 -743l-58 31l451 743zM251 712v-426h-80v328l-81 -58l-36 57l130 99h67zM873 439v-68h-177l-4 -89c15 4 31 4 44 4c89 0 155 -52 155 -136c0 -89 -69 -148 -160 -148c-71 0 -135 38 -160 120h84c13 -32 42 -53 76 -53c44 0 78 30 78 75c0 55 -42 79 -89 79
c-15 0 -36 -4 -57 -10l-49 19l8 207h251z" />
    <glyph glyph-name="twofifths" unicode="&#x2156;" horiz-adv-x="870" 
d="M711 708l-450 -743l-58 31l451 743zM340 355v-69h-300v66l172 161c24 23 45 47 45 79c0 36 -29 59 -64 59c-40 0 -66 -29 -74 -69h-78c9 82 71 137 153 137c74 0 144 -44 144 -126c0 -55 -33 -93 -73 -129l-121 -109h196zM873 439v-68h-177l-4 -89c15 4 31 4 44 4
c89 0 155 -52 155 -136c0 -89 -69 -148 -160 -148c-71 0 -135 38 -160 120h84c13 -32 42 -53 76 -53c44 0 78 30 78 75c0 55 -42 79 -89 79c-15 0 -36 -4 -57 -10l-49 19l8 207h251z" />
    <glyph glyph-name="threefifths" unicode="&#x2157;" horiz-adv-x="870" 
d="M711 708l-450 -743l-58 31l451 743zM873 439v-68h-177l-4 -89c15 4 31 4 44 4c89 0 155 -52 155 -136c0 -89 -69 -148 -160 -148c-71 0 -135 38 -160 120h84c13 -32 42 -53 76 -53c44 0 78 30 78 75c0 55 -42 79 -89 79c-15 0 -36 -4 -57 -10l-49 19l8 207h251zM129 473
v64h30c43 0 85 14 85 58c0 34 -30 57 -65 57c-31 0 -54 -20 -68 -50h-81c24 80 88 117 152 117c77 0 141 -43 141 -121c0 -40 -20 -73 -54 -91c39 -18 66 -53 66 -99c0 -86 -75 -134 -154 -134c-75 0 -138 35 -166 126h83c12 -34 42 -57 82 -57c38 0 75 21 75 65
c0 49 -51 65 -97 65h-29z" />
    <glyph glyph-name="fourfifths" unicode="&#x2158;" horiz-adv-x="870" 
d="M711 708l-450 -743l-58 31l451 743zM873 439v-68h-177l-4 -89c15 4 31 4 44 4c89 0 155 -52 155 -136c0 -89 -69 -148 -160 -148c-71 0 -135 38 -160 120h84c13 -32 42 -53 76 -53c44 0 78 30 78 75c0 55 -42 79 -89 79c-15 0 -36 -4 -57 -10l-49 19l8 207h251zM295 712
v-270h61v-66h-61v-90h-78v90h-197v63l187 273h88zM217 442v167l-112 -167h112z" />
    <glyph glyph-name="onesixth" unicode="&#x2159;" horiz-adv-x="870" 
d="M711 708l-450 -743l-58 31l451 743zM251 712v-426h-80v328l-81 -58l-36 57l130 99h67zM841 439l-109 -159c8 2 19 2 28 2c80 0 144 -57 144 -136c0 -86 -69 -144 -159 -144c-91 0 -158 61 -158 142c0 46 18 81 43 119l117 176h94zM667 143c0 -41 32 -74 78 -74
s78 31 78 75c0 43 -31 74 -77 74c-47 0 -79 -30 -79 -75z" />
    <glyph glyph-name="fivesixths" unicode="&#x215a;" horiz-adv-x="870" 
d="M711 708l-450 -743l-58 31l451 743zM841 439l-109 -159c8 2 19 2 28 2c80 0 144 -57 144 -136c0 -86 -69 -144 -159 -144c-91 0 -158 61 -158 142c0 46 18 81 43 119l117 176h94zM667 143c0 -41 32 -74 78 -74s78 31 78 75c0 43 -31 74 -77 74c-47 0 -79 -30 -79 -75z
M319 712v-68h-177l-4 -89c15 4 31 4 44 4c89 0 155 -52 155 -136c0 -89 -69 -148 -160 -148c-71 0 -135 38 -160 120h84c13 -32 42 -53 76 -53c44 0 78 30 78 75c0 55 -42 79 -89 79c-15 0 -36 -4 -57 -10l-49 19l8 207h251z" />
    <glyph glyph-name="oneseventh" unicode="&#xf506;" horiz-adv-x="870" 
d="M711 708l-450 -743l-58 31l451 743zM251 712v-426h-80v328l-81 -58l-36 57l130 99h67zM887 439v-61l-175 -365h-90l178 358h-206v68h293z" />
    <glyph glyph-name="twosevenths" unicode="&#xf507;" horiz-adv-x="870" 
d="M711 708l-450 -743l-58 31l451 743zM340 355v-69h-300v66l172 161c24 23 45 47 45 79c0 36 -29 59 -64 59c-40 0 -66 -29 -74 -69h-78c9 82 71 137 153 137c74 0 144 -44 144 -126c0 -55 -33 -93 -73 -129l-121 -109h196zM887 439v-61l-175 -365h-90l178 358h-206v68h293
z" />
    <glyph glyph-name="threesevenths" unicode="&#xf508;" horiz-adv-x="870" 
d="M711 708l-450 -743l-58 31l451 743zM887 439v-61l-175 -365h-90l178 358h-206v68h293zM129 473v64h30c43 0 85 14 85 58c0 34 -30 57 -65 57c-31 0 -54 -20 -68 -50h-81c24 80 88 117 152 117c77 0 141 -43 141 -121c0 -40 -20 -73 -54 -91c39 -18 66 -53 66 -99
c0 -86 -75 -134 -154 -134c-75 0 -138 35 -166 126h83c12 -34 42 -57 82 -57c38 0 75 21 75 65c0 49 -51 65 -97 65h-29z" />
    <glyph glyph-name="foursevenths" unicode="&#xf509;" horiz-adv-x="870" 
d="M711 708l-450 -743l-58 31l451 743zM295 712v-270h61v-66h-61v-90h-78v90h-197v63l187 273h88zM217 442v167l-112 -167h112zM887 439v-61l-175 -365h-90l178 358h-206v68h293z" />
    <glyph glyph-name="fivesevenths" unicode="&#xf50a;" horiz-adv-x="870" 
d="M711 708l-450 -743l-58 31l451 743zM319 712v-68h-177l-4 -89c15 4 31 4 44 4c89 0 155 -52 155 -136c0 -89 -69 -148 -160 -148c-71 0 -135 38 -160 120h84c13 -32 42 -53 76 -53c44 0 78 30 78 75c0 55 -42 79 -89 79c-15 0 -36 -4 -57 -10l-49 19l8 207h251zM887 439
v-61l-175 -365h-90l178 358h-206v68h293z" />
    <glyph glyph-name="sixsevenths" unicode="&#xf50b;" horiz-adv-x="870" 
d="M711 708l-450 -743l-58 31l451 743zM287 712l-109 -159c8 2 19 2 28 2c80 0 144 -57 144 -136c0 -86 -69 -144 -159 -144c-91 0 -158 61 -158 142c0 46 18 81 43 119l117 176h94zM113 416c0 -41 32 -74 78 -74s78 31 78 75c0 43 -31 74 -77 74c-47 0 -79 -30 -79 -75z
M887 439v-61l-175 -365h-90l178 358h-206v68h293z" />
    <glyph glyph-name="oneninth" unicode="&#xf50c;" horiz-adv-x="870" 
d="M711 708l-450 -743l-58 31l451 743zM251 712v-426h-80v328l-81 -58l-36 57l130 99h67zM652 13l108 154c-9 -1 -20 -2 -28 -2c-81 0 -144 56 -144 135c0 85 69 146 158 146c91 0 159 -63 159 -144c0 -47 -18 -82 -44 -120l-114 -169h-95zM825 302c0 42 -32 77 -79 77
c-46 0 -78 -33 -78 -77c0 -42 31 -74 78 -74s79 31 79 74z" />
    <glyph glyph-name="twoninths" unicode="&#xf50d;" horiz-adv-x="870" 
d="M711 708l-450 -743l-58 31l451 743zM340 355v-69h-300v66l172 161c24 23 45 47 45 79c0 36 -29 59 -64 59c-40 0 -66 -29 -74 -69h-78c9 82 71 137 153 137c74 0 144 -44 144 -126c0 -55 -33 -93 -73 -129l-121 -109h196zM652 13l108 154c-9 -1 -20 -2 -28 -2
c-81 0 -144 56 -144 135c0 85 69 146 158 146c91 0 159 -63 159 -144c0 -47 -18 -82 -44 -120l-114 -169h-95zM825 302c0 42 -32 77 -79 77c-46 0 -78 -33 -78 -77c0 -42 31 -74 78 -74s79 31 79 74z" />
    <glyph glyph-name="fourninths" unicode="&#xf50e;" horiz-adv-x="870" 
d="M711 708l-450 -743l-58 31l451 743zM295 712v-270h61v-66h-61v-90h-78v90h-197v63l187 273h88zM217 442v167l-112 -167h112zM652 13l108 154c-9 -1 -20 -2 -28 -2c-81 0 -144 56 -144 135c0 85 69 146 158 146c91 0 159 -63 159 -144c0 -47 -18 -82 -44 -120l-114 -169
h-95zM825 302c0 42 -32 77 -79 77c-46 0 -78 -33 -78 -77c0 -42 31 -74 78 -74s79 31 79 74z" />
    <glyph glyph-name="fiveninths" unicode="&#xf50f;" horiz-adv-x="870" 
d="M711 708l-450 -743l-58 31l451 743zM319 712v-68h-177l-4 -89c15 4 31 4 44 4c89 0 155 -52 155 -136c0 -89 -69 -148 -160 -148c-71 0 -135 38 -160 120h84c13 -32 42 -53 76 -53c44 0 78 30 78 75c0 55 -42 79 -89 79c-15 0 -36 -4 -57 -10l-49 19l8 207h251zM652 13
l108 154c-9 -1 -20 -2 -28 -2c-81 0 -144 56 -144 135c0 85 69 146 158 146c91 0 159 -63 159 -144c0 -47 -18 -82 -44 -120l-114 -169h-95zM825 302c0 42 -32 77 -79 77c-46 0 -78 -33 -78 -77c0 -42 31 -74 78 -74s79 31 79 74z" />
    <glyph glyph-name="sevenninths" unicode="&#xf510;" horiz-adv-x="870" 
d="M711 708l-450 -743l-58 31l451 743zM652 13l108 154c-9 -1 -20 -2 -28 -2c-81 0 -144 56 -144 135c0 85 69 146 158 146c91 0 159 -63 159 -144c0 -47 -18 -82 -44 -120l-114 -169h-95zM825 302c0 42 -32 77 -79 77c-46 0 -78 -33 -78 -77c0 -42 31 -74 78 -74
s79 31 79 74zM333 712v-61l-175 -365h-90l178 358h-206v68h293z" />
    <glyph glyph-name="eightninths" unicode="&#xf511;" horiz-adv-x="870" 
d="M711 708l-450 -743l-58 31l451 743zM652 13l108 154c-9 -1 -20 -2 -28 -2c-81 0 -144 56 -144 135c0 85 69 146 158 146c91 0 159 -63 159 -144c0 -47 -18 -82 -44 -120l-114 -169h-95zM825 302c0 42 -32 77 -79 77c-46 0 -78 -33 -78 -77c0 -42 31 -74 78 -74
s79 31 79 74zM330 599c0 -40 -20 -72 -51 -90c40 -19 67 -57 67 -104c0 -82 -71 -130 -154 -130c-84 0 -154 48 -154 130c0 48 28 85 65 104c-31 17 -50 49 -50 88c0 72 62 122 139 122c76 0 138 -48 138 -120zM133 596c0 -32 25 -56 59 -56c33 0 60 24 60 56
c0 33 -28 56 -60 56c-34 0 -59 -23 -59 -56zM118 408c0 -39 30 -67 74 -67c42 0 73 28 73 67c0 37 -31 66 -73 66c-43 0 -74 -28 -74 -66z" />
    <glyph glyph-name="partialdiff" unicode="&#x2202;" horiz-adv-x="611" 
d="M463 238c0 90 -56 171 -158 171c-101 0 -158 -81 -158 -171s57 -172 158 -172c102 0 158 82 158 172zM561 238c0 -146 -111 -251 -256 -251s-255 105 -255 251s110 249 255 249c23 0 39 -4 56 -11l1 2l-162 230h115l178 -268c43 -64 68 -125 68 -202z" />
    <glyph glyph-name="Delta" unicode="&#x2206;" horiz-adv-x="678" 
d="M667 0h-656l276 712h95zM540 83l-207 530l-199 -530h406z" />
    <glyph glyph-name="product" unicode="&#x220f;" horiz-adv-x="726" 
d="M660 -214h-90v917h-413v-917h-91v1000h594v-1000z" />
    <glyph glyph-name="summation" unicode="&#x2211;" horiz-adv-x="626" 
d="M601 -214h-576v72l316 433l-303 422v73h551v-83h-432l292 -412l-311 -423h463v-82z" />
    <glyph glyph-name="uni2126" unicode="&#x2126;" horiz-adv-x="849" 
d="M424 639c-165 0 -269 -118 -269 -276c0 -144 86 -228 143 -281v-82h-250v88h135c-77 69 -135 158 -135 284c0 210 160 354 376 354s376 -144 376 -354c0 -126 -58 -215 -135 -284h135v-88h-250v82c57 53 143 137 143 281c0 158 -104 276 -269 276z" />
    <glyph glyph-name="minus" unicode="&#x2212;" horiz-adv-x="666" 
d="M596 344v-82h-526v82h526z" />
    <glyph glyph-name="uni2215" unicode="&#x2215;" horiz-adv-x="100" 
d="M288 707l-432 -739l-66 33l434 739z" />
    <glyph glyph-name="uni2219" unicode="&#x2219;" horiz-adv-x="260" 
d="M198 303c0 -35 -29 -66 -67 -66s-68 30 -68 65c0 36 29 67 68 67c37 0 67 -30 67 -66z" />
    <glyph glyph-name="radical" unicode="&#x221a;" horiz-adv-x="515" 
d="M526 786l-211 -1000h-86l-158 328l-48 -23l-33 70l124 58l144 -302l178 869h90z" />
    <glyph glyph-name="infinity" unicode="&#x221e;" horiz-adv-x="778" 
d="M681 260c0 49 -29 89 -82 89c-54 0 -107 -54 -143 -90c39 -38 88 -84 146 -84c50 0 79 37 79 85zM361 259c-37 35 -93 89 -147 89c-49 0 -78 -42 -78 -88c0 -50 31 -85 82 -85c52 0 109 49 143 84zM754 263c0 -97 -60 -174 -161 -174c-80 0 -135 51 -185 107
c-52 -56 -101 -106 -183 -106c-101 0 -164 74 -164 172c0 95 60 171 160 171c83 0 137 -55 187 -114c49 58 103 115 186 115c99 0 160 -76 160 -171z" />
    <glyph glyph-name="integral" unicode="&#x222b;" horiz-adv-x="574" 
d="M442 723c0 -25 -19 -42 -44 -42c-48 0 -40 55 -63 55c-25 0 -26 -50 -26 -86c0 -34 2 -67 2 -86v-568c-1 -94 -17 -209 -132 -209c-34 0 -83 14 -83 60c0 23 19 41 42 41c47 0 39 -54 61 -54c25 0 25 65 25 89c0 26 -2 51 -2 65c0 4 1 8 1 12v499c0 22 -1 48 -1 75
c0 98 13 212 132 212c31 0 88 -18 88 -63z" />
    <glyph glyph-name="approxequal" unicode="&#x2248;" horiz-adv-x="666" 
d="M599 440c-8 -79 -46 -155 -137 -155c-41 0 -92 18 -140 36c-48 17 -93 35 -125 35c-41 0 -65 -38 -71 -74h-59c9 77 47 156 136 156c43 0 90 -17 136 -35c47 -17 93 -35 132 -35c42 0 63 34 70 72h58zM599 240c-8 -79 -46 -155 -137 -155c-41 0 -92 18 -140 36
c-48 17 -93 35 -125 35c-41 0 -65 -38 -71 -74h-59c9 77 47 156 136 156c43 0 90 -17 136 -35c47 -17 93 -35 132 -35c42 0 63 34 70 72h58z" />
    <glyph glyph-name="notequal" unicode="&#x2260;" horiz-adv-x="666" 
d="M552 108h-286l-77 -149l-73 38l58 111h-134v84h177l63 123h-240v84h284l77 149l74 -37l-59 -112h136v-84h-179l-64 -123h243v-84z" />
    <glyph glyph-name="lessequal" unicode="&#x2264;" horiz-adv-x="666" 
d="M589 130l-512 179v86l512 183v-89l-397 -137l397 -134v-88zM589 8h-512v84h512v-84z" />
    <glyph glyph-name="greaterequal" unicode="&#x2265;" horiz-adv-x="666" 
d="M589 309l-512 -179v88l397 134l-397 137v89l512 -183v-86zM589 8h-512v84h512v-84z" />
    <glyph glyph-name="lozenge" unicode="&#x25ca;" horiz-adv-x="593" 
d="M511 356l-174 -391h-82l-173 391l173 391h82zM424 356l-128 305l-127 -305l127 -305z" />
    <glyph glyph-name="ff" horiz-adv-x="620" 
d="M6 397v77h94v120c0 147 91 174 163 174h73v-81h-57c-63 0 -85 -12 -85 -107v-106h110v-77h-110v-397h-94v397h-94zM316 397v77h94v120c0 147 91 174 163 174h73v-81h-57c-63 0 -85 -12 -85 -107v-106h110v-77h-110v-397h-94v397h-94z" />
    <glyph glyph-name="fi" unicode="&#xf001;" horiz-adv-x="568" 
d="M6 397v77h94v120c0 147 91 174 163 174h73v-81h-57c-63 0 -85 -12 -85 -107v-106h110v-77h-110v-397h-94v397h-94zM392 0v474h94v-474h-94zM378 661c0 35 26 63 61 63c36 0 63 -28 63 -63s-27 -61 -63 -61c-35 0 -61 26 -61 61z" />
    <glyph glyph-name="fl" unicode="&#xf002;" horiz-adv-x="570" 
d="M6 397v77h94v120c0 147 91 174 163 174h73v-81h-57c-63 0 -85 -12 -85 -107v-106h110v-77h-110v-397h-94v397h-94zM487 756v-756h-94v756h94z" />
    <glyph glyph-name="ffi" horiz-adv-x="878" 
d="M6 397v77h94v120c0 147 91 174 163 174h73v-81h-57c-63 0 -85 -12 -85 -107v-106h110v-77h-110v-397h-94v397h-94zM316 397v77h94v120c0 147 91 174 163 174h73v-81h-57c-63 0 -85 -12 -85 -107v-106h110v-77h-110v-397h-94v397h-94zM702 0v474h94v-474h-94zM688 661
c0 35 26 63 61 63c36 0 63 -28 63 -63s-27 -61 -63 -61c-35 0 -61 26 -61 61z" />
    <glyph glyph-name="ffl" horiz-adv-x="880" 
d="M6 397v77h94v120c0 147 91 174 163 174h73v-81h-57c-63 0 -85 -12 -85 -107v-106h110v-77h-110v-397h-94v397h-94zM316 397v77h94v120c0 147 91 174 163 174h73v-81h-57c-63 0 -85 -12 -85 -107v-106h110v-77h-110v-397h-94v397h-94zM797 756v-756h-94v756h94z" />
    <glyph glyph-name="zero.alt" unicode="&#xf800;" 
d="M298 726c168 0 241 -166 241 -372c0 -207 -73 -372 -241 -372c-169 0 -242 165 -242 372c0 206 73 372 242 372zM298 645c-117 0 -143 -172 -143 -291c0 -120 26 -290 143 -290c115 0 142 170 142 290c0 119 -27 291 -142 291z" />
    <glyph glyph-name="one.alt" unicode="&#xf801;" horiz-adv-x="385" 
d="M299 708v-708h-97v590l-134 -112l-57 67l201 163h87z" />
    <glyph glyph-name="two.alt" unicode="&#xf802;" 
d="M522 87v-87h-462v93l282 280c44 43 78 90 78 150c0 74 -56 122 -126 122c-72 0 -121 -52 -133 -123h-97c14 126 110 204 231 204c118 0 224 -69 224 -201c0 -91 -52 -153 -114 -214l-230 -224h347z" />
    <glyph glyph-name="three.alt" unicode="&#xf803;" 
d="M213 330v80h31c81 0 158 27 158 118c0 71 -58 117 -125 117c-59 0 -103 -33 -124 -87h-101c36 119 129 168 229 168c118 0 218 -67 218 -192c0 -79 -52 -142 -125 -161v-2c83 -17 144 -82 144 -173c0 -141 -116 -216 -237 -216c-117 0 -213 50 -252 186h101
c21 -61 75 -104 149 -104c71 0 142 45 142 135c0 99 -94 131 -178 131h-30z" />
    <glyph glyph-name="four.alt" unicode="&#xf804;" 
d="M451 708v-466h102v-83h-102v-159h-94v159h-326v88l301 461h119zM357 242v355h-2l-224 -355h226z" />
    <glyph glyph-name="five.alt" unicode="&#xf805;" 
d="M490 708v-86h-292l-6 -186c26 9 62 13 91 13c136 0 237 -86 237 -223c0 -148 -106 -244 -247 -244c-110 0 -204 56 -239 177h101c22 -57 75 -95 138 -95c83 0 148 61 148 152c0 107 -78 155 -166 155c-30 0 -65 -7 -95 -16l-61 25l9 328h382z" />
    <glyph glyph-name="six.alt" unicode="&#xf806;" 
d="M421 708l-190 -285l1 -2c20 12 58 19 88 19c124 0 221 -93 221 -222c0 -141 -105 -236 -244 -236c-141 0 -245 99 -245 233c0 77 28 136 69 201l185 292h115zM150 214c0 -83 59 -150 147 -150c87 0 146 63 146 151c0 85 -57 148 -145 148c-89 0 -148 -62 -148 -149z" />
    <glyph glyph-name="seven.alt" unicode="&#xf807;" 
d="M515 708v-88l-284 -620h-111l295 622h-351v86h451z" />
    <glyph glyph-name="eight.alt" unicode="&#xf808;" 
d="M401 373c76 -19 134 -89 134 -180c0 -133 -109 -211 -237 -211c-129 0 -238 78 -238 211c0 94 61 160 134 180v2c-63 22 -109 80 -109 158c0 117 96 193 213 193c116 0 212 -73 212 -191c0 -77 -45 -139 -109 -160v-2zM182 530c0 -65 49 -115 116 -115
c64 0 116 50 116 115c0 68 -53 116 -116 116c-67 0 -116 -48 -116 -116zM159 198c0 -80 57 -135 139 -135c80 0 138 55 138 135c0 77 -58 134 -138 134c-81 0 -139 -56 -139 -134z" />
    <glyph glyph-name="nine.alt" unicode="&#xf809;" 
d="M175 0l190 286l-1 1c-10 -6 -25 -11 -41 -14s-33 -5 -48 -5c-124 0 -221 93 -221 222c0 141 106 236 245 236c140 0 244 -99 244 -233c0 -77 -27 -137 -68 -201l-185 -292h-115zM446 494c0 83 -59 151 -147 151c-87 0 -147 -64 -147 -152c0 -85 58 -148 146 -148
c89 0 148 62 148 149z" />
    <glyph glyph-name="zero.tosf" unicode="&#xf81e;" 
d="M543 253c0 -146 -101 -266 -246 -266s-245 120 -245 266s100 264 245 264s246 -118 246 -264zM445 253c0 90 -46 186 -148 186c-101 0 -148 -96 -148 -186s47 -187 148 -187c102 0 148 97 148 187z" />
    <glyph glyph-name="one.tosf" unicode="&#xf81f;" 
d="M376 504v-504h-94v393l-98 -81l-51 63l159 129h84z" />
    <glyph glyph-name="two.tosf" unicode="&#xf820;" 
d="M499 83v-83h-388v81l214 173c45 36 70 70 70 109c0 49 -39 76 -99 76c-67 0 -107 -34 -115 -95h-94c12 107 85 173 211 173c105 0 195 -46 195 -151c0 -79 -50 -124 -109 -170l-145 -113h260z" />
    <glyph glyph-name="three.tosf" unicode="&#xf821;" 
d="M213 121v80h31c81 0 158 27 158 118c0 71 -58 117 -125 117c-59 0 -103 -33 -124 -87h-101c36 119 129 168 229 168c118 0 218 -67 218 -192c0 -79 -52 -142 -125 -161v-2c83 -17 144 -82 144 -173c0 -141 -116 -216 -237 -216c-117 0 -213 50 -252 186h101
c21 -61 75 -104 149 -104c71 0 142 45 142 135c0 99 -94 131 -178 131h-30z" />
    <glyph glyph-name="four.tosf" unicode="&#xf822;" 
d="M451 505v-422h102v-83h-102v-203h-94v203h-326v88l301 417h119zM357 83v311h-2l-224 -311h226z" />
    <glyph glyph-name="five.tosf" unicode="&#xf823;" 
d="M490 504v-86h-292l-6 -186c26 9 62 13 91 13c136 0 237 -86 237 -223c0 -148 -106 -244 -247 -244c-110 0 -204 56 -239 177h101c22 -57 75 -95 138 -95c83 0 148 61 148 152c0 107 -78 155 -166 155c-30 0 -65 -7 -95 -16l-61 25l9 328h382z" />
    <glyph glyph-name="six.tosf" unicode="&#xf824;" 
d="M421 708l-190 -285l1 -2c20 12 58 19 88 19c124 0 221 -93 221 -222c0 -141 -105 -236 -244 -236c-141 0 -245 99 -245 233c0 77 28 136 69 201l185 292h115zM150 214c0 -83 59 -150 147 -150c87 0 146 63 146 151c0 85 -57 148 -145 148c-89 0 -148 -62 -148 -149z" />
    <glyph glyph-name="seven.tosf" unicode="&#xf825;" 
d="M515 504v-88l-284 -620h-111l295 622h-351v86h451z" />
    <glyph glyph-name="eight.tosf" unicode="&#xf826;" 
d="M401 373c76 -19 134 -89 134 -180c0 -133 -109 -211 -237 -211c-129 0 -238 78 -238 211c0 94 61 160 134 180v2c-63 22 -109 80 -109 158c0 117 96 193 213 193c116 0 212 -73 212 -191c0 -77 -45 -139 -109 -160v-2zM182 530c0 -65 49 -115 116 -115
c64 0 116 50 116 115c0 68 -53 116 -116 116c-67 0 -116 -48 -116 -116zM159 198c0 -80 57 -135 139 -135c80 0 138 55 138 135c0 77 -58 134 -138 134c-81 0 -139 -56 -139 -134z" />
    <glyph glyph-name="nine.tosf" unicode="&#xf827;" 
d="M175 -209l190 286l-1 1c-10 -6 -25 -11 -41 -14s-33 -5 -48 -5c-124 0 -221 93 -221 222c0 141 106 236 245 236c140 0 244 -99 244 -233c0 -77 -27 -137 -68 -201l-185 -292h-115zM446 285c0 83 -59 151 -147 151c-87 0 -147 -64 -147 -152c0 -85 58 -148 146 -148
c89 0 148 62 148 149z" />
    <glyph glyph-name="zero.posf" unicode="&#xf828;" 
d="M543 253c0 -146 -101 -266 -246 -266s-245 120 -245 266s100 264 245 264s246 -118 246 -264zM445 253c0 90 -46 186 -148 186c-101 0 -148 -96 -148 -186s47 -187 148 -187c102 0 148 97 148 187z" />
    <glyph glyph-name="one.posf" unicode="&#xf829;" horiz-adv-x="358" 
d="M277 504v-504h-94v393l-98 -81l-51 63l159 129h84z" />
    <glyph glyph-name="two.posf" unicode="&#xf82a;" horiz-adv-x="529" 
d="M467 83v-83h-397v81l214 173c45 36 70 70 70 109c0 49 -39 76 -99 76c-67 0 -107 -34 -115 -95h-94c12 107 85 173 211 173c105 0 195 -46 195 -151c0 -79 -50 -124 -109 -170l-145 -113h269z" />
    <glyph glyph-name="three.posf" unicode="&#xf82b;" horiz-adv-x="575" 
d="M203 130v80h31c81 0 158 23 158 114c0 71 -58 112 -125 112c-59 0 -103 -33 -124 -87h-101c36 119 129 168 229 168c118 0 218 -62 218 -187c0 -79 -52 -138 -125 -157v-2c83 -17 144 -77 144 -168c0 -141 -116 -212 -237 -212c-117 0 -213 50 -252 186h101
c21 -61 75 -104 149 -104c71 0 142 41 142 131c0 99 -94 126 -178 126h-30z" />
    <glyph glyph-name="four.posf" unicode="&#xf82c;" 
d="M461 505v-422h92v-83h-92v-203h-94v203h-336v88l311 417h119zM367 83v313h-2l-234 -313h236z" />
    <glyph glyph-name="five.posf" unicode="&#xf82d;" 
d="M490 504v-86h-292l-6 -183c26 9 62 13 91 13c136 0 237 -81 237 -218c0 -148 -106 -239 -247 -239c-110 0 -204 56 -239 177h101c22 -57 75 -95 138 -95c83 0 148 56 148 147c0 107 -78 150 -166 150c-30 0 -65 -7 -95 -16l-61 25l9 325h382z" />
    <glyph glyph-name="six.posf" unicode="&#xf82e;" 
d="M324 727l80 -48l-173 -256l1 -2c20 12 58 19 88 19c124 0 221 -93 221 -222c0 -141 -105 -236 -244 -236c-141 0 -245 99 -245 233c0 77 28 136 69 201zM150 214c0 -83 59 -150 147 -150c87 0 146 63 146 151c0 85 -57 148 -145 148c-89 0 -148 -62 -148 -149z" />
    <glyph glyph-name="seven.posf" unicode="&#xf82f;" horiz-adv-x="569" 
d="M495 504v-88l-296 -625l-91 43l291 584h-355v86h451z" />
    <glyph glyph-name="eight.posf" unicode="&#xf830;" 
d="M401 373c76 -19 134 -89 134 -180c0 -133 -109 -211 -237 -211c-129 0 -238 78 -238 211c0 94 61 160 134 180v2c-63 22 -109 80 -109 158c0 117 96 193 213 193c116 0 212 -73 212 -191c0 -77 -45 -139 -109 -160v-2zM182 530c0 -65 49 -115 116 -115
c64 0 116 50 116 115c0 68 -53 116 -116 116c-67 0 -116 -48 -116 -116zM159 198c0 -80 57 -135 139 -135c80 0 138 55 138 135c0 77 -58 134 -138 134c-81 0 -139 -56 -139 -134z" />
    <glyph glyph-name="nine.posf" unicode="&#xf831;" 
d="M286 -209l-81 48l160 238l-1 1c-10 -6 -25 -11 -41 -14s-33 -5 -48 -5c-124 0 -221 93 -221 222c0 141 106 236 245 236c140 0 244 -99 244 -233c0 -77 -27 -137 -68 -201zM446 285c0 83 -59 151 -147 151c-87 0 -147 -64 -147 -152c0 -85 58 -148 146 -148
c89 0 148 62 148 149z" />
    <glyph glyph-name="zero.sups" unicode="&#xf80a;" horiz-adv-x="385" 
d="M192 839c110 0 157 -101 157 -223c0 -123 -47 -221 -157 -221s-157 98 -157 221c0 122 47 223 157 223zM192 772c-62 0 -76 -93 -76 -156c0 -64 14 -154 76 -154c61 0 75 90 75 154c0 63 -14 156 -75 156z" />
    <glyph glyph-name="one.sups" unicode="&#xf80b;" horiz-adv-x="385" 
d="M251 832v-426h-80v328l-81 -58l-36 57l130 99h67z" />
    <glyph glyph-name="two.sups" unicode="&#xf80c;" horiz-adv-x="385" 
d="M340 475v-69h-300v66l172 161c24 23 45 47 45 79c0 36 -29 59 -64 59c-40 0 -66 -29 -74 -69h-78c9 82 71 137 153 137c74 0 144 -44 144 -126c0 -55 -33 -93 -73 -129l-121 -109h196z" />
    <glyph glyph-name="three.sups" unicode="&#xf80d;" horiz-adv-x="385" 
d="M129 593v64h30c43 0 85 14 85 58c0 34 -30 57 -65 57c-31 0 -54 -20 -68 -50h-81c24 80 88 117 152 117c77 0 141 -43 141 -121c0 -40 -20 -73 -54 -91c39 -18 66 -53 66 -99c0 -86 -75 -134 -154 -134c-75 0 -138 35 -166 126h83c12 -34 42 -57 82 -57c38 0 75 21 75 65
c0 49 -51 65 -97 65h-29z" />
    <glyph glyph-name="four.sups" unicode="&#xf80e;" horiz-adv-x="385" 
d="M295 832v-270h61v-66h-61v-90h-78v90h-197v63l187 273h88zM217 562v167l-112 -167h112z" />
    <glyph glyph-name="five.sups" unicode="&#xf80f;" horiz-adv-x="385" 
d="M319 832v-68h-177l-4 -89c15 4 31 4 44 4c89 0 155 -52 155 -136c0 -89 -69 -148 -160 -148c-71 0 -135 38 -160 120h84c13 -32 42 -53 76 -53c44 0 78 30 78 75c0 55 -42 79 -89 79c-15 0 -36 -4 -57 -10l-49 19l8 207h251z" />
    <glyph glyph-name="six.sups" unicode="&#xf810;" horiz-adv-x="385" 
d="M287 832l-109 -159c8 2 19 2 28 2c80 0 144 -57 144 -136c0 -86 -69 -144 -159 -144c-91 0 -158 61 -158 142c0 46 18 81 43 119l117 176h94zM113 536c0 -41 32 -74 78 -74s78 31 78 75c0 43 -31 74 -77 74c-47 0 -79 -30 -79 -75z" />
    <glyph glyph-name="seven.sups" unicode="&#xf811;" horiz-adv-x="385" 
d="M333 832v-61l-175 -365h-90l178 358h-206v68h293z" />
    <glyph glyph-name="eight.sups" unicode="&#xf812;" horiz-adv-x="385" 
d="M330 719c0 -40 -20 -72 -51 -90c40 -19 67 -57 67 -104c0 -82 -71 -130 -154 -130c-84 0 -154 48 -154 130c0 48 28 85 65 104c-31 17 -50 49 -50 88c0 72 62 122 139 122c76 0 138 -48 138 -120zM133 716c0 -32 25 -56 59 -56c33 0 60 24 60 56c0 33 -28 56 -60 56
c-34 0 -59 -23 -59 -56zM118 528c0 -39 30 -67 74 -67c42 0 73 28 73 67c0 37 -31 66 -73 66c-43 0 -74 -28 -74 -66z" />
    <glyph glyph-name="nine.sups" unicode="&#xf813;" horiz-adv-x="385" 
d="M98 406l108 154c-9 -1 -20 -2 -28 -2c-81 0 -144 56 -144 135c0 85 69 146 158 146c91 0 159 -63 159 -144c0 -47 -18 -82 -44 -120l-114 -169h-95zM271 695c0 42 -32 77 -79 77c-46 0 -78 -33 -78 -77c0 -42 31 -74 78 -74s79 31 79 74z" />
    <glyph glyph-name="zero.sinf" unicode="&#xf814;" horiz-adv-x="385" 
d="M192 299c110 0 157 -101 157 -223c0 -123 -47 -221 -157 -221s-157 98 -157 221c0 122 47 223 157 223zM192 232c-62 0 -76 -93 -76 -156c0 -64 14 -154 76 -154c61 0 75 90 75 154c0 63 -14 156 -75 156z" />
    <glyph glyph-name="one.sinf" unicode="&#xf815;" horiz-adv-x="385" 
d="M251 292v-426h-80v328l-81 -58l-36 57l130 99h67z" />
    <glyph glyph-name="two.sinf" unicode="&#xf816;" horiz-adv-x="385" 
d="M340 -65v-69h-300v66l172 161c24 23 45 47 45 79c0 36 -29 59 -64 59c-40 0 -66 -29 -74 -69h-78c9 82 71 137 153 137c74 0 144 -44 144 -126c0 -55 -33 -93 -73 -129l-121 -109h196z" />
    <glyph glyph-name="three.sinf" unicode="&#xf817;" horiz-adv-x="385" 
d="M129 53v64h30c43 0 85 14 85 58c0 34 -30 57 -65 57c-31 0 -54 -20 -68 -50h-81c24 80 88 117 152 117c77 0 141 -43 141 -121c0 -40 -20 -73 -54 -91c39 -18 66 -53 66 -99c0 -86 -75 -134 -154 -134c-75 0 -138 35 -166 126h83c12 -34 42 -57 82 -57c38 0 75 21 75 65
c0 49 -51 65 -97 65h-29z" />
    <glyph glyph-name="four.sinf" unicode="&#xf818;" horiz-adv-x="385" 
d="M295 292v-270h61v-66h-61v-90h-78v90h-197v63l187 273h88zM217 22v167l-112 -167h112z" />
    <glyph glyph-name="five.sinf" unicode="&#xf819;" horiz-adv-x="385" 
d="M319 292v-68h-177l-4 -89c15 4 31 4 44 4c89 0 155 -52 155 -136c0 -89 -69 -148 -160 -148c-71 0 -135 38 -160 120h84c13 -32 42 -53 76 -53c44 0 78 30 78 75c0 55 -42 79 -89 79c-15 0 -36 -4 -57 -10l-49 19l8 207h251z" />
    <glyph glyph-name="six.sinf" unicode="&#xf81a;" horiz-adv-x="385" 
d="M287 292l-109 -159c8 2 19 2 28 2c80 0 144 -57 144 -136c0 -86 -69 -144 -159 -144c-91 0 -158 61 -158 142c0 46 18 81 43 119l117 176h94zM113 -4c0 -41 32 -74 78 -74s78 31 78 75c0 43 -31 74 -77 74c-47 0 -79 -30 -79 -75z" />
    <glyph glyph-name="seven.sinf" unicode="&#xf81b;" horiz-adv-x="385" 
d="M333 292v-61l-175 -365h-90l178 358h-206v68h293z" />
    <glyph glyph-name="eight.sinf" unicode="&#xf81c;" horiz-adv-x="385" 
d="M330 179c0 -40 -20 -72 -51 -90c40 -19 67 -57 67 -104c0 -82 -71 -130 -154 -130c-84 0 -154 48 -154 130c0 48 28 85 65 104c-31 17 -50 49 -50 88c0 72 62 122 139 122c76 0 138 -48 138 -120zM133 176c0 -32 25 -56 59 -56c33 0 60 24 60 56c0 33 -28 56 -60 56
c-34 0 -59 -23 -59 -56zM118 -12c0 -39 30 -67 74 -67c42 0 73 28 73 67c0 37 -31 66 -73 66c-43 0 -74 -28 -74 -66z" />
    <glyph glyph-name="nine.sinf" unicode="&#xf81d;" horiz-adv-x="385" 
d="M98 -134l108 154c-9 -1 -20 -2 -28 -2c-81 0 -144 56 -144 135c0 85 69 146 158 146c91 0 159 -63 159 -144c0 -47 -18 -82 -44 -120l-114 -169h-95zM271 155c0 42 -32 77 -79 77c-46 0 -78 -33 -78 -77c0 -42 31 -74 78 -74s79 31 79 74z" />
    <glyph glyph-name="questiondown.alt" horiz-adv-x="500" 
d="M228 501v15h94v-28c0 -71 -27 -126 -90 -185c-48 -45 -71 -72 -71 -119c0 -64 45 -104 109 -104c66 0 112 49 112 110h97c0 -128 -95 -196 -214 -196c-111 0 -204 64 -204 184c0 85 39 124 96 172c54 46 71 85 71 151zM203 657c0 35 29 66 67 66c37 0 67 -30 67 -65
c0 -36 -29 -66 -67 -66s-67 29 -67 65z" />
    <glyph glyph-name="exclamdown.alt" horiz-adv-x="334" 
d="M206 501l20 -501h-119l20 501h79zM234 648c0 -36 -29 -65 -67 -65s-67 30 -67 66c0 35 30 65 67 65c38 0 67 -31 67 -66z" />
    <glyph glyph-name="guilsinglleft.alt" horiz-adv-x="298" 
d="M39 364l131 195h90l-128 -195l128 -195h-90z" />
    <glyph glyph-name="guilsinglright.alt" horiz-adv-x="298" 
d="M129 559l131 -195l-131 -195h-90l128 195l-128 195h90z" />
    <glyph glyph-name="guillemotleft.alt" horiz-adv-x="509" 
d="M39 364l131 195h90l-128 -195l128 -195h-90zM249 364l131 195h90l-128 -195l128 -195h-90z" />
    <glyph glyph-name="guillemotright.alt" horiz-adv-x="509" 
d="M129 559l131 -195l-131 -195h-90l128 195l-128 195h90zM339 559l131 -195l-131 -195h-90l128 195l-128 195h90z" />
    <glyph glyph-name="parenleft.alt" horiz-adv-x="315" 
d="M119 353c0 -146 51 -292 129 -401l-68 -44c-88 118 -146 278 -146 445s58 327 146 445l68 -44c-78 -109 -129 -255 -129 -401z" />
    <glyph glyph-name="parenright.alt" horiz-adv-x="315" 
d="M196 353c0 146 -51 292 -129 401l68 44c88 -118 146 -278 146 -445s-58 -327 -146 -445l-68 44c78 109 129 255 129 401z" />
    <glyph glyph-name="bracketleft.alt" horiz-adv-x="315" 
d="M236 797v-66h-93v-756h93v-66h-177v888h177z" />
    <glyph glyph-name="bracketright.alt" horiz-adv-x="315" 
d="M79 -91v66h93v756h-93v66h177v-888h-177z" />
    <glyph glyph-name="braceleft.alt" horiz-adv-x="315" 
d="M5 316v74c40 0 74 27 74 90v188c0 92 56 129 118 129h68v-69h-51c-44 0 -51 -38 -51 -72v-183c0 -87 -66 -115 -93 -119v-2c27 -3 93 -27 93 -122v-180c0 -34 7 -72 51 -72h51v-69h-68c-62 0 -118 37 -118 129v184c0 67 -34 94 -74 94z" />
    <glyph glyph-name="braceright.alt" horiz-adv-x="315" 
d="M310 316c-40 0 -74 -27 -74 -94v-184c0 -92 -56 -129 -118 -129h-68v69h52c43 0 50 38 50 72v180c0 95 66 119 94 122v2c-28 4 -94 32 -94 119v183c0 34 -7 72 -50 72h-52v69h68c62 0 118 -37 118 -129v-188c0 -63 34 -90 74 -90v-74z" />
    <glyph glyph-name="bar.alt" horiz-adv-x="403" 
d="M160 -230v1010h83v-1010h-83z" />
    <glyph glyph-name="endash.alt" horiz-adv-x="400" 
d="M370 402v-75h-340v75h340z" />
    <glyph glyph-name="emdash.alt" horiz-adv-x="600" 
d="M570 402v-75h-540v75h540z" />
    <glyph glyph-name="hyphen.alt" horiz-adv-x="320" 
d="M276 404v-80h-232v80h232z" />
    <glyph glyph-name="at.alt" horiz-adv-x="828" 
d="M401 547c43 0 85 -20 108 -51v40h65v-260c0 -41 20 -61 46 -61c48 0 71 87 71 168c0 138 -117 279 -278 279c-163 0 -280 -141 -280 -309c0 -167 117 -307 280 -307c52 0 116 17 151 37l30 -58c-59 -32 -103 -44 -181 -44c-204 0 -353 168 -353 372
c0 207 149 373 353 373c202 0 351 -166 351 -343c0 -118 -48 -234 -148 -234c-31 0 -77 17 -96 64c-27 -46 -77 -62 -125 -62c-102 0 -168 89 -168 198c0 107 66 198 174 198zM507 349c0 71 -37 133 -105 133s-104 -62 -104 -133c0 -72 36 -133 104 -133
c74 0 105 61 105 133z" />
    <glyph glyph-name="ampersand.alt" horiz-adv-x="651" 
d="M610 390c0 -90 -33 -182 -88 -255l107 -135h-109l-56 72c-59 -51 -132 -82 -208 -82c-120 0 -216 77 -216 199c0 102 68 172 161 222c-36 47 -77 103 -77 173c0 108 96 158 186 158c100 0 170 -63 170 -152c0 -100 -88 -167 -158 -203l149 -189c34 57 55 125 55 192h84z
M265 61c53 0 107 24 154 70l-173 223c-59 -35 -123 -76 -123 -158c0 -80 61 -135 142 -135zM277 444l1 -2c51 27 119 72 119 142c0 59 -47 91 -92 91c-47 0 -99 -34 -99 -89c0 -62 65 -132 71 -142z" />
    <glyph glyph-name="A.alt" horiz-adv-x="711" 
d="M186 174l-71 -174h-110l307 708h90l304 -708h-112l-72 174h-336zM354 593l-133 -332h265z" />
    <glyph glyph-name="Q.alt" horiz-adv-x="849" 
d="M800 355c0 -108 -39 -200 -105 -266l67 -67l-63 -62l-74 74c-57 -33 -126 -52 -201 -52c-215 0 -374 155 -374 373c0 221 159 371 374 371c216 0 376 -150 376 -371zM693 355c0 155 -104 284 -269 284c-163 0 -267 -129 -267 -284c0 -158 105 -284 267 -284
c50 0 94 11 132 32l-80 82l61 61l87 -87c44 51 69 119 69 196z" />
    <glyph glyph-name="Oslash.alt" horiz-adv-x="849" 
d="M800 355c0 -218 -160 -373 -376 -373c-72 0 -138 18 -193 48l-71 -93l-62 42l72 95c-75 66 -120 164 -120 281c0 221 159 371 374 371c76 0 145 -19 202 -52l68 89l62 -44l-69 -90c70 -66 113 -161 113 -274zM157 355c0 -79 27 -150 73 -202l339 445
c-40 26 -89 41 -145 41c-163 0 -267 -129 -267 -284zM693 355c0 74 -24 142 -67 193l-338 -442c39 -23 84 -35 136 -35c164 0 269 126 269 284z" />
    <glyph glyph-name="oslash.alt" horiz-adv-x="611" 
d="M561 238c0 -146 -111 -251 -256 -251c-46 0 -88 11 -125 29l-58 -76l-55 36l59 78c-47 45 -76 109 -76 184c0 146 110 249 255 249c47 0 90 -11 128 -31l55 73l54 -38l-56 -73c47 -44 75 -107 75 -180zM147 238c0 -41 12 -81 34 -112l201 264c-22 12 -48 19 -77 19
c-101 0 -158 -81 -158 -171zM463 238c0 39 -11 77 -32 107l-200 -262c21 -11 46 -17 74 -17c102 0 158 82 158 172z" />
    <glyph glyph-name="hungarumlaut.cap" horiz-adv-x="250" 
d="M176 908l-137 -144h-77l100 144h114zM358 908l-136 -144h-77l100 144h113z" />
    <glyph glyph-name="cedilla.cap" horiz-adv-x="250" 
d="M167 0l-46 -69c9 2 17 2 27 2c45 0 94 -19 94 -78c0 -70 -70 -91 -127 -91c-34 0 -75 9 -103 23l20 46c24 -11 51 -17 77 -17c22 0 60 5 60 39c0 29 -26 35 -53 35c-12 0 -28 -3 -41 -7l-20 23l62 94h50z" />
    <glyph glyph-name="tilde.cap" horiz-adv-x="250" 
d="M7 772h-55c10 58 34 116 102 116c25 0 52 -9 75 -20c26 -12 49 -22 67 -22c29 0 41 23 48 46h54c-10 -58 -34 -116 -102 -116c-25 0 -53 10 -77 21c-24 12 -46 21 -65 21c-28 0 -41 -23 -47 -46z" />
    <glyph glyph-name="ogonek.cap" horiz-adv-x="250" 
d="M184 -136l22 -53c-26 -22 -60 -37 -95 -37c-50 0 -97 33 -97 87c0 57 53 112 95 145h54c-36 -35 -72 -79 -72 -121c0 -28 16 -42 42 -42c17 0 37 10 51 21z" />
    <glyph glyph-name="ring.cap" horiz-adv-x="250" 
d="M226 833c0 -57 -45 -99 -101 -99c-55 0 -100 42 -100 98c0 57 44 99 100 99s101 -42 101 -98zM175 833c0 27 -22 47 -50 47c-27 0 -49 -20 -49 -47c0 -28 22 -48 49 -48c28 0 50 20 50 48z" />
    <glyph glyph-name="caron.cap" horiz-adv-x="250" 
d="M290 908l-112 -144h-107l-111 144h90l76 -99l76 99h88z" />
    <glyph glyph-name="macron.cap" horiz-adv-x="250" 
d="M273 864v-67h-296v67h296z" />
    <glyph glyph-name="dieresis.cap" horiz-adv-x="250" 
d="M-34 845c0 32 26 61 62 61c35 0 62 -27 62 -61c0 -33 -27 -60 -62 -60c-36 0 -62 29 -62 60zM160 845c0 32 26 61 62 61c35 0 62 -27 62 -61c0 -33 -27 -60 -62 -60c-36 0 -62 29 -62 60z" />
    <glyph glyph-name="dotaccent.cap" horiz-adv-x="250" 
d="M188 845c0 -34 -29 -60 -63 -60s-62 27 -62 60c0 34 28 61 62 61s63 -26 63 -61z" />
    <glyph glyph-name="circumflex.cap" horiz-adv-x="250" 
d="M179 908l112 -144h-91l-75 99l-76 -99h-90l112 144h108z" />
    <glyph glyph-name="acute.cap" horiz-adv-x="250" 
d="M273 908l-137 -144h-76l99 144h114z" />
    <glyph glyph-name="grave.cap" horiz-adv-x="250" 
d="M114 764l-137 144h114l100 -144h-77z" />
    <glyph glyph-name="breve.cap" horiz-adv-x="250" 
d="M229 908h55c-8 -91 -71 -138 -159 -138c-89 0 -153 46 -159 138h56c9 -51 53 -72 103 -72c54 0 92 18 104 72z" />
    <glyph glyph-name="commaaccent.cap" horiz-adv-x="250" 
d="M202 -45l-78 -190h-79l64 190h93z" />
    <glyph glyph-name="caron.alt" horiz-adv-x="250" 
d="M228 708l-78 -190h-79l64 190h93z" />
    <glyph glyph-name="commaaccent" horiz-adv-x="250" 
d="M75 -102c0 36 24 57 55 57c25 0 55 -14 55 -61c0 -49 -34 -101 -71 -134l-49 25c13 14 32 48 36 64c-15 9 -26 25 -26 49z" />
    <glyph glyph-name="revcommaaccent" horiz-adv-x="250" 
d="M176 588c0 -36 -24 -57 -55 -57c-25 0 -55 14 -55 61c0 49 34 101 71 134l49 -25c-13 -14 -32 -48 -36 -64c15 -9 26 -25 26 -49z" />
    </font>
</defs>
</svg>
