<?xml version="1.0" standalone="no"?>
<!DOCTYPE svg PUBLIC "-//W3C//DTD SVG 1.1//EN" "http://www.w3.org/Graphics/SVG/1.1/DTD/svg11.dtd" >
<svg xmlns="http://www.w3.org/2000/svg" xmlns:xlink="http://www.w3.org/1999/xlink" version="1.1">
<metadata></metadata>
<defs>
<font id="nationalelight" horiz-adv-x="1171" >
<font-face units-per-em="2048" ascent="1638" descent="-410" />
<missing-glyph horiz-adv-x="512" />
<glyph unicode="&#xfb01;" horiz-adv-x="1083" d="M37 891v80h194v286q0 91 25 156.5t67.5 98.5t87.5 47t97 14h113v-82h-101q-52 0 -88 -17.5t-56 -43.5t-30.5 -70.5t-13 -82t-2.5 -95.5v-211h245v-80h-245v-891h-97v891h-196zM766 1352q0 32 22.5 55t53.5 23t53.5 -23t22.5 -55q0 -34 -23 -57t-53 -23q-31 0 -53.5 22.5 t-22.5 57.5zM793 0v971h96v-971h-96z" />
<glyph unicode="&#xfb02;" horiz-adv-x="1085" d="M37 891v80h194v286q0 91 25 156.5t67.5 98.5t87.5 47t97 14h113v-82h-101q-52 0 -88 -17.5t-56 -43.5t-30.5 -70.5t-13 -82t-2.5 -95.5v-211h245v-80h-245v-891h-97v891h-196zM793 0v1548h98v-1548h-98z" />
<glyph unicode="&#xfb03;" horiz-adv-x="1681" d="M37 891v80h194v286q0 91 25 156.5t67.5 98.5t87.5 47t97 14h113v-82h-101q-52 0 -88 -17.5t-56 -43.5t-30.5 -70.5t-13 -82t-2.5 -95.5v-211h245v-80h-245v-891h-97v891h-196zM635 891v80h194v286q0 91 25 156.5t67.5 98.5t87.5 47t97 14h113v-82h-101q-52 0 -88 -17.5 t-56 -43.5t-30.5 -70.5t-13 -82t-2.5 -95.5v-211h246v-80h-246v-891h-97v891h-196zM1364 1352q0 32 22.5 55t53.5 23t53.5 -23t22.5 -55q0 -34 -23 -57t-53 -23q-31 0 -53.5 22.5t-22.5 57.5zM1391 0v971h96v-971h-96z" />
<glyph unicode="&#xfb04;" horiz-adv-x="1683" d="M37 891v80h194v286q0 91 25 156.5t67.5 98.5t87.5 47t97 14h113v-82h-101q-52 0 -88 -17.5t-56 -43.5t-30.5 -70.5t-13 -82t-2.5 -95.5v-211h245v-80h-245v-891h-97v891h-196zM635 891v80h194v286q0 91 25 156.5t67.5 98.5t87.5 47t97 14h113v-82h-101q-52 0 -88 -17.5 t-56 -43.5t-30.5 -70.5t-13 -82t-2.5 -95.5v-211h246v-80h-246v-891h-97v891h-196zM1391 0v1548h98v-1548h-98z" />
<glyph horiz-adv-x="0" />
<glyph horiz-adv-x="682" />
<glyph unicode=" "  horiz-adv-x="512" />
<glyph unicode="&#x09;" horiz-adv-x="512" />
<glyph unicode="&#xa0;" horiz-adv-x="512" />
<glyph unicode="!" horiz-adv-x="606" d="M225 68q0 35 22.5 58.5t55.5 23.5t56.5 -23.5t23.5 -58.5q0 -32 -24 -56t-56 -24t-55 24t-23 56zM240 1450h127l-27 -1042h-74z" />
<glyph unicode="&#x22;" horiz-adv-x="841" d="M223 967v483h88v-483h-88zM530 967v483h88v-483h-88z" />
<glyph unicode="#" horiz-adv-x="1142" d="M68 471v74h227l49 362h-219v76h229l62 467h78l-62 -467h313l62 467h80l-64 -467h213v-76h-223l-49 -362h217v-74h-225l-62 -471h-80l62 471h-314l-61 -471h-78l62 471h-217zM375 545h311l49 362h-311z" />
<glyph unicode="$" d="M102 164l76 65q64 -79 159.5 -124t190.5 -48v639q-73 22 -126.5 44.5t-106.5 56t-86 73.5t-53.5 97.5t-20.5 128.5q0 162 111 262.5t282 116.5v145h66v-143q120 -2 223.5 -41.5t171.5 -118.5l-69 -64q-54 66 -140 103t-186 39v-621q55 -18 94.5 -32.5t87 -36.5 t79.5 -43.5t65 -52.5t52.5 -65t31.5 -79.5t12 -97.5q0 -177 -119 -281.5t-303 -110.5v-147h-66v147q-260 6 -426 189zM233 1098q0 -66 23 -117t67 -86t92 -58t113 -44v598q-124 -11 -209.5 -88.5t-85.5 -204.5zM594 57q138 6 231 87.5t93 222.5q0 53 -18 97.5t-47 75.5 t-73 58t-87 44.5t-99 35.5v-621z" />
<glyph unicode="%" horiz-adv-x="1714" d="M100 1128q0 142 98 241t236 99q139 0 237.5 -99t98.5 -241q0 -140 -98.5 -237.5t-237.5 -97.5t-236.5 97.5t-97.5 237.5zM188 1128q0 -105 72 -178t174 -73t175 73t73 178t-73 179.5t-175 74.5t-174 -74.5t-72 -179.5zM371 -20l897 1529l69 -36l-897 -1532zM944 317 q0 141 98.5 240.5t237.5 99.5q138 0 237 -99.5t99 -240.5t-98.5 -238t-237.5 -97q-140 0 -238 96.5t-98 238.5zM1034 317q0 -106 71.5 -178.5t174.5 -72.5q102 0 174 73t72 178t-72 179.5t-174 74.5q-103 0 -174.5 -74t-71.5 -180z" />
<glyph unicode="&#x26;" horiz-adv-x="1456" d="M135 373q0 78 25 143t75 117t107 91.5t137 80.5q-99 107 -141.5 187t-42.5 169q0 148 99 237t243 89q139 0 233.5 -85.5t94.5 -219.5q0 -70 -25 -128.5t-75 -106.5t-105.5 -84.5t-136.5 -78.5l407 -430q130 181 197 408h110q-90 -280 -241 -477l274 -285h-133l-203 213 q-110 -123 -232.5 -184.5t-236.5 -61.5q-120 0 -217 47.5t-155 141t-58 217.5zM236 375q0 -145 98.5 -235.5t238.5 -90.5q95 0 199.5 58.5t200.5 171.5l-436 462q-140 -66 -220.5 -153.5t-80.5 -212.5zM393 1163q0 -82 43.5 -156t128.5 -165q58 30 98 54t82 56t67.5 64 t41.5 73t16 87q0 101 -67.5 166t-167.5 65q-102 0 -172 -69t-70 -175z" />
<glyph unicode="'" horiz-adv-x="534" d="M223 967v483h88v-483h-88z" />
<glyph unicode="(" horiz-adv-x="624" d="M123 590q0 248 73 487t203 422l76 -45q-120 -165 -191 -402t-71 -462t71 -462t191 -402l-76 -45q-130 183 -203 422t-73 487z" />
<glyph unicode=")" horiz-adv-x="624" d="M147 -274q120 166 191.5 402.5t71.5 461.5t-71.5 461.5t-191.5 402.5l76 45q129 -184 203 -423.5t74 -485.5t-74 -485.5t-203 -423.5z" />
<glyph unicode="*" horiz-adv-x="915" d="M78 1151l28 78l308 -99v320h82v-320l307 99l28 -78l-311 -96l195 -267l-66 -47l-194 271l-195 -271l-65 47l194 267z" />
<glyph unicode="+" horiz-adv-x="1363" d="M182 580v84h459v466h86v-466h453v-84h-453v-465h-86v465h-459z" />
<glyph unicode="," horiz-adv-x="505" d="M121 -252q81 159 119 307q-45 22 -45 76q0 34 21 56t52 22q28 0 50 -22t22 -60q0 -62 -55 -194.5t-105 -219.5z" />
<glyph unicode="-" horiz-adv-x="628" d="M111 471v84h407v-84h-407z" />
<glyph unicode="." horiz-adv-x="505" d="M174 70q0 32 23 56t55 24q34 0 57 -23t23 -57q0 -35 -23.5 -58.5t-56.5 -23.5q-31 0 -54.5 23.5t-23.5 58.5z" />
<glyph unicode="/" horiz-adv-x="763" d="M29 -16l628 1519l76 -28l-629 -1518z" />
<glyph unicode="0" d="M121 725q0 116 13 219t46.5 203.5t85 172t133.5 115.5t187 44t187.5 -44t134 -116t85 -171.5t47 -203t13.5 -219.5t-13.5 -219.5t-47 -203t-85 -171.5t-134 -116t-187.5 -44t-187 44t-133.5 115.5t-85 172t-46.5 203.5t-13 219zM221 725q0 -55 3 -109t13 -122.5 t25.5 -127t44 -117.5t65.5 -100t92 -66.5t122 -25.5q78 0 139.5 33t100 91t65 124t39 146.5t17.5 144t5 129.5q0 55 -3 109t-13 122.5t-26 128t-44 118t-65.5 100t-92.5 67t-122 25.5t-122 -25.5t-92 -67t-65.5 -100.5t-44 -117.5t-25.5 -127.5t-13 -123t-3 -109z" />
<glyph unicode="1" d="M256 1169l340 281h90v-1450h-98v1331l-275 -233z" />
<glyph unicode="2" d="M127 0v100l530 588q109 123 164.5 219t55.5 193q0 135 -87 219t-217 84q-117 0 -200.5 -65.5t-112.5 -182.5h-100q32 157 144 244.5t269 87.5q174 0 289 -105.5t115 -271.5q0 -37 -4.5 -70.5t-18 -69t-24 -61.5t-37 -64.5t-41 -60t-52.5 -66t-55.5 -64.5t-64.5 -72 l-440 -492h747v-90h-860z" />
<glyph unicode="3" d="M98 266h107q40 -94 133.5 -151.5t210.5 -57.5q155 0 248.5 91.5t93.5 242.5q0 68 -24.5 124.5t-64.5 93.5t-92.5 62.5t-106.5 36.5t-109 11h-52v84h52q53 0 102.5 10t95 33.5t79 58t53.5 86t20 115.5q0 130 -84.5 209.5t-212.5 79.5q-90 0 -166 -42.5t-119 -117.5h-104 q57 122 159.5 183t233.5 61q169 0 280 -100t111 -269q0 -128 -75 -223.5t-214 -120.5v-4q161 -28 249.5 -130.5t88.5 -242.5q0 -183 -119.5 -300.5t-320.5 -117.5q-159 0 -278.5 74.5t-174.5 220.5z" />
<glyph unicode="4" d="M80 358v101l639 991h131v-1006h231v-86h-231v-358h-96v358h-674zM178 444h576v895h-6z" />
<glyph unicode="5" d="M102 242h111q108 -185 330 -185q70 0 134.5 25.5t115.5 72.5t81.5 121t30.5 164q0 173 -107 278t-284 105q-114 0 -221 -49l-66 29l15 647h702v-88h-608l-12 -500q89 43 223 43q206 0 332.5 -127t126.5 -329q0 -111 -38 -203t-102 -151t-147.5 -91.5t-175.5 -32.5 q-150 0 -262.5 68.5t-178.5 202.5z" />
<glyph unicode="6" d="M131 422q0 174 129 389l381 639h117l-420 -684q1 0 2 -1t2 -1q45 48 118.5 77t151.5 29q182 0 305 -127t123 -319q0 -198 -129 -325.5t-327 -127.5t-325.5 127t-127.5 324zM229 422q0 -158 100.5 -262.5t256.5 -104.5t255 103.5t99 263.5q0 158 -97.5 263.5t-248.5 105.5 q-153 0 -259 -106t-106 -263z" />
<glyph unicode="7" d="M147 1362v88h834v-98l-598 -1352h-111l611 1362h-736z" />
<glyph unicode="8" d="M137 389q0 135 78.5 240.5t216.5 142.5v4q-115 42 -178.5 133.5t-63.5 200.5q0 163 113.5 266t282.5 103t282 -102t113 -265q0 -110 -63.5 -203t-178.5 -133v-4q142 -42 218.5 -145t76.5 -238q0 -190 -127.5 -304t-320.5 -114q-194 0 -321.5 114.5t-127.5 303.5zM238 391 q0 -146 96.5 -241t251.5 -95t251.5 95t96.5 241q0 148 -100 244t-248 96t-248 -96t-100 -244zM289 1108q0 -121 85 -208t212 -87t213 87t86 208q0 127 -86 208t-213 81q-128 0 -212.5 -80.5t-84.5 -208.5z" />
<glyph unicode="9" d="M131 1028q0 198 129.5 324.5t327.5 126.5q199 0 326.5 -126t127.5 -323q0 -90 -31 -180.5t-98 -204.5l-383 -645h-116l420 692l-3 2q-45 -49 -119.5 -77.5t-152.5 -28.5q-182 0 -305 125t-123 315zM231 1030q0 -157 98 -259.5t251 -102.5q154 0 258 103t104 261 t-99 260.5t-255 102.5q-157 0 -257 -102.5t-100 -262.5z" />
<glyph unicode=":" horiz-adv-x="587" d="M215 70q0 32 23 56t55 24q34 0 57 -23t23 -57q0 -35 -23.5 -58.5t-56.5 -23.5q-31 0 -54.5 23.5t-23.5 58.5zM215 911q0 34 23 58t55 24q33 0 56.5 -23.5t23.5 -56.5q0 -35 -23.5 -58.5t-56.5 -23.5q-32 0 -55 23t-23 57z" />
<glyph unicode=";" horiz-adv-x="587" d="M121 -252q81 159 119 307q-45 22 -45 76q0 34 21 56t52 22q28 0 50 -22t22 -60q0 -62 -55 -194.5t-105 -219.5zM215 911q0 34 23 58t55 24q33 0 56.5 -23.5t23.5 -56.5q0 -35 -23.5 -58.5t-56.5 -23.5q-32 0 -55 23t-23 57z" />
<glyph unicode="&#x3c;" horiz-adv-x="1363" d="M190 584v73l986 465v-88l-881 -413l879 -414v-88z" />
<glyph unicode="=" horiz-adv-x="1363" d="M182 408v84h998v-84h-998zM182 754v82h998v-82h-998z" />
<glyph unicode="&#x3e;" horiz-adv-x="1363" d="M190 119v88l879 414l-879 413v88l984 -465v-73z" />
<glyph unicode="?" horiz-adv-x="987" d="M106 1124q18 169 130 265t276 96q167 0 277 -95t110 -262q0 -63 -13.5 -113t-43.5 -91.5t-57 -68.5t-74 -67q-99 -84 -130.5 -149t-31.5 -186v-43h-96v65q0 110 33.5 184.5t121.5 155.5q7 6 31.5 28.5t30.5 28.5t26 25.5t26 27t21 26t19.5 29.5t13.5 29.5t12 34.5t6 36 t3 42q0 127 -82 200t-209 73q-125 0 -206 -75.5t-95 -195.5h-99zM428 68q0 35 22.5 58.5t55.5 23.5t56.5 -23.5t23.5 -58.5q0 -32 -24 -56t-56 -24q-31 0 -54.5 24t-23.5 56z" />
<glyph unicode="@" horiz-adv-x="1695" d="M106 500q0 157 57.5 298t156 243.5t237 162.5t293.5 60q151 0 284 -52.5t225.5 -142t146 -212t53.5 -257.5q0 -104 -24.5 -197t-65.5 -158t-95 -103t-112 -38q-166 0 -172 177q-91 -187 -281 -187q-103 0 -180 55t-115.5 145.5t-38.5 203.5q0 173 90.5 289t247.5 116 q180 0 268 -180h4v151h72v-573q0 -64 25.5 -98.5t72.5 -34.5q62 0 114.5 63t81 161.5t28.5 207.5q0 160 -81.5 295.5t-226.5 215t-321 79.5q-141 0 -265.5 -56.5t-211.5 -151t-137 -220.5t-50 -262q0 -113 31.5 -218t91 -191.5t140.5 -150.5t186 -99.5t221 -35.5 q137 0 267 57t216 148l43 -59q-223 -217 -526 -217q-163 0 -304 60.5t-238 164t-152.5 244t-55.5 297.5zM555 498q0 -140 66.5 -234t191.5 -94q127 0 196.5 95t69.5 235q0 138 -70.5 233.5t-195.5 95.5t-191.5 -95.5t-66.5 -235.5z" />
<glyph unicode="A" horiz-adv-x="1396" d="M27 0l628 1450h103l610 -1450h-113l-161 395h-789l-166 -395h-112zM340 483h719l-354 867z" />
<glyph unicode="B" horiz-adv-x="1323" d="M203 0v1450h493q69 0 131 -10t122 -35.5t103 -64.5t69 -100.5t26 -139.5q0 -134 -79 -217.5t-202 -112.5v-4q64 -7 123.5 -32.5t111 -69t82.5 -113.5t31 -156q0 -87 -28.5 -156t-76 -113t-112.5 -73t-133 -41t-143 -12h-518zM303 86h397q88 0 160.5 17t130.5 52.5 t90.5 96.5t32.5 143q0 83 -33 147t-90 101t-125 55.5t-145 18.5h-418v-631zM303 803h381q71 0 134 17t115.5 50t83 89t30.5 128q0 76 -29.5 131t-83 86t-120 45.5t-148.5 14.5h-363v-561z" />
<glyph unicode="C" horiz-adv-x="1470" d="M131 725q0 166 56.5 308.5t155.5 242.5t238.5 156.5t301.5 56.5q144 0 277.5 -51.5t217.5 -147.5l-75 -65q-71 83 -186 129.5t-234 46.5q-189 0 -337.5 -91t-228 -244.5t-79.5 -340.5t78.5 -340.5t226.5 -244.5t338 -91q132 0 253.5 53.5t196.5 151.5l78 -59 q-87 -112 -227 -173t-303 -61q-215 0 -386 98t-266.5 272.5t-95.5 393.5z" />
<glyph unicode="D" horiz-adv-x="1570" d="M203 0v1450h442q129 0 245 -26t217 -83t174.5 -140.5t116 -205.5t42.5 -270q0 -146 -42.5 -267t-116 -205t-174.5 -141.5t-217 -84.5t-245 -27h-442zM305 88h318q153 0 280.5 39.5t223.5 116.5t150 200t54 281q0 160 -54 283.5t-150.5 200t-223.5 115t-280 38.5h-318 v-1274z" />
<glyph unicode="E" horiz-adv-x="1257" d="M203 0v1450h934v-88h-836v-571h715v-89h-715v-612h862v-90h-960z" />
<glyph unicode="F" horiz-adv-x="1234" d="M203 0v1450h936v-88h-836v-574h778v-86h-778v-702h-100z" />
<glyph unicode="G" horiz-adv-x="1615" d="M131 729q0 218 97.5 392t271.5 271t393 97q311 0 504 -174l-70 -74q-76 74 -194 117t-240 43q-146 0 -269.5 -53t-207.5 -144t-131 -214t-47 -261q0 -140 46 -263.5t130 -215.5t210.5 -145.5t278.5 -53.5q239 0 426 96v510h-356v86h454v-657q-223 -125 -528 -125 q-225 0 -401 100.5t-271.5 275t-95.5 392.5z" />
<glyph unicode="H" horiz-adv-x="1513" d="M203 0v1450h100v-659h907v659h101v-1450h-101v702h-907v-702h-100z" />
<glyph unicode="I" horiz-adv-x="505" d="M203 0v1450h100v-1450h-100z" />
<glyph unicode="J" horiz-adv-x="921" d="M92 375h98q0 -95 15 -159.5t45.5 -99.5t69.5 -49t94 -14q54 0 93.5 19.5t62.5 51t36.5 81.5t18 100.5t4.5 118.5v1026h100v-1083q0 -190 -80.5 -297t-234.5 -107q-160 0 -241 93.5t-81 318.5z" />
<glyph unicode="K" horiz-adv-x="1304" d="M203 0v1450h100v-913h2l797 913h133l-547 -610l604 -840h-129l-542 764l-318 -354v-410h-100z" />
<glyph unicode="L" horiz-adv-x="1030" d="M203 0v1450h100v-1360h694v-90h-794z" />
<glyph unicode="M" horiz-adv-x="1853" d="M203 0v1450h162l563 -1290l561 1290h162v-1450h-101v1333h-6l-586 -1333h-69l-582 1333h-6v-1333h-98z" />
<glyph unicode="N" horiz-adv-x="1568" d="M203 0v1450h108l953 -1296h4v1296h98v-1450h-111l-952 1296h-2v-1296h-98z" />
<glyph unicode="O" horiz-adv-x="1769" d="M131 725q0 166 57 308.5t157 242.5t239.5 156.5t300.5 56.5t300.5 -56.5t239 -156.5t156.5 -242.5t57 -308.5q0 -165 -57 -307.5t-157 -242.5t-239.5 -157t-299.5 -57t-299.5 57t-239.5 157t-157.5 242.5t-57.5 307.5zM238 725q0 -139 47 -262.5t130 -214.5t205 -144 t265 -53t265 53t205 144t130 214.5t47 262.5q0 140 -47.5 264t-131 215t-205.5 144t-263 53t-263 -53t-205.5 -144t-131 -215t-47.5 -264z" />
<glyph unicode="P" horiz-adv-x="1312" d="M203 0v1450h514q208 0 340.5 -108.5t132.5 -303.5q0 -193 -128 -313.5t-331 -120.5h-428v-604h-100zM303 690h424q155 0 259 93.5t104 250.5q0 154 -105.5 241t-265.5 87h-416v-672z" />
<glyph unicode="Q" horiz-adv-x="1769" d="M131 725q0 166 57 308.5t157 242.5t239.5 156.5t300.5 56.5t300.5 -56.5t239 -156.5t156.5 -242.5t57 -308.5q0 -186 -70.5 -339.5t-197.5 -256.5l143 -143l-69 -68l-152 154q-180 -111 -407 -111q-160 0 -299.5 57t-239.5 157t-157.5 242.5t-57.5 307.5zM238 725 q0 -139 47 -262.5t130 -214.5t205 -144t265 -53q192 0 338 90l-236 238l66 65l245 -245q111 93 172.5 229.5t61.5 296.5q0 140 -47.5 264t-131 215t-205.5 144t-263 53t-263 -53t-205.5 -144t-131 -215t-47.5 -264z" />
<glyph unicode="R" horiz-adv-x="1329" d="M203 0v1450h522q208 0 340.5 -105.5t132.5 -302.5q0 -95 -35.5 -172t-94 -124.5t-126 -74.5t-137.5 -32l428 -639h-123l-414 625h-393v-625h-100zM303 713h408q186 0 286.5 90.5t100.5 236.5q0 159 -111 240.5t-289 81.5h-395v-649z" />
<glyph unicode="S" horiz-adv-x="1167" d="M123 154l72 67q155 -172 376 -172q154 0 258.5 86.5t104.5 224.5q0 54 -20 100t-49.5 77t-78.5 59.5t-90.5 45.5t-101.5 38q-62 21 -100 35t-91 37.5t-85.5 45t-69 53.5t-56.5 67.5t-33.5 83t-13.5 102.5q0 171 128 278t321 107q117 0 222 -44.5t171 -127.5l-69 -64 q-127 148 -326 148q-147 0 -246.5 -79t-99.5 -210q0 -54 18 -99.5t45.5 -76t72 -58t84.5 -44.5t97 -37q189 -67 265 -109q160 -89 194 -231q10 -42 10 -90q0 -180 -134 -293t-329 -113q-101 0 -195.5 33t-152.5 73.5t-98 86.5z" />
<glyph unicode="T" horiz-adv-x="1126" d="M29 1362v88h1069v-88h-484v-1362h-100v1362h-485z" />
<glyph unicode="U" horiz-adv-x="1484" d="M186 545v905h101v-834q0 -57 3 -103.5t14 -107t30 -107.5t53 -95.5t81 -80t116.5 -51.5t156.5 -20q86 0 155 19.5t116 50.5t82 78t54.5 94.5t31 107t15 108.5t3.5 107v834h100v-905q0 -123 -31.5 -225.5t-96 -184.5t-174 -128t-255.5 -46q-117 0 -211 30.5t-157.5 83.5 t-106 127.5t-61.5 160t-19 182.5z" />
<glyph unicode="V" horiz-adv-x="1267" d="M23 1450h110l496 -1331h6l502 1331h108l-559 -1450h-113z" />
<glyph unicode="W" horiz-adv-x="1980" d="M45 1450h107l383 -1321h6l387 1321h123l391 -1321h6l383 1321h104l-430 -1450h-119l-397 1323h-4l-391 -1323h-119z" />
<glyph unicode="X" horiz-adv-x="1263" d="M55 0l514 762l-465 688h123l406 -614l403 614h117l-463 -688l518 -762h-125l-454 684l-451 -684h-123z" />
<glyph unicode="Y" horiz-adv-x="1163" d="M18 1450h121l447 -729l444 729h115l-512 -817v-633h-103v633z" />
<glyph unicode="Z" horiz-adv-x="1214" d="M96 0v98l905 1264h-882v88h997v-100l-907 -1260h926v-90h-1039z" />
<glyph unicode="[" horiz-adv-x="624" d="M150 -319v1818h313v-72h-225v-1675h225v-71h-313z" />
<glyph unicode="\" horiz-adv-x="763" d="M33 1475l76 28l630 -1519l-77 -27z" />
<glyph unicode="]" horiz-adv-x="624" d="M164 -248h223v1675h-223v72h313v-1818h-313v71z" />
<glyph unicode="^" horiz-adv-x="1363" d="M182 543l461 907h78l461 -907h-92l-408 821l-408 -821h-92z" />
<glyph unicode="_" horiz-adv-x="1024" d="M0 -178h1024v-72h-1024v72z" />
<glyph unicode="`" horiz-adv-x="497" d="M2 1450h117l209 -295h-80z" />
<glyph unicode="a" horiz-adv-x="1077" d="M121 254q0 150 107.5 232.5t312.5 82.5q118 0 256 -37v93q0 137 -73 205.5t-210 68.5q-167 0 -285 -115l-57 68q145 129 344 129q185 0 280 -89t95 -280v-612h-92v193h-6q-40 -106 -134 -163t-208 -57q-64 0 -122 17t-105 50t-75 88.5t-28 125.5zM219 256 q0 -71 37.5 -119t90.5 -67t116 -19q83 0 149 30t105 81t59.5 112.5t20.5 128.5v54q-150 39 -271 39q-147 0 -227 -64t-80 -176z" />
<glyph unicode="b" horiz-adv-x="1288" d="M195 0v1548h98v-805h6q57 118 162 186t233 68q210 0 343.5 -149t133.5 -369q0 -142 -59.5 -257.5t-169 -183t-248.5 -67.5q-127 0 -236 65.5t-163 182.5h-6v-219h-94zM287 479q0 -113 50 -210.5t141.5 -156.5t203.5 -59q176 0 282.5 125t106.5 301q0 114 -45.5 212.5 t-135.5 161t-208 62.5q-169 0 -282 -130t-113 -306z" />
<glyph unicode="c" horiz-adv-x="1011" d="M119 483q0 219 140 366.5t353 147.5q100 0 188 -39t146 -106l-65 -55q-118 118 -271 118q-117 0 -208 -60.5t-138 -158t-47 -213.5q0 -114 47 -211t138.5 -158t209.5 -61q83 0 159.5 35t125.5 84l61 -57q-62 -66 -153 -105t-195 -39q-214 0 -352.5 147t-138.5 365z" />
<glyph unicode="d" horiz-adv-x="1288" d="M117 483q0 142 60 259t170 186t247 69q128 0 233 -66.5t164 -182.5h6v800h97v-1548h-95v223h-6q-59 -119 -166 -185.5t-231 -66.5q-139 0 -249.5 68.5t-170 185t-59.5 258.5zM217 483q0 -114 46 -211t136 -158t207 -61q169 0 282 127.5t113 302.5q0 114 -50 213 t-141.5 159t-203.5 60q-117 0 -207 -61.5t-136 -159t-46 -211.5z" />
<glyph unicode="e" horiz-adv-x="1150" d="M119 477q0 219 135.5 369.5t335.5 150.5q107 0 193.5 -42t139.5 -110t81 -150t28 -167q0 -10 -1 -30.5t-1 -30.5h-817q3 -81 30 -154.5t74.5 -131.5t122.5 -92t166 -34q106 0 191 45t143 119l64 -53q-69 -90 -173 -142.5t-233 -52.5q-210 0 -344.5 143t-134.5 363z M215 541h727q-3 161 -103 267.5t-255 106.5q-70 0 -130 -25t-101.5 -64.5t-72.5 -89.5t-46.5 -99.5t-18.5 -95.5z" />
<glyph unicode="f" horiz-adv-x="598" d="M37 891v80h194v286q0 91 25 156.5t67.5 98.5t87.5 47t97 14h113v-82h-101q-52 0 -88 -17.5t-56 -43.5t-30.5 -70.5t-13 -82t-2.5 -95.5v-211h245v-80h-245v-891h-97v891h-196z" />
<glyph unicode="g" horiz-adv-x="1286" d="M119 485q0 141 59.5 257.5t169.5 185.5t248 69q124 0 231 -68t166 -188h6v230h95v-920q0 -91 -15.5 -170.5t-51.5 -151.5t-91.5 -123.5t-140 -81.5t-191.5 -30q-130 0 -244 46t-194 130l63 74q70 -80 169 -122t206 -42q88 0 157 25.5t112.5 68t72 103.5t40 127.5 t11.5 144.5v180h-6q-53 -117 -161.5 -184.5t-233.5 -67.5q-138 0 -248 68t-169.5 183.5t-59.5 256.5zM217 485q0 -113 46 -209t136.5 -156.5t206.5 -60.5q170 0 284 126.5t114 301.5t-114 301.5t-284 126.5q-116 0 -206 -60.5t-136.5 -157.5t-46.5 -212z" />
<glyph unicode="h" horiz-adv-x="1198" d="M195 0v1548h96v-796h6q38 110 136.5 177.5t221.5 67.5q78 0 140 -23.5t102 -62.5t66.5 -94t37.5 -114.5t11 -127.5v-575h-97v573q0 50 -7.5 96t-27.5 92.5t-50 80.5t-79 55t-112 21q-151 0 -249.5 -116t-98.5 -306v-496h-96z" />
<glyph unicode="i" horiz-adv-x="485" d="M168 1352q0 32 22.5 55t53.5 23t53 -23t22 -55q0 -34 -22.5 -57t-52.5 -23q-31 0 -53.5 22.5t-22.5 57.5zM195 0v971h96v-971h-96z" />
<glyph unicode="j" horiz-adv-x="485" d="M-37 -412h45q30 0 55 6t43.5 14.5t32.5 25t23.5 31t16 39.5t9.5 42.5t4.5 48.5t2 49t0.5 52v1075h96v-1155q0 -167 -68.5 -238.5t-204.5 -71.5h-55v82zM168 1352q0 32 22.5 55t53.5 23t53 -23t22 -55q0 -34 -22.5 -57t-52.5 -23q-31 0 -53.5 22.5t-22.5 57.5z" />
<glyph unicode="k" horiz-adv-x="970" d="M195 0v1548h98v-1063h2l461 486h131l-361 -363l412 -608h-127l-352 545l-166 -170v-375h-98z" />
<glyph unicode="l" horiz-adv-x="487" d="M195 0v1548h98v-1548h-98z" />
<glyph unicode="m" horiz-adv-x="1865" d="M199 0v971h94v-211h4q38 107 133 172t211 65q125 0 205 -67.5t112 -188.5h7q44 122 140.5 189t225.5 67q165 0 256.5 -110.5t91.5 -286.5v-600h-96v586q0 61 -13.5 116.5t-42 105.5t-83 80t-127.5 30q-141 0 -237.5 -116.5t-96.5 -295.5v-506h-96v586q0 49 -7 93.5 t-25.5 89t-47 77t-75 52.5t-105.5 20q-141 0 -236.5 -116t-95.5 -296v-506h-96z" />
<glyph unicode="n" horiz-adv-x="1210" d="M199 0v971h92v-219h6q41 114 140.5 179.5t228.5 65.5q88 0 155.5 -29t109 -80.5t63.5 -116t26 -140.5q4 -78 4 -121v-510h-96v586q0 62 -15 118t-46 105.5t-87.5 79t-132.5 29.5q-156 0 -254 -115.5t-98 -306.5v-496h-96z" />
<glyph unicode="o" horiz-adv-x="1243" d="M119 487q0 221 142 365.5t360 144.5q219 0 361 -144t142 -366t-142 -369t-361 -147q-143 0 -258 67t-179.5 185t-64.5 264zM217 487q0 -179 111 -306.5t293 -127.5t293.5 127.5t111.5 306.5q0 116 -48 212.5t-141.5 156t-215.5 59.5t-215.5 -59.5t-141 -156t-47.5 -212.5 z" />
<glyph unicode="p" horiz-adv-x="1288" d="M195 -492v1463h94v-230h6q57 118 164 187t235 69q209 0 342 -147t133 -367q0 -217 -134 -364.5t-343 -147.5q-125 0 -233.5 67t-161.5 183h-6v-713h-96zM285 485q0 -113 50 -212t141.5 -159.5t203.5 -60.5q118 0 208.5 61t136.5 158t46 211t-46 211.5t-136.5 159 t-208.5 61.5q-112 0 -203.5 -59.5t-141.5 -158t-50 -212.5z" />
<glyph unicode="q" horiz-adv-x="1286" d="M117 483q0 144 59 261t168.5 185t249.5 68q128 0 234 -69t165 -187h6v230h95v-1463h-97v717h-6q-53 -117 -161.5 -185.5t-233.5 -68.5q-139 0 -249.5 68.5t-170 185t-59.5 258.5zM217 483q0 -114 46 -211t136 -158t207 -61q169 0 282 127.5t113 302.5q0 114 -50 213 t-141.5 159t-203.5 60q-117 0 -207 -61.5t-136 -159t-46 -211.5z" />
<glyph unicode="r" horiz-adv-x="681" d="M199 0v971h90v-219h6q38 120 123 182.5t192 62.5q35 0 49 -4v-90q-21 6 -49 6q-79 0 -141 -34.5t-99 -92t-56 -126.5t-19 -144v-512h-96z" />
<glyph unicode="s" horiz-adv-x="999" d="M88 145l72 62q64 -66 159.5 -108t194.5 -42q128 0 208.5 56t80.5 151q0 31 -10.5 56t-25 43t-45.5 34t-55.5 25.5t-72 20t-78.5 15.5t-90 15q-146 25 -225.5 84.5t-79.5 167.5q0 127 102 199.5t266 72.5q245 0 383 -145l-67 -61q-51 52 -134 88t-182 36 q-115 0 -193.5 -46t-78.5 -136q0 -36 15 -64.5t40.5 -48.5t66 -35.5t84 -25t101.5 -18.5q93 -14 157.5 -32.5t115.5 -49.5t75.5 -77t24.5 -110q0 -136 -104.5 -216.5t-288.5 -80.5q-137 0 -247.5 51.5t-168.5 118.5z" />
<glyph unicode="t" horiz-adv-x="641" d="M39 891v80h186v272h99v-272h268v-80h-268v-639q0 -54 12.5 -89.5t39 -52t55 -22.5t71.5 -6h96v-82h-117q-49 0 -86.5 8t-64.5 21t-46 37.5t-30 50.5t-17 67t-8 80t-2 96v531h-188z" />
<glyph unicode="u" horiz-adv-x="1193" d="M182 395v576h99v-572q0 -51 7.5 -97t27 -92.5t50 -80.5t80 -55t113.5 -21q150 0 244 116.5t94 303.5v498h96v-971h-92v215h-6q-41 -109 -139 -176.5t-217 -67.5q-97 0 -168.5 35.5t-111.5 97t-58.5 134t-18.5 157.5z" />
<glyph unicode="v" horiz-adv-x="937" d="M39 971h106l328 -869h4l320 869h102l-371 -971h-110z" />
<glyph unicode="w" horiz-adv-x="1482" d="M55 971h105l243 -862h5l278 862h113l280 -862h4l244 862h103l-293 -971h-111l-283 854h-4l-282 -854h-111z" />
<glyph unicode="x" horiz-adv-x="968" d="M43 0l377 512l-334 459h119l278 -396l277 396h117l-334 -459l383 -512h-123l-324 444l-319 -444h-117z" />
<glyph unicode="y" horiz-adv-x="931" d="M39 971h106l330 -883h2l311 883h103l-430 -1149q-15 -40 -23.5 -61t-22.5 -54.5t-24 -51t-26 -42.5t-30 -38t-33.5 -28.5t-40.5 -23t-47 -12.5t-56 -5q-46 0 -99 11l9 84q55 -11 88 -11q75 0 116.5 46t73.5 131l80 217z" />
<glyph unicode="z" horiz-adv-x="913" d="M88 0v84l598 807h-567v80h680v-84l-594 -805h618v-82h-735z" />
<glyph unicode="{" horiz-adv-x="624" d="M4 551v78q156 0 156 217v395q0 134 61.5 196t163.5 62h111v-76h-99q-149 0 -149 -192v-391q0 -119 -46 -178t-110 -70v-4q65 -11 110.5 -69t45.5 -181v-389q0 -195 149 -195h99v-73h-111q-102 0 -163.5 62t-61.5 196v393q0 219 -156 219z" />
<glyph unicode="|" horiz-adv-x="583" d="M248 -498v2054h88v-2054h-88z" />
<glyph unicode="}" horiz-adv-x="624" d="M129 -246h100q76 0 112 52t36 143v389q0 123 45 181t110 69v4q-64 11 -109.5 70t-45.5 178v391q0 192 -148 192h-100v76h111q103 0 165 -61.5t62 -196.5v-395q0 -217 154 -217v-78q-154 0 -154 -219v-393q0 -135 -62 -196.5t-165 -61.5h-111v73z" />
<glyph unicode="~" horiz-adv-x="1363" d="M182 557q114 193 279 193q59 0 107 -16.5t108 -57.5q83 -55 133 -74.5t96 -19.5q119 0 217 161l62 -59q-118 -190 -277 -190q-62 0 -107.5 16.5t-109.5 56.5q-91 59 -132.5 77t-92.5 18q-69 0 -121.5 -41.5t-97.5 -122.5z" />
<glyph unicode="&#xa1;" horiz-adv-x="606" d="M225 918q0 32 23 55.5t55 23.5t56 -23.5t24 -55.5q0 -35 -23.5 -58.5t-56.5 -23.5t-55.5 23.5t-22.5 58.5zM240 -465l26 1043h74l27 -1043h-127z" />
<glyph unicode="&#xa2;" d="M180 709q0 196 115.5 337.5t298.5 170.5v270h90v-264q97 -3 182.5 -42t141.5 -104l-66 -55q-114 114 -258 119v-862q80 1 153 35.5t121 82.5l62 -57q-61 -64 -148.5 -103t-187.5 -40v-236h-90v240q-185 28 -299.5 170t-114.5 338zM279 709q0 -155 85.5 -274t229.5 -148 v846q-144 -29 -229.5 -148.5t-85.5 -275.5z" />
<glyph unicode="&#xa3;" d="M98 45q28 41 70 85t74 76.5t62.5 72t47.5 90.5t17 114v230h-201v75h201v244q0 97 24 178t72 143.5t127 98t182 35.5q162 0 277 -101l-62 -69q-89 86 -217 86q-75 0 -130.5 -24.5t-88.5 -63.5t-53 -98t-26.5 -117.5t-6.5 -132.5v-179h346v-75h-346v-156q0 -128 -25.5 -205 t-83.5 -137q40 0 52 -2q82 -5 174 -68q81 -55 130.5 -73.5t98.5 -18.5q116 0 203 156l98 -2q-51 -124 -131.5 -184t-169.5 -60q-62 0 -107.5 17t-109.5 57q-88 58 -130 76t-95 18q-121 0 -205 -143z" />
<glyph unicode="&#xa4;" horiz-adv-x="1701" d="M266 100l195 197q-115 137 -115 338q0 188 109 326l-189 188l62 61l188 -188q136 123 338 123q203 0 336 -121l184 186l64 -61l-185 -184q109 -134 109 -330q0 -203 -117 -342l193 -193l-62 -61l-194 192q-138 -112 -328 -112q-191 0 -330 117l-198 -197zM446 635 q0 -180 112 -302t296 -122q183 0 295.5 122t112.5 302q0 177 -112.5 297.5t-295.5 120.5q-184 0 -296 -120.5t-112 -297.5z" />
<glyph unicode="&#xa5;" d="M43 1450h119l428 -651l426 651h112l-458 -678h340v-72h-375v-239h375v-74h-375v-387h-98v387h-375v74h375v239h-375v72h346z" />
<glyph unicode="&#xa6;" horiz-adv-x="454" d="M186 334h82v-692h-82v692zM186 690v692h82v-692h-82z" />
<glyph unicode="&#xa7;" d="M168 -106l82 55q49 -69 126 -105.5t169 -36.5q118 0 192 62.5t74 165.5q0 47 -15.5 83.5t-48.5 65.5t-69.5 49.5t-93.5 45.5q-25 11 -66 28.5t-63 27.5t-55 25.5t-51.5 26.5t-43.5 28t-38.5 32t-29 35.5t-23 42.5t-12.5 49.5t-5 58.5q0 111 72.5 183t172.5 99 q-95 48 -140.5 105t-45.5 158q0 146 106.5 228.5t262.5 82.5q108 0 193 -38t134 -110l-73 -57q-35 57 -104.5 91t-153.5 34q-110 0 -189.5 -61t-79.5 -170q0 -49 16.5 -86t52 -64.5t68.5 -45t89 -40.5q62 -26 97 -41t83.5 -39t75 -42.5t57.5 -45t46 -53t25.5 -61t10.5 -74.5 q0 -111 -70 -184t-172 -97q189 -91 189 -262q0 -151 -109.5 -236.5t-267.5 -85.5q-116 0 -215 45t-160 128zM293 639q0 -51 18.5 -90t56.5 -67.5t72.5 -46t89.5 -38.5l119 -47q94 10 161 68t67 155q0 41 -15.5 76t-37.5 59t-60 48t-69.5 38.5t-80.5 34.5l-90 37 q-43 -7 -81.5 -23.5t-73.5 -43t-55.5 -68t-20.5 -92.5z" />
<glyph unicode="&#xa8;" horiz-adv-x="497" d="M2 1339q0 31 22 54.5t54 23.5q31 0 52.5 -23t21.5 -55q0 -33 -22 -55t-52 -22q-32 0 -54 22.5t-22 54.5zM346 1339q0 31 22 54.5t54 23.5q31 0 52.5 -23t21.5 -55q0 -33 -22 -55t-52 -22q-32 0 -54 22.5t-22 54.5z" />
<glyph unicode="&#xa9;" horiz-adv-x="1638" d="M41 723q0 158 62 301.5t166.5 246.5t248.5 163.5t303 60.5q158 0 301.5 -60.5t247.5 -163.5t165.5 -246.5t61.5 -301.5t-61.5 -300.5t-165.5 -244.5t-247.5 -162.5t-301.5 -60.5q-159 0 -303 60.5t-248.5 162.5t-166.5 244.5t-62 300.5zM113 723q0 -142 56.5 -271.5 t151.5 -223t226 -148.5t274 -55q191 0 353 93t257 254t95 351q0 143 -56 273.5t-151 224t-225 149t-273 55.5t-274 -55.5t-226 -149t-151.5 -224t-56.5 -273.5zM399 725q0 204 128.5 333.5t326.5 129.5q84 0 163.5 -32.5t131.5 -90.5l-64 -53q-42 48 -104 75t-127 27 q-162 0 -263.5 -113t-101.5 -276q0 -165 100.5 -276t262.5 -111q70 0 134 26.5t108 73.5l63 -49q-115 -127 -305 -127q-198 0 -325.5 130.5t-127.5 332.5z" />
<glyph unicode="&#xaa;" horiz-adv-x="712" d="M100 664v81h514v-81h-514zM102 1044q0 89 66.5 140t193.5 51q80 0 166 -25v45q0 158 -161 158q-113 0 -191 -78l-45 56q89 86 236 86q129 0 183 -63t54 -202v-331h-74q0 18 -1 53.5t-1 52.5q-36 -58 -94.5 -89.5t-122.5 -31.5q-85 0 -147 45t-62 133zM180 1047 q0 -61 41.5 -89t104.5 -28q91 0 146.5 56t55.5 142v25q-86 25 -155 25q-94 0 -143.5 -34.5t-49.5 -96.5z" />
<glyph unicode="&#xab;" horiz-adv-x="1005" d="M137 489l256 402h96l-251 -402l251 -401h-94zM508 489l256 402h96l-252 -402l252 -401h-94z" />
<glyph unicode="&#xac;" horiz-adv-x="1363" d="M176 754v82h1014v-557h-88v475h-926z" />
<glyph unicode="&#xad;" horiz-adv-x="628" d="M111 471v84h407v-84h-407z" />
<glyph unicode="&#xae;" horiz-adv-x="1638" d="M41 723q0 158 62 301.5t166.5 246.5t248.5 163.5t303 60.5q158 0 301.5 -60.5t247.5 -163.5t165.5 -246.5t61.5 -301.5t-61.5 -300.5t-165.5 -244.5t-247.5 -162.5t-301.5 -60.5q-159 0 -303 60.5t-248.5 162.5t-166.5 244.5t-62 300.5zM113 723q0 -142 56.5 -271.5 t151.5 -223t226 -148.5t274 -55q191 0 353 93t257 254t95 351q0 143 -56 273.5t-151 224t-225 149t-273 55.5t-274 -55.5t-226 -149t-151.5 -224t-56.5 -273.5zM524 279v897h344q131 0 215 -66t84 -190q0 -112 -69.5 -178t-163.5 -74l262 -389h-106l-250 376h-230v-376h-86z M610 729h248q106 0 163.5 53t57.5 136q0 95 -62.5 141.5t-164.5 46.5h-242v-377z" />
<glyph unicode="&#xaf;" horiz-adv-x="497" d="M-10 1255v74h520v-74h-520z" />
<glyph unicode="&#xb0;" horiz-adv-x="819" d="M104 1165q0 126 90 214.5t216 88.5t214.5 -88.5t88.5 -214.5q0 -127 -88.5 -215t-214.5 -88q-127 0 -216.5 88t-89.5 215zM178 1165q0 -95 68.5 -163t163.5 -68t163 68t68 163q0 97 -67.5 164.5t-163.5 67.5t-164 -68t-68 -164z" />
<glyph unicode="&#xb1;" horiz-adv-x="1363" d="M176 698v84h459v369h88v-369h467v-84h-467v-362h-86v362h-461zM180 92v86h1004v-86h-1004z" />
<glyph unicode="&#xb2;" horiz-adv-x="788" d="M96 586v73l332 347q69 72 98 121t29 110q0 75 -46.5 119.5t-121.5 44.5q-67 0 -117 -39t-69 -107h-88q21 101 96.5 159.5t177.5 58.5q112 0 187 -64.5t75 -165.5q0 -35 -10 -69.5t-23 -59.5t-42.5 -61.5t-49 -58t-63.5 -66.5l-256 -269h450v-73h-559z" />
<glyph unicode="&#xb3;" horiz-adv-x="788" d="M72 762h92q25 -54 81.5 -87.5t125.5 -33.5q91 0 145.5 50.5t54.5 133.5q0 61 -38.5 104t-89.5 60t-107 17h-45v69h45q83 0 145 42t62 126q0 70 -50 114t-124 44q-52 0 -97 -25.5t-73 -68.5h-90q40 82 109.5 124t152.5 42q110 0 182 -62t72 -166q0 -68 -37.5 -123 t-108.5 -82q87 -24 132.5 -81.5t45.5 -133.5q0 -113 -77 -185.5t-209 -72.5q-103 0 -181.5 49.5t-117.5 145.5z" />
<glyph unicode="&#xb4;" horiz-adv-x="497" d="M170 1155l209 295h117l-244 -295h-82z" />
<glyph unicode="&#xb5;" horiz-adv-x="1193" d="M182 -492v1463h99v-572q0 -51 7.5 -97t27 -92.5t50 -80.5t80 -55t113.5 -21q150 0 244 116.5t94 303.5v498h96v-971h-92v215h-6q-41 -109 -139 -176.5t-217 -67.5q-166 0 -258 105v-568h-99z" />
<glyph unicode="&#xb6;" horiz-adv-x="1228" d="M129 1057q0 192 121 292.5t340 100.5h436v-1708h-86v1640h-289v-1640h-86v946q-195 0 -315.5 106.5t-120.5 262.5z" />
<glyph unicode="&#xb7;" horiz-adv-x="505" d="M174 555q0 34 23 58t57 24q32 0 55 -24t23 -56q0 -35 -23.5 -58.5t-54.5 -23.5q-33 0 -56.5 23.5t-23.5 56.5z" />
<glyph unicode="&#xb8;" horiz-adv-x="497" d="M31 -426l20 55q70 -37 170 -37q66 0 112 26t46 83q0 94 -129 94q-68 0 -121 -24l-27 26l136 203h63l-111 -164q40 12 93 12q74 0 128 -35t54 -112q0 -48 -23 -83.5t-61 -53.5t-76.5 -26.5t-79.5 -8.5q-102 0 -194 45z" />
<glyph unicode="&#xb9;" horiz-adv-x="788" d="M174 1286l221 172h72v-872h-84v768l-168 -129z" />
<glyph unicode="&#xba;" horiz-adv-x="737" d="M72 1174q0 133 83 218t214 85q132 0 215.5 -84.5t83.5 -218.5q0 -133 -84 -218.5t-215 -85.5q-130 0 -213.5 86t-83.5 218zM90 664v81h569v-81h-569zM152 1174q0 -99 59 -166.5t158 -67.5q101 0 159 67.5t58 166.5q0 100 -58 166.5t-159 66.5q-100 0 -158.5 -66.5 t-58.5 -166.5z" />
<glyph unicode="&#xbb;" horiz-adv-x="1005" d="M143 893h97l256 -404l-256 -399h-95l252 399zM514 893h96l256 -404l-256 -399h-94l252 399z" />
<glyph unicode="&#xbc;" horiz-adv-x="1781" d="M174 1286l221 172h72v-872h-84v768l-168 -129zM358 -25l910 1534l63 -36l-909 -1534zM1020 209v72l405 591h99v-593h143v-70h-143v-209h-86v209h-418zM1110 279h328l-2 479z" />
<glyph unicode="&#xbd;" horiz-adv-x="1781" d="M174 1286l221 172h72v-872h-84v768l-168 -129zM358 -25l910 1534l63 -36l-909 -1534zM1051 0v74l331 346q69 72 98 121t29 110q0 75 -46.5 119.5t-121.5 44.5q-68 0 -117.5 -39t-68.5 -106h-88q21 101 96.5 159t177.5 58q112 0 187.5 -64.5t75.5 -165.5 q0 -35 -10.5 -69.5t-23 -59t-42.5 -62t-49 -58t-64 -66.5l-256 -268h451v-74h-559z" />
<glyph unicode="&#xbe;" horiz-adv-x="1781" d="M72 762h92q25 -54 81.5 -87.5t125.5 -33.5q91 0 145.5 50.5t54.5 133.5q0 61 -38.5 104t-89.5 60t-107 17h-45v69h45q83 0 145 42t62 126q0 70 -50 114t-124 44q-52 0 -97 -25.5t-73 -68.5h-90q40 82 109.5 124t152.5 42q110 0 182 -62t72 -166q0 -68 -37.5 -123 t-108.5 -82q87 -24 132.5 -81.5t45.5 -133.5q0 -113 -77 -185.5t-209 -72.5q-103 0 -181.5 49.5t-117.5 145.5zM379 -25l909 1534l64 -36l-910 -1534zM1020 209v72l405 591h99v-593h143v-70h-143v-209h-86v209h-418zM1110 279h328l-2 479z" />
<glyph unicode="&#xbf;" horiz-adv-x="987" d="M115 -143q0 63 13.5 113t43.5 91.5t57 68.5t74 67q99 84 130.5 149t31.5 186v43h96v-65q0 -110 -33.5 -184.5t-121.5 -155.5q-7 -6 -31.5 -28.5t-30.5 -28.5t-26 -25.5t-26 -27t-21 -26t-19.5 -29.5t-13.5 -29.5t-12 -34.5t-6 -36t-3 -42q0 -127 82 -200t209 -73 q125 0 206 75.5t95 195.5h98q-18 -169 -129.5 -265t-275.5 -96q-167 0 -277 95t-110 262zM428 918q0 32 24 55.5t56 23.5q31 0 54.5 -23.5t23.5 -55.5q0 -35 -22.5 -58.5t-55.5 -23.5t-56.5 23.5t-23.5 58.5z" />
<glyph unicode="&#xc0;" horiz-adv-x="1396" d="M27 0l628 1450h103l610 -1450h-113l-161 395h-789l-166 -395h-112zM340 483h719l-354 867zM418 1862h117l208 -295h-79z" />
<glyph unicode="&#xc1;" horiz-adv-x="1396" d="M27 0l628 1450h103l610 -1450h-113l-161 395h-789l-166 -395h-112zM340 483h719l-354 867zM659 1567l209 295h119l-248 -295h-80z" />
<glyph unicode="&#xc2;" horiz-adv-x="1396" d="M27 0l628 1450h103l610 -1450h-113l-161 395h-789l-166 -395h-112zM340 483h719l-354 867zM424 1567l217 295h115l217 -295h-96l-179 245l-180 -245h-94z" />
<glyph unicode="&#xc3;" horiz-adv-x="1396" d="M27 0l628 1450h103l610 -1450h-113l-161 395h-789l-166 -395h-112zM340 483h719l-354 867zM418 1610q11 81 48.5 128.5t98.5 47.5q57 0 140 -47q52 -28 77 -37.5t49 -9.5q69 0 89 96h59q-11 -80 -49 -126t-99 -46q-60 0 -141 47q-77 47 -125 47q-69 0 -86 -100h-61z" />
<glyph unicode="&#xc4;" horiz-adv-x="1396" d="M27 0l628 1450h103l610 -1450h-113l-161 395h-789l-166 -395h-112zM340 483h719l-354 867zM451 1751q0 31 21.5 53.5t53.5 22.5q31 0 52.5 -22t21.5 -54q0 -33 -22 -55.5t-52 -22.5q-32 0 -53.5 22t-21.5 56zM795 1751q0 31 21.5 53.5t53.5 22.5q31 0 52.5 -22t21.5 -54 q0 -33 -22 -55.5t-52 -22.5q-32 0 -53.5 22t-21.5 56z" />
<glyph unicode="&#xc5;" horiz-adv-x="1396" d="M27 0l594 1370q-57 24 -92 81.5t-35 121.5q0 88 61 148.5t150 60.5q88 0 149 -60.5t61 -148.5q0 -62 -34 -119.5t-90 -81.5l577 -1372h-113l-161 395h-789l-166 -395h-112zM340 483h719l-354 867zM565 1565q0 -59 40.5 -99.5t99.5 -40.5q58 0 98.5 40.5t40.5 99.5t-40 99 t-99 40t-99.5 -40.5t-40.5 -98.5z" />
<glyph unicode="&#xc6;" horiz-adv-x="2093" d="M27 0l854 1450h1093v-88h-803v-571h680v-89h-680v-612h828v-90h-926v395h-702l-230 -395h-114zM420 483h653v879h-141z" />
<glyph unicode="&#xc7;" horiz-adv-x="1470" d="M131 725q0 166 56.5 308.5t155.5 242.5t238.5 156.5t301.5 56.5q144 0 277.5 -51.5t217.5 -147.5l-75 -65q-71 83 -186 129.5t-234 46.5q-189 0 -337.5 -91t-228 -244.5t-79.5 -340.5t78.5 -340.5t226.5 -244.5t338 -91q132 0 253.5 53.5t196.5 151.5l78 -59 q-84 -107 -217.5 -168t-288.5 -66l-84 -125q40 12 92 12q75 0 129 -35t54 -112q0 -48 -23 -83.5t-61 -53.5t-76.5 -26.5t-79.5 -8.5q-103 0 -195 45l21 55q70 -37 170 -37q66 0 112 26t46 83q0 94 -129 94q-68 0 -121 -24l-27 26l109 166q-154 6 -286 65.5t-225 159 t-145.5 238.5t-52.5 299z" />
<glyph unicode="&#xc8;" horiz-adv-x="1257" d="M203 0v1450h934v-88h-836v-571h715v-89h-715v-612h862v-90h-960zM442 1862h117l209 -295h-80z" />
<glyph unicode="&#xc9;" horiz-adv-x="1257" d="M203 0v1450h934v-88h-836v-571h715v-89h-715v-612h862v-90h-960zM563 1567l209 295h119l-248 -295h-80z" />
<glyph unicode="&#xca;" horiz-adv-x="1257" d="M203 0v1450h934v-88h-836v-571h715v-89h-715v-612h862v-90h-960zM385 1567l217 295h115l217 -295h-96l-179 245l-180 -245h-94z" />
<glyph unicode="&#xcb;" horiz-adv-x="1257" d="M203 0v1450h934v-88h-836v-571h715v-89h-715v-612h862v-90h-960zM420 1751q0 31 22 53.5t54 22.5q31 0 52 -22t21 -54q0 -33 -21.5 -55.5t-51.5 -22.5q-32 0 -54 22t-22 56zM764 1751q0 31 22 53.5t54 22.5q31 0 52 -22t21 -54q0 -33 -21.5 -55.5t-51.5 -22.5 q-32 0 -54 22t-22 56z" />
<glyph unicode="&#xcc;" horiz-adv-x="505" d="M-23 1862h117l209 -295h-80zM203 0v1450h100v-1450h-100z" />
<glyph unicode="&#xcd;" horiz-adv-x="505" d="M197 1567l209 295h118l-248 -295h-79zM203 0v1450h100v-1450h-100z" />
<glyph unicode="&#xce;" horiz-adv-x="505" d="M-20 1567l217 295h114l217 -295h-96l-178 245l-180 -245h-94zM203 0v1450h100v-1450h-100z" />
<glyph unicode="&#xcf;" horiz-adv-x="505" d="M6 1751q0 31 22 53.5t54 22.5q31 0 52.5 -22t21.5 -54q0 -33 -22 -55.5t-52 -22.5q-32 0 -54 22t-22 56zM203 0v1450h100v-1450h-100zM350 1751q0 31 22 53.5t54 22.5q31 0 52.5 -22t21.5 -54q0 -33 -22 -55.5t-52 -22.5q-32 0 -54 22t-22 56z" />
<glyph unicode="&#xd0;" horiz-adv-x="1570" d="M43 717v76h160v657h442q129 0 245 -26t217 -83t174.5 -140.5t116 -205.5t42.5 -270q0 -146 -42.5 -267t-116 -205t-174.5 -141.5t-217 -84.5t-245 -27h-442v717h-160zM305 88h318q153 0 280.5 39.5t223.5 116.5t150 200t54 281q0 160 -54 283.5t-150.5 200t-223.5 115 t-280 38.5h-318v-569h524v-76h-524v-629z" />
<glyph unicode="&#xd1;" horiz-adv-x="1568" d="M203 0v1450h108l953 -1296h4v1296h98v-1450h-111l-952 1296h-2v-1296h-98zM475 1610q11 81 49 128.5t99 47.5q56 0 139 -47q86 -47 127 -47q68 0 88 96h59q-11 -80 -48.5 -126t-98.5 -46q-60 0 -141 47q-77 47 -125 47q-69 0 -86 -100h-62z" />
<glyph unicode="&#xd2;" horiz-adv-x="1769" d="M131 725q0 166 57 308.5t157 242.5t239.5 156.5t300.5 56.5t300.5 -56.5t239 -156.5t156.5 -242.5t57 -308.5q0 -165 -57 -307.5t-157 -242.5t-239.5 -157t-299.5 -57t-299.5 57t-239.5 157t-157.5 242.5t-57.5 307.5zM238 725q0 -139 47 -262.5t130 -214.5t205 -144 t265 -53t265 53t205 144t130 214.5t47 262.5q0 140 -47.5 264t-131 215t-205.5 144t-263 53t-263 -53t-205.5 -144t-131 -215t-47.5 -264zM578 1862h116l209 -295h-80z" />
<glyph unicode="&#xd3;" horiz-adv-x="1769" d="M131 725q0 166 57 308.5t157 242.5t239.5 156.5t300.5 56.5t300.5 -56.5t239 -156.5t156.5 -242.5t57 -308.5q0 -165 -57 -307.5t-157 -242.5t-239.5 -157t-299.5 -57t-299.5 57t-239.5 157t-157.5 242.5t-57.5 307.5zM238 725q0 -139 47 -262.5t130 -214.5t205 -144 t265 -53t265 53t205 144t130 214.5t47 262.5q0 140 -47.5 264t-131 215t-205.5 144t-263 53t-263 -53t-205.5 -144t-131 -215t-47.5 -264zM793 1567l208 295h119l-248 -295h-79z" />
<glyph unicode="&#xd4;" horiz-adv-x="1769" d="M131 725q0 166 57 308.5t157 242.5t239.5 156.5t300.5 56.5t300.5 -56.5t239 -156.5t156.5 -242.5t57 -308.5q0 -165 -57 -307.5t-157 -242.5t-239.5 -157t-299.5 -57t-299.5 57t-239.5 157t-157.5 242.5t-57.5 307.5zM238 725q0 -139 47 -262.5t130 -214.5t205 -144 t265 -53t265 53t205 144t130 214.5t47 262.5q0 140 -47.5 264t-131 215t-205.5 144t-263 53t-263 -53t-205.5 -144t-131 -215t-47.5 -264zM588 1567l217 295h115l217 -295h-97l-178 245l-180 -245h-94z" />
<glyph unicode="&#xd5;" horiz-adv-x="1769" d="M131 725q0 166 57 308.5t157 242.5t239.5 156.5t300.5 56.5t300.5 -56.5t239 -156.5t156.5 -242.5t57 -308.5q0 -165 -57 -307.5t-157 -242.5t-239.5 -157t-299.5 -57t-299.5 57t-239.5 157t-157.5 242.5t-57.5 307.5zM238 725q0 -139 47 -262.5t130 -214.5t205 -144 t265 -53t265 53t205 144t130 214.5t47 262.5q0 140 -47.5 264t-131 215t-205.5 144t-263 53t-263 -53t-205.5 -144t-131 -215t-47.5 -264zM582 1610q11 81 48.5 128.5t98.5 47.5q56 0 139 -47q86 -47 127 -47q68 0 88 96h60q-11 -80 -49 -126t-99 -46q-60 0 -141 47 q-77 47 -125 47q-69 0 -86 -100h-61z" />
<glyph unicode="&#xd6;" horiz-adv-x="1769" d="M131 725q0 166 57 308.5t157 242.5t239.5 156.5t300.5 56.5t300.5 -56.5t239 -156.5t156.5 -242.5t57 -308.5q0 -165 -57 -307.5t-157 -242.5t-239.5 -157t-299.5 -57t-299.5 57t-239.5 157t-157.5 242.5t-57.5 307.5zM238 725q0 -139 47 -262.5t130 -214.5t205 -144 t265 -53t265 53t205 144t130 214.5t47 262.5q0 140 -47.5 264t-131 215t-205.5 144t-263 53t-263 -53t-205.5 -144t-131 -215t-47.5 -264zM614 1751q0 31 22 53.5t54 22.5q31 0 52.5 -22t21.5 -54q0 -33 -22 -55.5t-52 -22.5q-32 0 -54 22t-22 56zM958 1751q0 31 22 53.5 t54 22.5q31 0 52.5 -22t21.5 -54q0 -33 -22 -55.5t-52 -22.5q-32 0 -54 22t-22 56z" />
<glyph unicode="&#xd7;" horiz-adv-x="1363" d="M262 264l363 363l-363 362l60 58l362 -361l360 361l60 -58l-363 -360l363 -365l-62 -59l-360 360l-360 -360z" />
<glyph unicode="&#xd8;" horiz-adv-x="1769" d="M131 725q0 166 57 308.5t157 242.5t239.5 156.5t300.5 56.5q257 0 448 -137l133 164l66 -50l-137 -163q116 -105 179.5 -253t63.5 -325q0 -165 -57 -307.5t-157 -242.5t-239.5 -157t-299.5 -57q-269 0 -469 154l-144 -174l-61 49l145 176q-107 103 -166 246.5t-59 312.5z M238 725q0 -142 47 -266t135 -215l850 1032q-167 125 -385 125q-141 0 -263 -53t-205.5 -144t-131 -215t-47.5 -264zM477 188q174 -137 408 -137q143 0 265 53t205 144t130 214.5t47 262.5q0 148 -52.5 277.5t-148.5 222.5z" />
<glyph unicode="&#xd9;" horiz-adv-x="1484" d="M186 545v905h101v-834q0 -57 3 -103.5t14 -107t30 -107.5t53 -95.5t81 -80t116.5 -51.5t156.5 -20q86 0 155 19.5t116 50.5t82 78t54.5 94.5t31 107t15 108.5t3.5 107v834h100v-905q0 -123 -31.5 -225.5t-96 -184.5t-174 -128t-255.5 -46q-117 0 -211 30.5t-157.5 83.5 t-106 127.5t-61.5 160t-19 182.5zM461 1862h117l208 -295h-79z" />
<glyph unicode="&#xda;" horiz-adv-x="1484" d="M186 545v905h101v-834q0 -57 3 -103.5t14 -107t30 -107.5t53 -95.5t81 -80t116.5 -51.5t156.5 -20q86 0 155 19.5t116 50.5t82 78t54.5 94.5t31 107t15 108.5t3.5 107v834h100v-905q0 -123 -31.5 -225.5t-96 -184.5t-174 -128t-255.5 -46q-117 0 -211 30.5t-157.5 83.5 t-106 127.5t-61.5 160t-19 182.5zM639 1567l209 295h119l-248 -295h-80z" />
<glyph unicode="&#xdb;" horiz-adv-x="1484" d="M186 545v905h101v-834q0 -57 3 -103.5t14 -107t30 -107.5t53 -95.5t81 -80t116.5 -51.5t156.5 -20q86 0 155 19.5t116 50.5t82 78t54.5 94.5t31 107t15 108.5t3.5 107v834h100v-905q0 -123 -31.5 -225.5t-96 -184.5t-174 -128t-255.5 -46q-117 0 -211 30.5t-157.5 83.5 t-106 127.5t-61.5 160t-19 182.5zM469 1567l217 295h115l217 -295h-96l-179 245l-180 -245h-94z" />
<glyph unicode="&#xdc;" horiz-adv-x="1484" d="M186 545v905h101v-834q0 -57 3 -103.5t14 -107t30 -107.5t53 -95.5t81 -80t116.5 -51.5t156.5 -20q86 0 155 19.5t116 50.5t82 78t54.5 94.5t31 107t15 108.5t3.5 107v834h100v-905q0 -123 -31.5 -225.5t-96 -184.5t-174 -128t-255.5 -46q-117 0 -211 30.5t-157.5 83.5 t-106 127.5t-61.5 160t-19 182.5zM496 1751q0 31 21.5 53.5t53.5 22.5q31 0 52.5 -22t21.5 -54q0 -33 -22 -55.5t-52 -22.5q-32 0 -53.5 22t-21.5 56zM840 1751q0 31 21.5 53.5t53.5 22.5q31 0 52.5 -22t21.5 -54q0 -33 -22 -55.5t-52 -22.5q-32 0 -53.5 22t-21.5 56z" />
<glyph unicode="&#xdd;" horiz-adv-x="1163" d="M18 1450h121l447 -729l444 729h115l-512 -817v-633h-103v633zM514 1567l209 295h119l-248 -295h-80z" />
<glyph unicode="&#xde;" horiz-adv-x="1187" d="M203 0v1450h100v-315h309q76 0 143.5 -12t129 -40.5t105 -71t69.5 -107t26 -144.5q0 -128 -62.5 -217.5t-164 -130.5t-231.5 -41h-324v-371h-100zM303 457h318q73 0 136 17t115 51.5t81.5 94.5t29.5 138q0 56 -15.5 101t-39.5 75t-61.5 52t-74.5 33.5t-85 18.5t-85.5 9 t-84.5 2h-234v-592z" />
<glyph unicode="&#xdf;" horiz-adv-x="1222" d="M193 0v1092q0 101 25.5 187t76 152.5t133.5 104t190 37.5q171 0 280.5 -100.5t109.5 -264.5q0 -131 -71.5 -216.5t-188.5 -112.5v-5q162 -25 261 -135.5t99 -302.5q0 -206 -128 -332.5t-343 -126.5q-43 0 -115 11v84q68 -11 105 -11q174 0 277.5 103.5t103.5 275.5 q0 190 -113 288.5t-289 98.5h-28v86h28q134 0 219.5 77t85.5 214q0 129 -81.5 206t-211.5 77q-74 0 -132 -23.5t-94.5 -61.5t-60 -91.5t-33 -108.5t-9.5 -117v-1085h-96z" />
<glyph unicode="&#xe0;" horiz-adv-x="1077" d="M121 254q0 150 107.5 232.5t312.5 82.5q118 0 256 -37v93q0 137 -73 205.5t-210 68.5q-167 0 -285 -115l-57 68q145 129 344 129q185 0 280 -89t95 -280v-612h-92v193h-6q-40 -106 -134 -163t-208 -57q-64 0 -122 17t-105 50t-75 88.5t-28 125.5zM219 256 q0 -71 37.5 -119t90.5 -67t116 -19q83 0 149 30t105 81t59.5 112.5t20.5 128.5v54q-150 39 -271 39q-147 0 -227 -64t-80 -176zM287 1450h116l209 -295h-80z" />
<glyph unicode="&#xe1;" horiz-adv-x="1077" d="M121 254q0 150 107.5 232.5t312.5 82.5q118 0 256 -37v93q0 137 -73 205.5t-210 68.5q-167 0 -285 -115l-57 68q145 129 344 129q185 0 280 -89t95 -280v-612h-92v193h-6q-40 -106 -134 -163t-208 -57q-64 0 -122 17t-105 50t-75 88.5t-28 125.5zM219 256 q0 -71 37.5 -119t90.5 -67t116 -19q83 0 149 30t105 81t59.5 112.5t20.5 128.5v54q-150 39 -271 39q-147 0 -227 -64t-80 -176zM422 1155l209 295h117l-244 -295h-82z" />
<glyph unicode="&#xe2;" horiz-adv-x="1077" d="M121 254q0 150 107.5 232.5t312.5 82.5q118 0 256 -37v93q0 137 -73 205.5t-210 68.5q-167 0 -285 -115l-57 68q145 129 344 129q185 0 280 -89t95 -280v-612h-92v193h-6q-40 -106 -134 -163t-208 -57q-64 0 -122 17t-105 50t-75 88.5t-28 125.5zM219 256 q0 -71 37.5 -119t90.5 -67t116 -19q83 0 149 30t105 81t59.5 112.5t20.5 128.5v54q-150 39 -271 39q-147 0 -227 -64t-80 -176zM264 1155l217 295h115l217 -295h-96l-178 246l-181 -246h-94z" />
<glyph unicode="&#xe3;" horiz-adv-x="1077" d="M121 254q0 150 107.5 232.5t312.5 82.5q118 0 256 -37v93q0 137 -73 205.5t-210 68.5q-167 0 -285 -115l-57 68q145 129 344 129q185 0 280 -89t95 -280v-612h-92v193h-6q-40 -106 -134 -163t-208 -57q-64 0 -122 17t-105 50t-75 88.5t-28 125.5zM219 256 q0 -71 37.5 -119t90.5 -67t116 -19q83 0 149 30t105 81t59.5 112.5t20.5 128.5v54q-150 39 -271 39q-147 0 -227 -64t-80 -176zM258 1198q11 81 49 128.5t99 47.5q56 0 139 -47q86 -47 127 -47q68 0 88 96h59q-11 -80 -48.5 -126t-98.5 -46t-142 47q-74 47 -124 47 q-70 0 -87 -100h-61z" />
<glyph unicode="&#xe4;" horiz-adv-x="1077" d="M121 254q0 150 107.5 232.5t312.5 82.5q118 0 256 -37v93q0 137 -73 205.5t-210 68.5q-167 0 -285 -115l-57 68q145 129 344 129q185 0 280 -89t95 -280v-612h-92v193h-6q-40 -106 -134 -163t-208 -57q-64 0 -122 17t-105 50t-75 88.5t-28 125.5zM219 256 q0 -71 37.5 -119t90.5 -67t116 -19q83 0 149 30t105 81t59.5 112.5t20.5 128.5v54q-150 39 -271 39q-147 0 -227 -64t-80 -176zM291 1339q0 31 22 54.5t54 23.5q31 0 52 -23t21 -55q0 -33 -21.5 -55t-51.5 -22q-32 0 -54 22.5t-22 54.5zM635 1339q0 31 22 54.5t54 23.5 q31 0 52 -23t21 -55q0 -33 -21.5 -55t-51.5 -22q-32 0 -54 22.5t-22 54.5z" />
<glyph unicode="&#xe5;" horiz-adv-x="1077" d="M121 254q0 150 107.5 232.5t312.5 82.5q118 0 256 -37v93q0 137 -73 205.5t-210 68.5q-167 0 -285 -115l-57 68q145 129 344 129q185 0 280 -89t95 -280v-612h-92v193h-6q-40 -106 -134 -163t-208 -57q-64 0 -122 17t-105 50t-75 88.5t-28 125.5zM219 256 q0 -71 37.5 -119t90.5 -67t116 -19q83 0 149 30t105 81t59.5 112.5t20.5 128.5v54q-150 39 -271 39q-147 0 -227 -64t-80 -176zM338 1333q0 84 58.5 140.5t142.5 56.5q83 0 140.5 -56.5t57.5 -140.5t-57.5 -140t-140.5 -56t-142 56t-59 140zM401 1333q0 -58 39.5 -97.5 t98.5 -39.5q57 0 97 39.5t40 97.5q0 57 -40 97t-97 40q-58 0 -98 -40t-40 -97z" />
<glyph unicode="&#xe6;" horiz-adv-x="1824" d="M121 254q0 150 107.5 232.5t312.5 82.5q118 0 256 -37v93q0 139 -74 214.5t-209 75.5q-168 0 -285 -114l-57 67q145 129 344 129q292 0 350 -245q64 112 167.5 178.5t230.5 66.5q107 0 193.5 -42.5t139.5 -111.5t81 -151.5t28 -167.5q0 -41 -2 -61h-817q3 -81 30 -153.5 t74.5 -130t122.5 -91t166 -33.5q106 0 191 45t143 119l63 -53q-67 -90 -171.5 -142.5t-233.5 -52.5q-149 0 -261.5 78.5t-166.5 210.5h-4q-93 -287 -389 -287q-64 0 -122 17t-105 50t-75 88.5t-28 125.5zM219 256q0 -71 37.5 -119t90.5 -67t116 -19q83 0 149 30t105 81 t59.5 112.5t20.5 128.5v54q-139 39 -275 39q-144 0 -223.5 -65t-79.5 -175zM889 537h727q-3 162 -103.5 270t-255.5 108q-69 0 -129.5 -25.5t-102 -65.5t-72 -90.5t-46 -100.5t-18.5 -96z" />
<glyph unicode="&#xe7;" horiz-adv-x="1011" d="M119 483q0 219 140 366.5t353 147.5q100 0 188 -39t146 -106l-65 -55q-118 118 -271 118q-117 0 -208 -60.5t-138 -158t-47 -213.5q0 -114 47 -211t138.5 -158t209.5 -61q83 0 159.5 35t125.5 84l61 -57q-62 -66 -153 -105t-195 -39q-19 0 -55 4l-92 -139q40 12 92 12 q74 0 128 -35t54 -112q0 -48 -23 -83.5t-60.5 -53.5t-76.5 -26.5t-79 -8.5q-103 0 -195 45l21 55q70 -37 170 -37q65 0 111 26t46 83q0 94 -129 94q-68 0 -121 -24l-26 26l123 187q-170 37 -274.5 175t-104.5 324z" />
<glyph unicode="&#xe8;" horiz-adv-x="1150" d="M119 477q0 219 135.5 369.5t335.5 150.5q107 0 193.5 -42t139.5 -110t81 -150t28 -167q0 -10 -1 -30.5t-1 -30.5h-817q3 -81 30 -154.5t74.5 -131.5t122.5 -92t166 -34q106 0 191 45t143 119l64 -53q-69 -90 -173 -142.5t-233 -52.5q-210 0 -344.5 143t-134.5 363z M215 541h727q-3 161 -103 267.5t-255 106.5q-70 0 -130 -25t-101.5 -64.5t-72.5 -89.5t-46.5 -99.5t-18.5 -95.5zM336 1450h117l209 -295h-80z" />
<glyph unicode="&#xe9;" horiz-adv-x="1150" d="M119 477q0 219 135.5 369.5t335.5 150.5q107 0 193.5 -42t139.5 -110t81 -150t28 -167q0 -10 -1 -30.5t-1 -30.5h-817q3 -81 30 -154.5t74.5 -131.5t122.5 -92t166 -34q106 0 191 45t143 119l64 -53q-69 -90 -173 -142.5t-233 -52.5q-210 0 -344.5 143t-134.5 363z M215 541h727q-3 161 -103 267.5t-255 106.5q-70 0 -130 -25t-101.5 -64.5t-72.5 -89.5t-46.5 -99.5t-18.5 -95.5zM528 1155l209 295h117l-244 -295h-82z" />
<glyph unicode="&#xea;" horiz-adv-x="1150" d="M119 477q0 219 135.5 369.5t335.5 150.5q107 0 193.5 -42t139.5 -110t81 -150t28 -167q0 -10 -1 -30.5t-1 -30.5h-817q3 -81 30 -154.5t74.5 -131.5t122.5 -92t166 -34q106 0 191 45t143 119l64 -53q-69 -90 -173 -142.5t-233 -52.5q-210 0 -344.5 143t-134.5 363z M215 541h727q-3 161 -103 267.5t-255 106.5q-70 0 -130 -25t-101.5 -64.5t-72.5 -89.5t-46.5 -99.5t-18.5 -95.5zM305 1155l217 295h115l217 -295h-96l-178 246l-181 -246h-94z" />
<glyph unicode="&#xeb;" horiz-adv-x="1150" d="M119 477q0 219 135.5 369.5t335.5 150.5q107 0 193.5 -42t139.5 -110t81 -150t28 -167q0 -10 -1 -30.5t-1 -30.5h-817q3 -81 30 -154.5t74.5 -131.5t122.5 -92t166 -34q106 0 191 45t143 119l64 -53q-69 -90 -173 -142.5t-233 -52.5q-210 0 -344.5 143t-134.5 363z M215 541h727q-3 161 -103 267.5t-255 106.5q-70 0 -130 -25t-101.5 -64.5t-72.5 -89.5t-46.5 -99.5t-18.5 -95.5zM332 1339q0 31 22 54.5t54 23.5q31 0 52 -23t21 -55q0 -33 -21.5 -55t-51.5 -22q-32 0 -54 22.5t-22 54.5zM676 1339q0 31 22 54.5t54 23.5q31 0 52 -23 t21 -55q0 -33 -21.5 -55t-51.5 -22q-32 0 -54 22.5t-22 54.5z" />
<glyph unicode="&#xec;" horiz-adv-x="485" d="M-2 1450h117l209 -295h-80zM184 0v971h97v-971h-97z" />
<glyph unicode="&#xed;" horiz-adv-x="485" d="M180 1155l209 295h117l-244 -295h-82zM215 0v971h96v-971h-96z" />
<glyph unicode="&#xee;" horiz-adv-x="485" d="M-16 1155l217 295h114l217 -295h-96l-178 246l-180 -246h-94zM195 0v971h96v-971h-96z" />
<glyph unicode="&#xef;" horiz-adv-x="485" d="M4 1339q0 31 22 54.5t54 23.5q31 0 52.5 -23t21.5 -55q0 -33 -22 -55t-52 -22q-32 0 -54 22.5t-22 54.5zM201 0v971h96v-971h-96zM348 1339q0 31 22 54.5t54 23.5q31 0 52.5 -23t21.5 -55q0 -33 -22 -55t-52 -22q-32 0 -54 22.5t-22 54.5z" />
<glyph unicode="&#xf0;" horiz-adv-x="1243" d="M115 487q0 221 141 365.5t358 144.5q204 0 336 -147q1 0 2 1t2 1q-6 15 -15.5 31t-22 36.5t-19.5 32.5q-129 201 -268 383l-271 -131l-53 53l277 134q-22 27 -65.5 75t-57.5 64l86 41q102 -117 119 -139l254 122l57 -51l-262 -127q161 -218 286 -426q123 -207 123 -446 q0 -109 -35 -206t-98.5 -169.5t-159.5 -115t-211 -42.5q-219 0 -361 147t-142 369zM213 487q0 -116 47.5 -213.5t141 -158t216.5 -60.5q122 0 215.5 60.5t141 158t47.5 213.5t-47.5 212.5t-141 156t-215.5 59.5q-123 0 -216.5 -59.5t-141 -156t-47.5 -212.5z" />
<glyph unicode="&#xf1;" horiz-adv-x="1210" d="M199 0v971h92v-219h6q41 114 140.5 179.5t228.5 65.5q88 0 155.5 -29t109 -80.5t63.5 -116t26 -140.5q4 -78 4 -121v-510h-96v586q0 62 -15 118t-46 105.5t-87.5 79t-132.5 29.5q-156 0 -254 -115.5t-98 -306.5v-496h-96zM342 1198q11 81 48.5 128.5t98.5 47.5 q57 0 140 -47q86 -47 127 -47q68 0 88 96h59q-11 -80 -48.5 -126t-98.5 -46t-142 47q-74 47 -125 47q-69 0 -86 -100h-61z" />
<glyph unicode="&#xf2;" horiz-adv-x="1243" d="M119 487q0 221 142 365.5t360 144.5q219 0 361 -144t142 -366t-142 -369t-361 -147q-143 0 -258 67t-179.5 185t-64.5 264zM217 487q0 -179 111 -306.5t293 -127.5t293.5 127.5t111.5 306.5q0 116 -48 212.5t-141.5 156t-215.5 59.5t-215.5 -59.5t-141 -156t-47.5 -212.5 zM342 1450h117l209 -295h-80z" />
<glyph unicode="&#xf3;" horiz-adv-x="1243" d="M119 487q0 221 142 365.5t360 144.5q219 0 361 -144t142 -366t-142 -369t-361 -147q-143 0 -258 67t-179.5 185t-64.5 264zM217 487q0 -179 111 -306.5t293 -127.5t293.5 127.5t111.5 306.5q0 116 -48 212.5t-141.5 156t-215.5 59.5t-215.5 -59.5t-141 -156t-47.5 -212.5 zM541 1155l209 295h116l-243 -295h-82z" />
<glyph unicode="&#xf4;" horiz-adv-x="1243" d="M119 487q0 221 142 365.5t360 144.5q219 0 361 -144t142 -366t-142 -369t-361 -147q-143 0 -258 67t-179.5 185t-64.5 264zM217 487q0 -179 111 -306.5t293 -127.5t293.5 127.5t111.5 306.5q0 116 -48 212.5t-141.5 156t-215.5 59.5t-215.5 -59.5t-141 -156t-47.5 -212.5 zM344 1155l217 295h115l217 -295h-96l-179 246l-180 -246h-94z" />
<glyph unicode="&#xf5;" horiz-adv-x="1243" d="M119 487q0 221 142 365.5t360 144.5q219 0 361 -144t142 -366t-142 -369t-361 -147q-143 0 -258 67t-179.5 185t-64.5 264zM217 487q0 -179 111 -306.5t293 -127.5t293.5 127.5t111.5 306.5q0 116 -48 212.5t-141.5 156t-215.5 59.5t-215.5 -59.5t-141 -156t-47.5 -212.5 zM338 1198q11 81 48.5 128.5t98.5 47.5q57 0 140 -47q86 -47 127 -47q68 0 88 96h59q-11 -80 -48.5 -126t-98.5 -46t-142 47q-74 47 -125 47q-69 0 -86 -100h-61z" />
<glyph unicode="&#xf6;" horiz-adv-x="1243" d="M119 487q0 221 142 365.5t360 144.5q219 0 361 -144t142 -366t-142 -369t-361 -147q-143 0 -258 67t-179.5 185t-64.5 264zM217 487q0 -179 111 -306.5t293 -127.5t293.5 127.5t111.5 306.5q0 116 -48 212.5t-141.5 156t-215.5 59.5t-215.5 -59.5t-141 -156t-47.5 -212.5 zM371 1339q0 31 21.5 54.5t53.5 23.5q31 0 52.5 -23t21.5 -55q0 -33 -22 -55t-52 -22q-32 0 -53.5 22.5t-21.5 54.5zM715 1339q0 31 22 54.5t54 23.5q31 0 52 -23t21 -55q0 -33 -21.5 -55t-51.5 -22q-32 0 -54 22.5t-22 54.5z" />
<glyph unicode="&#xf7;" horiz-adv-x="1363" d="M176 578v86h1014v-86h-1014zM588 276q0 40 27.5 68.5t66.5 28.5q38 0 66 -29t28 -68q0 -40 -28 -69t-66 -29t-66 29t-28 69zM588 963q0 38 28 67t66 29t66 -29t28 -67q0 -40 -28 -69.5t-66 -29.5t-66 29.5t-28 69.5z" />
<glyph unicode="&#xf8;" horiz-adv-x="1243" d="M117 -16l133 147q-131 144 -131 356q0 221 142 365.5t360 144.5q183 0 315 -104l113 127l57 -55l-113 -125q131 -144 131 -353q0 -222 -142 -369t-361 -147q-184 0 -316 107l-127 -141zM217 487q0 -168 94 -288l563 628q-110 88 -253 88q-122 0 -215.5 -59.5t-141 -156 t-47.5 -212.5zM365 143q104 -90 256 -90q182 0 293.5 127.5t111.5 306.5q0 163 -96 283z" />
<glyph unicode="&#xf9;" horiz-adv-x="1193" d="M182 395v576h99v-572q0 -51 7.5 -97t27 -92.5t50 -80.5t80 -55t113.5 -21q150 0 244 116.5t94 303.5v498h96v-971h-92v215h-6q-41 -109 -139 -176.5t-217 -67.5q-97 0 -168.5 35.5t-111.5 97t-58.5 134t-18.5 157.5zM356 1450h117l209 -295h-80z" />
<glyph unicode="&#xfa;" horiz-adv-x="1193" d="M182 395v576h99v-572q0 -51 7.5 -97t27 -92.5t50 -80.5t80 -55t113.5 -21q150 0 244 116.5t94 303.5v498h96v-971h-92v215h-6q-41 -109 -139 -176.5t-217 -67.5q-97 0 -168.5 35.5t-111.5 97t-58.5 134t-18.5 157.5zM541 1155l209 295h116l-243 -295h-82z" />
<glyph unicode="&#xfb;" horiz-adv-x="1193" d="M182 395v576h99v-572q0 -51 7.5 -97t27 -92.5t50 -80.5t80 -55t113.5 -21q150 0 244 116.5t94 303.5v498h96v-971h-92v215h-6q-41 -109 -139 -176.5t-217 -67.5q-97 0 -168.5 35.5t-111.5 97t-58.5 134t-18.5 157.5zM338 1155l217 295h115l217 -295h-96l-179 246 l-180 -246h-94z" />
<glyph unicode="&#xfc;" horiz-adv-x="1193" d="M182 395v576h99v-572q0 -51 7.5 -97t27 -92.5t50 -80.5t80 -55t113.5 -21q150 0 244 116.5t94 303.5v498h96v-971h-92v215h-6q-41 -109 -139 -176.5t-217 -67.5q-97 0 -168.5 35.5t-111.5 97t-58.5 134t-18.5 157.5zM365 1339q0 31 21.5 54.5t53.5 23.5q31 0 52.5 -23 t21.5 -55q0 -33 -22 -55t-52 -22q-32 0 -53.5 22.5t-21.5 54.5zM709 1339q0 31 21.5 54.5t53.5 23.5q31 0 52.5 -23t21.5 -55q0 -33 -22 -55t-52 -22q-32 0 -53.5 22.5t-21.5 54.5z" />
<glyph unicode="&#xfd;" horiz-adv-x="931" d="M39 971h106l330 -883h2l311 883h103l-430 -1149q-15 -40 -23.5 -61t-22.5 -54.5t-24 -51t-26 -42.5t-30 -38t-33.5 -28.5t-40.5 -23t-47 -12.5t-56 -5q-46 0 -99 11l9 84q55 -11 88 -11q75 0 116.5 46t73.5 131l80 217zM375 1155l209 295h116l-243 -295h-82z" />
<glyph unicode="&#xfe;" horiz-adv-x="1288" d="M195 -492v2040h96v-807h6q56 118 162.5 187t234.5 69q209 0 342 -147t133 -367q0 -217 -134 -364.5t-343 -147.5q-125 0 -233.5 67t-161.5 183h-6v-713h-96zM285 485q0 -113 50 -212t141.5 -159.5t203.5 -60.5q118 0 208.5 61t136.5 158t46 211t-46 211.5t-136.5 159 t-208.5 61.5q-112 0 -203.5 -59.5t-141.5 -158t-50 -212.5z" />
<glyph unicode="&#xff;" horiz-adv-x="931" d="M39 971h106l330 -883h2l311 883h103l-430 -1149q-15 -40 -23.5 -61t-22.5 -54.5t-24 -51t-26 -42.5t-30 -38t-33.5 -28.5t-40.5 -23t-47 -12.5t-56 -5q-46 0 -99 11l9 84q55 -11 88 -11q75 0 116.5 46t73.5 131l80 217zM225 1339q0 31 22 54.5t54 23.5q31 0 52.5 -23 t21.5 -55q0 -33 -22 -55t-52 -22q-32 0 -54 22.5t-22 54.5zM569 1339q0 31 22 54.5t54 23.5q31 0 52.5 -23t21.5 -55q0 -33 -22 -55t-52 -22q-32 0 -54 22.5t-22 54.5z" />
<glyph unicode="&#x152;" horiz-adv-x="2590" d="M131 725q0 166 57 308.5t157 242.5t239.5 156.5t300.5 56.5q224 0 393 -109.5t248 -298.5h4v369h940v-88h-842v-571h721v-89h-721v-612h869v-90h-967v371h-2q-81 -190 -250.5 -300t-392.5 -110q-160 0 -299.5 57t-239.5 157t-157.5 242.5t-57.5 307.5zM238 725 q0 -139 47 -262.5t130 -214.5t205 -144t265 -53t265 53t205 144t130 214.5t47 262.5q0 140 -47.5 264t-131 215t-205.5 144t-263 53t-263 -53t-205.5 -144t-131 -215t-47.5 -264z" />
<glyph unicode="&#x153;" horiz-adv-x="2050" d="M119 483q0 222 142 368t360 146q154 0 272.5 -82t175.5 -215h4q54 133 165.5 215t252.5 82q107 0 193.5 -41.5t139.5 -109.5t81 -149.5t28 -166.5q0 -10 -1 -30.5t-1 -30.5h-815q3 -81 29.5 -154.5t73.5 -132t121 -93t165 -34.5q206 0 334 164l66 -53 q-69 -90 -173 -142.5t-233 -52.5q-148 0 -261 78t-167 209h-6q-55 -132 -172 -209.5t-272 -77.5q-218 0 -360 145t-142 367zM217 483q0 -116 47.5 -213t141 -157t215.5 -60q92 0 169 35t127.5 94t78.5 137t28 164q0 87 -28 165t-78.5 137.5t-127.5 94.5t-169 35 q-122 0 -215.5 -60t-141 -157.5t-47.5 -214.5zM1118 543h725q-3 161 -103 266.5t-255 105.5q-70 0 -130.5 -24.5t-102 -64t-72 -89t-45.5 -99t-17 -95.5z" />
<glyph unicode="&#x178;" horiz-adv-x="1163" d="M18 1450h121l447 -729l444 729h115l-512 -817v-633h-103v633zM334 1751q0 31 22 53.5t54 22.5q31 0 52 -22t21 -54q0 -33 -21.5 -55.5t-51.5 -22.5q-32 0 -54 22t-22 56zM678 1751q0 31 22 53.5t54 22.5q31 0 52 -22t21 -54q0 -33 -21.5 -55.5t-51.5 -22.5q-32 0 -54 22 t-22 56z" />
<glyph unicode="&#x2c6;" horiz-adv-x="497" d="M-25 1155l218 295h114l217 -295h-96l-178 246l-180 -246h-95z" />
<glyph unicode="&#x2dc;" horiz-adv-x="497" d="M-31 1198q11 81 49 128.5t99 47.5q56 0 139 -47q86 -47 127 -47q68 0 88 96h59q-11 -80 -48.5 -126t-98.5 -46q-60 0 -141 47q-74 47 -125 47q-69 0 -86 -100h-62z" />
<glyph unicode="&#x2000;" horiz-adv-x="931" />
<glyph unicode="&#x2001;" horiz-adv-x="1862" />
<glyph unicode="&#x2002;" horiz-adv-x="931" />
<glyph unicode="&#x2003;" horiz-adv-x="1862" />
<glyph unicode="&#x2004;" horiz-adv-x="620" />
<glyph unicode="&#x2005;" horiz-adv-x="465" />
<glyph unicode="&#x2006;" horiz-adv-x="310" />
<glyph unicode="&#x2007;" horiz-adv-x="310" />
<glyph unicode="&#x2008;" horiz-adv-x="232" />
<glyph unicode="&#x2009;" horiz-adv-x="372" />
<glyph unicode="&#x200a;" horiz-adv-x="103" />
<glyph unicode="&#x2010;" horiz-adv-x="628" d="M111 471v84h407v-84h-407z" />
<glyph unicode="&#x2011;" horiz-adv-x="628" d="M111 471v84h407v-84h-407z" />
<glyph unicode="&#x2012;" horiz-adv-x="628" d="M111 471v84h407v-84h-407z" />
<glyph unicode="&#x2013;" horiz-adv-x="819" d="M61 473v80h697v-80h-697z" />
<glyph unicode="&#x2014;" horiz-adv-x="1228" d="M61 473v80h1106v-80h-1106z" />
<glyph unicode="&#x2018;" horiz-adv-x="468" d="M127 1065q0 59 55.5 190.5t106.5 223.5l61 -35q-91 -178 -119 -305q45 -25 45 -76q0 -35 -21.5 -57.5t-53.5 -22.5q-28 0 -51 21.5t-23 60.5z" />
<glyph unicode="&#x2019;" horiz-adv-x="468" d="M121 1018q81 159 119 307q-45 22 -45 74q0 35 21 57.5t52 22.5q29 0 51.5 -21t22.5 -61q0 -59 -56 -193t-106 -221z" />
<glyph unicode="&#x201a;" horiz-adv-x="468" d="M121 -250q81 155 119 305q-45 25 -45 76q0 35 21 57.5t52 22.5q27 0 49.5 -22.5t22.5 -61.5q0 -64 -55.5 -197.5t-104.5 -214.5z" />
<glyph unicode="&#x201c;" horiz-adv-x="772" d="M129 1065q0 59 55.5 190.5t106.5 223.5l61 -35q-91 -178 -119 -305q46 -26 46 -76q0 -35 -21.5 -57.5t-54.5 -22.5q-28 0 -51 21.5t-23 60.5zM430 1065q0 59 55.5 190.5t106.5 223.5l61 -35q-89 -174 -118 -305q45 -25 45 -76q0 -35 -21.5 -57.5t-54.5 -22.5 q-28 0 -51 21.5t-23 60.5z" />
<glyph unicode="&#x201d;" horiz-adv-x="772" d="M123 1018q81 159 119 307q-45 22 -45 74q0 35 21 57.5t52 22.5q29 0 51.5 -21t22.5 -61q0 -59 -56 -193t-106 -221zM424 1018q81 159 119 307q-45 22 -45 74q0 35 21 57.5t52 22.5q29 0 51.5 -21t22.5 -61q0 -59 -56 -193t-106 -221z" />
<glyph unicode="&#x201e;" horiz-adv-x="772" d="M123 -250q81 155 119 305q-45 25 -45 76q0 35 21 57.5t52 22.5q27 0 49.5 -22.5t22.5 -61.5q0 -64 -55.5 -197.5t-104.5 -214.5zM424 -250q81 155 119 305q-45 25 -45 76q0 35 21 57.5t52 22.5q27 0 49.5 -22.5t22.5 -61.5q0 -64 -55.5 -197.5t-104.5 -214.5z" />
<glyph unicode="&#x2022;" horiz-adv-x="1024" d="M150 725q0 151 105.5 256.5t256.5 105.5t256.5 -105.5t105.5 -256.5t-105.5 -257t-256.5 -106t-256.5 106t-105.5 257z" />
<glyph unicode="&#x2026;" horiz-adv-x="1517" d="M174 70q0 32 23 56t55 24q34 0 57 -23t23 -57q0 -35 -23.5 -58.5t-56.5 -23.5q-31 0 -54.5 23.5t-23.5 58.5zM680 70q0 32 23 56t55 24q34 0 57 -23t23 -57q0 -35 -23.5 -58.5t-56.5 -23.5q-31 0 -54.5 23.5t-23.5 58.5zM1186 70q0 32 23 56t55 24q34 0 56.5 -23 t22.5 -57q0 -35 -23 -58.5t-56 -23.5q-31 0 -54.5 23.5t-23.5 58.5z" />
<glyph unicode="&#x202f;" horiz-adv-x="372" />
<glyph unicode="&#x2039;" horiz-adv-x="632" d="M137 489l256 402h96l-251 -402l251 -401h-94z" />
<glyph unicode="&#x203a;" horiz-adv-x="632" d="M143 893h97l256 -404l-256 -399h-95l252 399z" />
<glyph unicode="&#x205f;" horiz-adv-x="465" />
<glyph unicode="&#x20ac;" d="M39 516l27 78h106q-4 66 -4 121q0 85 6 143h-131l25 76h118q56 266 216.5 410.5t383.5 144.5q175 0 301 -68l-32 -84q-117 66 -275 66q-183 0 -315.5 -123.5t-179.5 -345.5h667l-26 -76h-654q-10 -65 -10 -143q0 -71 6 -121h580l-25 -78h-544q34 -213 170 -341t325 -128 q175 0 297 88l39 -80q-133 -94 -348 -94q-120 0 -221.5 44t-173.5 120.5t-119 176t-66 214.5h-143z" />
<glyph unicode="&#x2122;" horiz-adv-x="2048" d="M174 1372v78h625v-78h-269v-766h-88v766h-268zM999 606v844h136l292 -711l295 711h136v-844h-89v742h-4l-309 -742h-57l-307 742h-5v-742h-88z" />
<glyph unicode="&#x25fc;" horiz-adv-x="972" d="M0 0v973h973v-973h-973z" />
</font>
</defs>
</svg>
