<svg xmlns="http://www.w3.org/2000/svg" xmlns:xlink="http://www.w3.org/1999/xlink" preserveAspectRatio="xMidYMid" width="62" height="62" viewBox="0 0 62 62">
  <defs>
    <style>

      .cls-3 {
        stroke: #0000ff;
        stroke-width: 2px;
        fill: none;
      }

      .cls-4 {
        fill: #212121;
        filter: url(#color-overlay-1);
      }
    </style>

    <filter id="color-overlay-1" filterUnits="userSpaceOnUse">
      <feFlood flood-color="#0000ff" flood-opacity="1"/>
      <feComposite operator="in" in2="SourceGraphic"/>
      <feBlend mode="normal" in2="SourceGraphic" result="colorOverlay"/>
    </filter>
  </defs>
  <g id="contenticonsvg">
    <circle id="circle-1" class="cls-3" cx="31" cy="31" r="30"/>
    <path d="M45.130,21.555 C43.905,22.821 25.453,41.077 24.667,41.854 C24.546,41.974 24.396,42.063 24.232,42.112 C22.989,42.483 15.438,44.925 15.362,44.950 C15.257,44.984 15.149,45.000 15.043,45.000 C14.772,45.000 14.507,44.894 14.308,44.696 C14.032,44.420 13.930,44.012 14.045,43.637 C14.067,43.563 16.302,36.244 16.748,34.594 C16.797,34.416 16.891,34.254 17.020,34.124 C17.020,34.124 36.805,14.323 37.384,13.748 C37.796,13.339 39.303,12.005 41.367,12.005 C42.688,12.005 43.925,12.550 45.046,13.625 C46.319,14.847 46.977,16.154 47.002,17.513 C47.026,18.889 46.397,20.249 45.130,21.555 ZM16.485,42.463 C18.484,41.818 21.616,40.736 23.039,40.280 C22.844,39.654 22.410,38.629 21.486,37.697 C20.286,36.486 19.112,36.052 18.547,35.903 C18.071,37.495 17.076,40.517 16.485,42.463 ZM22.964,36.207 C23.850,37.101 24.388,38.050 24.727,38.843 C28.397,35.212 37.720,25.982 41.767,21.955 C41.704,21.627 41.363,20.152 40.081,18.859 C38.812,17.578 37.576,17.167 37.056,17.042 C33.080,21.019 23.583,30.524 19.946,34.164 C20.791,34.509 21.887,35.121 22.964,36.207 ZM43.606,15.151 C42.887,14.462 42.134,14.112 41.367,14.112 C40.035,14.112 38.966,15.134 38.849,15.250 C38.830,15.269 38.757,15.342 38.700,15.399 C39.522,15.754 40.545,16.347 41.558,17.369 C42.546,18.366 43.116,19.443 43.442,20.281 C43.512,20.210 43.599,20.122 43.637,20.083 C44.498,19.194 44.927,18.343 44.913,17.552 C44.899,16.777 44.459,15.970 43.606,15.151 Z" id="path-1" class="cls-4" fill-rule="evenodd"/>
  </g>
</svg>
