<svg xmlns="http://www.w3.org/2000/svg" xmlns:xlink="http://www.w3.org/1999/xlink" preserveAspectRatio="xMidYMid" width="62" height="62" viewBox="0 0 62 62">
  <defs>
    <style>

      .cls-3 {
        fill: #212121;
        filter: url(#color-overlay-1);
      }

      .cls-4 {
        stroke: #0000ff;
        stroke-width: 2px;
        fill: none;
      }
    </style>

    <filter id="color-overlay-1" filterUnits="userSpaceOnUse">
      <feFlood flood-color="#0000ff" flood-opacity="1"/>
      <feComposite operator="in" in2="SourceGraphic"/>
      <feBlend mode="normal" in2="SourceGraphic" result="colorOverlay"/>
    </filter>
  </defs>
  <g id="designiconsvg">
    <path d="M45.958,30.818 C45.946,30.870 45.952,30.927 45.936,30.978 C45.930,30.997 45.916,31.011 45.909,31.029 C45.897,31.062 45.901,31.093 45.885,31.123 C42.891,38.075 36.376,42.003 29.500,42.003 C22.625,42.003 16.108,38.067 13.113,31.115 C13.100,31.086 13.102,31.051 13.092,31.022 C13.085,31.002 13.070,30.991 13.063,30.968 C13.047,30.918 13.054,30.861 13.044,30.808 C13.025,30.713 13.007,30.624 13.007,30.528 C13.007,30.434 13.025,30.342 13.044,30.248 C13.054,30.195 13.047,30.140 13.063,30.087 C13.070,30.068 13.085,30.057 13.092,30.037 C13.102,30.004 13.100,29.973 13.113,29.944 C16.108,22.991 22.689,18.997 29.564,18.997 C36.440,18.997 42.891,22.999 45.885,29.950 C45.901,29.979 45.897,30.014 45.909,30.043 C45.916,30.063 45.930,30.075 45.936,30.097 C45.952,30.149 45.946,30.205 45.958,30.257 C45.976,30.352 45.993,30.442 45.993,30.537 C45.993,30.632 45.976,30.724 45.958,30.818 ZM29.564,21.085 C23.719,21.085 17.902,24.283 15.109,30.529 C17.929,36.798 23.669,39.915 29.500,39.915 C35.346,39.915 41.097,36.781 43.889,30.537 C41.095,24.286 35.408,21.085 29.564,21.085 ZM29.612,36.810 C26.201,36.810 23.436,34.005 23.436,30.546 C23.436,27.087 26.201,24.282 29.612,24.282 C33.022,24.282 35.787,27.087 35.787,30.546 C35.787,34.005 33.022,36.810 29.612,36.810 ZM29.564,26.324 C27.294,26.324 25.447,28.197 25.447,30.500 C25.447,32.803 27.342,34.722 29.612,34.722 C31.882,34.722 33.681,32.803 33.681,30.500 C33.681,28.197 31.835,26.324 29.564,26.324 Z" id="path-1" class="cls-3" fill-rule="evenodd"/>
    <circle id="circle-1" class="cls-4" cx="31" cy="31" r="30"/>
  </g>
</svg>
