<svg xmlns="http://www.w3.org/2000/svg" xmlns:xlink="http://www.w3.org/1999/xlink" preserveAspectRatio="xMidYMid" width="62" height="62" viewBox="0 0 62 62">
  <defs>
    <style>

      .cls-3 {
        fill: #212121;
        filter: url(#color-overlay-1);
      }

      .cls-4 {
        stroke: #0000ff;
        stroke-width: 2px;
        fill: none;
      }
    </style>

    <filter id="color-overlay-1" filterUnits="userSpaceOnUse">
      <feFlood flood-color="#0000ff" flood-opacity="1"/>
      <feComposite operator="in" in2="SourceGraphic"/>
      <feBlend mode="normal" in2="SourceGraphic" result="colorOverlay"/>
    </filter>
  </defs>
  <g id="interactioniconsvg">
    <path d="M43.063,46.000 C43.063,46.000 33.375,46.000 33.375,46.000 C32.305,46.000 31.438,45.133 31.438,44.062 C31.438,44.062 31.438,34.375 31.438,34.375 C31.438,33.305 32.305,32.438 33.375,32.438 C33.375,32.438 43.063,32.438 43.063,32.438 C44.133,32.438 45.000,33.305 45.000,34.375 C45.000,34.375 45.000,44.062 45.000,44.062 C45.000,45.133 44.133,46.000 43.063,46.000 ZM43.063,34.375 C43.063,34.375 33.375,34.375 33.375,34.375 C33.375,34.375 33.375,44.062 33.375,44.062 C33.375,44.062 43.063,44.062 43.063,44.062 C43.063,44.062 43.063,34.375 43.063,34.375 ZM43.063,28.562 C43.063,28.562 33.375,28.562 33.375,28.562 C32.305,28.562 31.438,27.695 31.438,26.625 C31.438,26.625 31.438,16.938 31.438,16.938 C31.438,15.868 32.305,15.000 33.375,15.000 C33.375,15.000 43.063,15.000 43.063,15.000 C44.133,15.000 45.000,15.868 45.000,16.938 C45.000,16.938 45.000,26.625 45.000,26.625 C45.000,27.695 44.133,28.562 43.063,28.562 ZM43.063,16.938 C43.063,16.938 33.375,16.938 33.375,16.938 C33.375,16.938 33.375,26.625 33.375,26.625 C33.375,26.625 43.063,26.625 43.063,26.625 C43.063,26.625 43.063,16.938 43.063,16.938 ZM25.625,46.000 C25.625,46.000 15.938,46.000 15.938,46.000 C14.867,46.000 14.000,45.133 14.000,44.062 C14.000,44.062 14.000,34.375 14.000,34.375 C14.000,33.305 14.867,32.438 15.938,32.438 C15.938,32.438 25.625,32.438 25.625,32.438 C26.695,32.438 27.563,33.305 27.563,34.375 C27.563,34.375 27.563,44.062 27.563,44.062 C27.563,45.133 26.695,46.000 25.625,46.000 ZM25.625,34.375 C25.625,34.375 15.938,34.375 15.938,34.375 C15.938,34.375 15.938,44.062 15.938,44.062 C15.938,44.062 25.625,44.062 25.625,44.062 C25.625,44.062 25.625,34.375 25.625,34.375 ZM25.625,28.562 C25.625,28.562 15.938,28.562 15.938,28.562 C14.867,28.562 14.000,27.695 14.000,26.625 C14.000,26.625 14.000,16.938 14.000,16.938 C14.000,15.868 14.867,15.000 15.938,15.000 C15.938,15.000 25.625,15.000 25.625,15.000 C26.695,15.000 27.563,15.868 27.563,16.938 C27.563,16.938 27.563,26.625 27.563,26.625 C27.563,27.695 26.695,28.562 25.625,28.562 ZM25.625,16.938 C25.625,16.938 15.938,16.938 15.938,16.938 C15.938,16.938 15.938,26.625 15.938,26.625 C15.938,26.625 25.625,26.625 25.625,26.625 C25.625,26.625 25.625,16.938 25.625,16.938 Z" id="path-1" class="cls-3" fill-rule="evenodd"/>
    <circle id="circle-1" class="cls-4" cx="31" cy="31" r="30"/>
  </g>
</svg>
