<?xml version="1.0" encoding="utf-8"?>
<!DOCTYPE svg PUBLIC "-//W3C//DTD SVG 1.1//EN" "http://www.w3.org/Graphics/SVG/1.1/DTD/svg11.dtd">
<svg xmlns="http://www.w3.org/2000/svg" xmlns:xlink="http://www.w3.org/1999/xlink" preserveAspectRatio="xMidYMid" width="18" height="18" viewBox="0 0 18 18">
  <path d="M17.902,0.727 C17.902,0.727 10.723,17.524 10.723,17.524 C10.586,17.843 10.386,18.004 10.176,18.004 C9.987,18.004 9.790,17.872 9.627,17.604 C9.627,17.604 6.782,12.941 6.782,12.941 C6.439,12.378 5.702,11.632 5.144,11.284 C5.144,11.284 0.400,8.325 0.400,8.325 C-0.158,7.977 -0.120,7.482 0.485,7.225 C0.485,7.225 17.274,0.090 17.274,0.090 C17.425,0.026 17.555,-0.004 17.663,-0.004 C17.986,-0.004 18.097,0.271 17.902,0.727 ZM10.077,16.116 C10.077,16.116 15.613,3.166 15.613,3.166 C15.613,3.166 7.267,11.665 7.267,11.665 C7.466,11.899 7.648,12.134 7.783,12.355 C7.783,12.355 10.077,16.116 10.077,16.116 ZM5.730,10.280 C5.970,10.430 6.225,10.637 6.478,10.861 C6.478,10.861 14.786,2.400 14.786,2.400 C14.786,2.400 1.885,7.881 1.885,7.881 C1.885,7.881 5.730,10.280 5.730,10.280 Z" id="path-1" class="cls-2" fill-rule="evenodd"/>
</svg>
