<?xml version="1.0" encoding="utf-8"?>
<!DOCTYPE svg PUBLIC "-//W3C//DTD SVG 1.1//EN" "http://www.w3.org/Graphics/SVG/1.1/DTD/svg11.dtd">
<svg xmlns="http://www.w3.org/2000/svg" xmlns:xlink="http://www.w3.org/1999/xlink" preserveAspectRatio="xMidYMid" width="15" height="21" viewBox="0 0 15 21">
<path d="M8.747,20.479 C8.736,20.492 8.301,21.003 7.762,21.003 C7.760,21.003 7.716,21.003 7.715,21.003 C7.175,21.003 6.738,20.492 6.728,20.479 C4.021,17.210 -0.003,12.559 -0.003,8.012 C-0.003,3.669 3.469,0.002 7.568,0.002 C12.289,0.002 14.997,3.669 14.997,8.012 C14.997,12.357 11.287,17.413 8.747,20.479 ZM7.568,1.315 C4.142,1.315 1.247,4.382 1.247,8.012 C1.247,11.880 4.761,16.113 7.327,19.204 C7.327,19.204 7.655,19.599 7.655,19.599 C7.677,19.622 7.709,19.648 7.738,19.669 C7.766,19.648 7.797,19.622 7.820,19.599 C11.753,14.847 13.747,10.948 13.747,8.012 C13.747,4.678 11.836,1.315 7.568,1.315 ZM7.519,11.851 C5.448,11.851 3.769,10.089 3.769,7.914 C3.769,5.740 5.448,3.976 7.519,3.976 C9.590,3.976 11.269,5.740 11.269,7.914 C11.269,10.089 9.590,11.851 7.519,11.851 ZM7.490,5.260 C6.112,5.260 4.990,6.438 4.990,7.885 C4.990,9.333 6.140,10.539 7.519,10.539 C8.898,10.539 9.990,9.333 9.990,7.885 C9.990,6.438 8.869,5.260 7.490,5.260 Z" id="path-1" class="cls-2" fill-rule="evenodd" fill="#d6d6d6" />
</svg>
