<svg xmlns="http://www.w3.org/2000/svg" xmlns:xlink="http://www.w3.org/1999/xlink" preserveAspectRatio="xMidYMid" width="62" height="62" viewBox="0 0 62 62">
  <defs>
    <style>

      .cls-3 {
        stroke: #0000ff;
        stroke-width: 2px;
        fill: none;
      }

      .cls-4 {
        fill: #212121;
        filter: url(#color-overlay-1);
      }
    </style>

    <filter id="color-overlay-1" filterUnits="userSpaceOnUse">
      <feFlood flood-color="#0000ff" flood-opacity="1"/>
      <feComposite operator="in" in2="SourceGraphic"/>
      <feBlend mode="normal" in2="SourceGraphic" result="colorOverlay"/>
    </filter>
  </defs>
  <g id="strategyiconsvg">
    <circle id="circle-1" class="cls-3" cx="31" cy="31" r="30"/>
    <path d="M46.844,31.656 C46.844,31.656 43.317,31.656 43.317,31.656 C42.759,38.395 37.394,43.762 30.656,44.319 C30.656,44.319 30.656,47.844 30.656,47.844 C30.656,48.482 30.139,49.000 29.500,49.000 C28.861,49.000 28.344,48.482 28.344,47.844 C28.344,47.844 28.344,44.319 28.344,44.319 C21.606,43.762 16.241,38.395 15.683,31.656 C15.683,31.656 12.156,31.656 12.156,31.656 C11.518,31.656 11.000,31.138 11.000,30.500 C11.000,29.861 11.518,29.344 12.156,29.344 C12.156,29.344 15.683,29.344 15.683,29.344 C16.241,22.605 21.606,17.238 28.344,16.680 C28.344,16.680 28.344,13.156 28.344,13.156 C28.344,12.518 28.861,12.000 29.500,12.000 C30.139,12.000 30.656,12.518 30.656,13.156 C30.656,13.156 30.656,16.680 30.656,16.680 C37.394,17.238 42.759,22.605 43.317,29.344 C43.317,29.344 46.844,29.344 46.844,29.344 C47.482,29.344 48.000,29.861 48.000,30.500 C48.000,31.138 47.482,31.656 46.844,31.656 ZM41.007,31.656 C41.007,31.656 30.656,31.656 30.656,31.656 C30.656,31.656 30.656,42.006 30.656,42.006 C36.120,41.463 40.464,37.120 41.007,31.656 ZM28.344,42.006 C28.344,42.006 28.344,31.656 28.344,31.656 C28.344,31.656 17.993,31.656 17.993,31.656 C18.536,37.120 22.880,41.463 28.344,42.006 ZM17.993,29.344 C17.993,29.344 28.344,29.344 28.344,29.344 C28.344,29.344 28.344,18.994 28.344,18.994 C22.880,19.537 18.536,23.880 17.993,29.344 ZM30.656,18.994 C30.656,18.994 30.656,29.344 30.656,29.344 C30.656,29.344 41.007,29.344 41.007,29.344 C40.464,23.880 36.120,19.537 30.656,18.994 Z" id="path-1" class="cls-4" fill-rule="evenodd"/>
  </g>
</svg>
